G04 #@! TF.GenerationSoftware,KiCad,Pcbnew,9.0.7*
G04 #@! TF.CreationDate,2026-01-10T22:48:38-06:00*
G04 #@! TF.ProjectId,moirePCB,6d6f6972-6550-4434-922e-6b696361645f,rev?*
G04 #@! TF.SameCoordinates,Original*
G04 #@! TF.FileFunction,Legend,Top*
G04 #@! TF.FilePolarity,Positive*
%FSLAX46Y46*%
G04 Gerber Fmt 4.6, Leading zero omitted, Abs format (unit mm)*
G04 Created by KiCad (PCBNEW 9.0.7) date 2026-01-10 22:48:38*
%MOMM*%
%LPD*%
G01*
G04 APERTURE LIST*
G04 Aperture macros list*
%AMRoundRect*
0 Rectangle with rounded corners*
0 $1 Rounding radius*
0 $2 $3 $4 $5 $6 $7 $8 $9 X,Y pos of 4 corners*
0 Add a 4 corners polygon primitive as box body*
4,1,4,$2,$3,$4,$5,$6,$7,$8,$9,$2,$3,0*
0 Add four circle primitives for the rounded corners*
1,1,$1+$1,$2,$3*
1,1,$1+$1,$4,$5*
1,1,$1+$1,$6,$7*
1,1,$1+$1,$8,$9*
0 Add four rect primitives between the rounded corners*
20,1,$1+$1,$2,$3,$4,$5,0*
20,1,$1+$1,$4,$5,$6,$7,0*
20,1,$1+$1,$6,$7,$8,$9,0*
20,1,$1+$1,$8,$9,$2,$3,0*%
G04 Aperture macros list end*
%ADD10C,0.080000*%
%ADD11C,0.050000*%
%ADD12C,0.000000*%
%ADD13C,0.150000*%
%ADD14C,0.125000*%
%ADD15C,0.120000*%
%ADD16R,0.300000X0.450000*%
%ADD17RoundRect,0.250000X0.475000X-0.250000X0.475000X0.250000X-0.475000X0.250000X-0.475000X-0.250000X0*%
%ADD18R,0.600000X0.400000*%
%ADD19R,1.700000X1.700000*%
%ADD20C,1.700000*%
%ADD21RoundRect,0.150000X0.825000X0.150000X-0.825000X0.150000X-0.825000X-0.150000X0.825000X-0.150000X0*%
%ADD22RoundRect,0.250000X0.450000X-0.262500X0.450000X0.262500X-0.450000X0.262500X-0.450000X-0.262500X0*%
G04 APERTURE END LIST*
D10*
X148015935Y-51942607D02*
X147996887Y-51980702D01*
X147996887Y-51980702D02*
X147996887Y-52037845D01*
X147996887Y-52037845D02*
X148015935Y-52094988D01*
X148015935Y-52094988D02*
X148054030Y-52133083D01*
X148054030Y-52133083D02*
X148092125Y-52152130D01*
X148092125Y-52152130D02*
X148168316Y-52171178D01*
X148168316Y-52171178D02*
X148225459Y-52171178D01*
X148225459Y-52171178D02*
X148301649Y-52152130D01*
X148301649Y-52152130D02*
X148339744Y-52133083D01*
X148339744Y-52133083D02*
X148377840Y-52094988D01*
X148377840Y-52094988D02*
X148396887Y-52037845D01*
X148396887Y-52037845D02*
X148396887Y-51999749D01*
X148396887Y-51999749D02*
X148377840Y-51942607D01*
X148377840Y-51942607D02*
X148358792Y-51923559D01*
X148358792Y-51923559D02*
X148225459Y-51923559D01*
X148225459Y-51923559D02*
X148225459Y-51999749D01*
X148396887Y-51752130D02*
X147996887Y-51752130D01*
X147996887Y-51752130D02*
X147996887Y-51599749D01*
X147996887Y-51599749D02*
X148015935Y-51561654D01*
X148015935Y-51561654D02*
X148034982Y-51542607D01*
X148034982Y-51542607D02*
X148073078Y-51523559D01*
X148073078Y-51523559D02*
X148130220Y-51523559D01*
X148130220Y-51523559D02*
X148168316Y-51542607D01*
X148168316Y-51542607D02*
X148187363Y-51561654D01*
X148187363Y-51561654D02*
X148206411Y-51599749D01*
X148206411Y-51599749D02*
X148206411Y-51752130D01*
X148396887Y-51352130D02*
X147996887Y-51352130D01*
X147996887Y-51085464D02*
X147996887Y-51009273D01*
X147996887Y-51009273D02*
X148015935Y-50971178D01*
X148015935Y-50971178D02*
X148054030Y-50933083D01*
X148054030Y-50933083D02*
X148130220Y-50914035D01*
X148130220Y-50914035D02*
X148263554Y-50914035D01*
X148263554Y-50914035D02*
X148339744Y-50933083D01*
X148339744Y-50933083D02*
X148377840Y-50971178D01*
X148377840Y-50971178D02*
X148396887Y-51009273D01*
X148396887Y-51009273D02*
X148396887Y-51085464D01*
X148396887Y-51085464D02*
X148377840Y-51123559D01*
X148377840Y-51123559D02*
X148339744Y-51161654D01*
X148339744Y-51161654D02*
X148263554Y-51180702D01*
X148263554Y-51180702D02*
X148130220Y-51180702D01*
X148130220Y-51180702D02*
X148054030Y-51161654D01*
X148054030Y-51161654D02*
X148015935Y-51123559D01*
X148015935Y-51123559D02*
X147996887Y-51085464D01*
X148396887Y-50533083D02*
X148396887Y-50761654D01*
X148396887Y-50647368D02*
X147996887Y-50647368D01*
X147996887Y-50647368D02*
X148054030Y-50685464D01*
X148054030Y-50685464D02*
X148092125Y-50723559D01*
X148092125Y-50723559D02*
X148111173Y-50761654D01*
X147996887Y-50190226D02*
X147996887Y-50266416D01*
X147996887Y-50266416D02*
X148015935Y-50304512D01*
X148015935Y-50304512D02*
X148034982Y-50323559D01*
X148034982Y-50323559D02*
X148092125Y-50361654D01*
X148092125Y-50361654D02*
X148168316Y-50380702D01*
X148168316Y-50380702D02*
X148320697Y-50380702D01*
X148320697Y-50380702D02*
X148358792Y-50361654D01*
X148358792Y-50361654D02*
X148377840Y-50342607D01*
X148377840Y-50342607D02*
X148396887Y-50304512D01*
X148396887Y-50304512D02*
X148396887Y-50228321D01*
X148396887Y-50228321D02*
X148377840Y-50190226D01*
X148377840Y-50190226D02*
X148358792Y-50171178D01*
X148358792Y-50171178D02*
X148320697Y-50152131D01*
X148320697Y-50152131D02*
X148225459Y-50152131D01*
X148225459Y-50152131D02*
X148187363Y-50171178D01*
X148187363Y-50171178D02*
X148168316Y-50190226D01*
X148168316Y-50190226D02*
X148149268Y-50228321D01*
X148149268Y-50228321D02*
X148149268Y-50304512D01*
X148149268Y-50304512D02*
X148168316Y-50342607D01*
X148168316Y-50342607D02*
X148187363Y-50361654D01*
X148187363Y-50361654D02*
X148225459Y-50380702D01*
X145465935Y-51942607D02*
X145446887Y-51980702D01*
X145446887Y-51980702D02*
X145446887Y-52037845D01*
X145446887Y-52037845D02*
X145465935Y-52094988D01*
X145465935Y-52094988D02*
X145504030Y-52133083D01*
X145504030Y-52133083D02*
X145542125Y-52152130D01*
X145542125Y-52152130D02*
X145618316Y-52171178D01*
X145618316Y-52171178D02*
X145675459Y-52171178D01*
X145675459Y-52171178D02*
X145751649Y-52152130D01*
X145751649Y-52152130D02*
X145789744Y-52133083D01*
X145789744Y-52133083D02*
X145827840Y-52094988D01*
X145827840Y-52094988D02*
X145846887Y-52037845D01*
X145846887Y-52037845D02*
X145846887Y-51999749D01*
X145846887Y-51999749D02*
X145827840Y-51942607D01*
X145827840Y-51942607D02*
X145808792Y-51923559D01*
X145808792Y-51923559D02*
X145675459Y-51923559D01*
X145675459Y-51923559D02*
X145675459Y-51999749D01*
X145846887Y-51752130D02*
X145446887Y-51752130D01*
X145446887Y-51752130D02*
X145446887Y-51599749D01*
X145446887Y-51599749D02*
X145465935Y-51561654D01*
X145465935Y-51561654D02*
X145484982Y-51542607D01*
X145484982Y-51542607D02*
X145523078Y-51523559D01*
X145523078Y-51523559D02*
X145580220Y-51523559D01*
X145580220Y-51523559D02*
X145618316Y-51542607D01*
X145618316Y-51542607D02*
X145637363Y-51561654D01*
X145637363Y-51561654D02*
X145656411Y-51599749D01*
X145656411Y-51599749D02*
X145656411Y-51752130D01*
X145846887Y-51352130D02*
X145446887Y-51352130D01*
X145446887Y-51085464D02*
X145446887Y-51009273D01*
X145446887Y-51009273D02*
X145465935Y-50971178D01*
X145465935Y-50971178D02*
X145504030Y-50933083D01*
X145504030Y-50933083D02*
X145580220Y-50914035D01*
X145580220Y-50914035D02*
X145713554Y-50914035D01*
X145713554Y-50914035D02*
X145789744Y-50933083D01*
X145789744Y-50933083D02*
X145827840Y-50971178D01*
X145827840Y-50971178D02*
X145846887Y-51009273D01*
X145846887Y-51009273D02*
X145846887Y-51085464D01*
X145846887Y-51085464D02*
X145827840Y-51123559D01*
X145827840Y-51123559D02*
X145789744Y-51161654D01*
X145789744Y-51161654D02*
X145713554Y-51180702D01*
X145713554Y-51180702D02*
X145580220Y-51180702D01*
X145580220Y-51180702D02*
X145504030Y-51161654D01*
X145504030Y-51161654D02*
X145465935Y-51123559D01*
X145465935Y-51123559D02*
X145446887Y-51085464D01*
X145846887Y-50533083D02*
X145846887Y-50761654D01*
X145846887Y-50647368D02*
X145446887Y-50647368D01*
X145446887Y-50647368D02*
X145504030Y-50685464D01*
X145504030Y-50685464D02*
X145542125Y-50723559D01*
X145542125Y-50723559D02*
X145561173Y-50761654D01*
X145446887Y-50399750D02*
X145446887Y-50152131D01*
X145446887Y-50152131D02*
X145599268Y-50285464D01*
X145599268Y-50285464D02*
X145599268Y-50228321D01*
X145599268Y-50228321D02*
X145618316Y-50190226D01*
X145618316Y-50190226D02*
X145637363Y-50171178D01*
X145637363Y-50171178D02*
X145675459Y-50152131D01*
X145675459Y-50152131D02*
X145770697Y-50152131D01*
X145770697Y-50152131D02*
X145808792Y-50171178D01*
X145808792Y-50171178D02*
X145827840Y-50190226D01*
X145827840Y-50190226D02*
X145846887Y-50228321D01*
X145846887Y-50228321D02*
X145846887Y-50342607D01*
X145846887Y-50342607D02*
X145827840Y-50380702D01*
X145827840Y-50380702D02*
X145808792Y-50399750D01*
X140396887Y-52190226D02*
X140396887Y-51942607D01*
X140396887Y-51942607D02*
X140549268Y-52075940D01*
X140549268Y-52075940D02*
X140549268Y-52018797D01*
X140549268Y-52018797D02*
X140568316Y-51980702D01*
X140568316Y-51980702D02*
X140587363Y-51961654D01*
X140587363Y-51961654D02*
X140625459Y-51942607D01*
X140625459Y-51942607D02*
X140720697Y-51942607D01*
X140720697Y-51942607D02*
X140758792Y-51961654D01*
X140758792Y-51961654D02*
X140777840Y-51980702D01*
X140777840Y-51980702D02*
X140796887Y-52018797D01*
X140796887Y-52018797D02*
X140796887Y-52133083D01*
X140796887Y-52133083D02*
X140777840Y-52171178D01*
X140777840Y-52171178D02*
X140758792Y-52190226D01*
X140396887Y-51828321D02*
X140796887Y-51694988D01*
X140796887Y-51694988D02*
X140396887Y-51561655D01*
X142965935Y-51942607D02*
X142946887Y-51980702D01*
X142946887Y-51980702D02*
X142946887Y-52037845D01*
X142946887Y-52037845D02*
X142965935Y-52094988D01*
X142965935Y-52094988D02*
X143004030Y-52133083D01*
X143004030Y-52133083D02*
X143042125Y-52152130D01*
X143042125Y-52152130D02*
X143118316Y-52171178D01*
X143118316Y-52171178D02*
X143175459Y-52171178D01*
X143175459Y-52171178D02*
X143251649Y-52152130D01*
X143251649Y-52152130D02*
X143289744Y-52133083D01*
X143289744Y-52133083D02*
X143327840Y-52094988D01*
X143327840Y-52094988D02*
X143346887Y-52037845D01*
X143346887Y-52037845D02*
X143346887Y-51999749D01*
X143346887Y-51999749D02*
X143327840Y-51942607D01*
X143327840Y-51942607D02*
X143308792Y-51923559D01*
X143308792Y-51923559D02*
X143175459Y-51923559D01*
X143175459Y-51923559D02*
X143175459Y-51999749D01*
X143346887Y-51752130D02*
X142946887Y-51752130D01*
X142946887Y-51752130D02*
X143346887Y-51523559D01*
X143346887Y-51523559D02*
X142946887Y-51523559D01*
X143346887Y-51333082D02*
X142946887Y-51333082D01*
X142946887Y-51333082D02*
X142946887Y-51237844D01*
X142946887Y-51237844D02*
X142965935Y-51180701D01*
X142965935Y-51180701D02*
X143004030Y-51142606D01*
X143004030Y-51142606D02*
X143042125Y-51123559D01*
X143042125Y-51123559D02*
X143118316Y-51104511D01*
X143118316Y-51104511D02*
X143175459Y-51104511D01*
X143175459Y-51104511D02*
X143251649Y-51123559D01*
X143251649Y-51123559D02*
X143289744Y-51142606D01*
X143289744Y-51142606D02*
X143327840Y-51180701D01*
X143327840Y-51180701D02*
X143346887Y-51237844D01*
X143346887Y-51237844D02*
X143346887Y-51333082D01*
X137765935Y-51942607D02*
X137746887Y-51980702D01*
X137746887Y-51980702D02*
X137746887Y-52037845D01*
X137746887Y-52037845D02*
X137765935Y-52094988D01*
X137765935Y-52094988D02*
X137804030Y-52133083D01*
X137804030Y-52133083D02*
X137842125Y-52152130D01*
X137842125Y-52152130D02*
X137918316Y-52171178D01*
X137918316Y-52171178D02*
X137975459Y-52171178D01*
X137975459Y-52171178D02*
X138051649Y-52152130D01*
X138051649Y-52152130D02*
X138089744Y-52133083D01*
X138089744Y-52133083D02*
X138127840Y-52094988D01*
X138127840Y-52094988D02*
X138146887Y-52037845D01*
X138146887Y-52037845D02*
X138146887Y-51999749D01*
X138146887Y-51999749D02*
X138127840Y-51942607D01*
X138127840Y-51942607D02*
X138108792Y-51923559D01*
X138108792Y-51923559D02*
X137975459Y-51923559D01*
X137975459Y-51923559D02*
X137975459Y-51999749D01*
X138146887Y-51752130D02*
X137746887Y-51752130D01*
X137746887Y-51752130D02*
X138146887Y-51523559D01*
X138146887Y-51523559D02*
X137746887Y-51523559D01*
X138146887Y-51333082D02*
X137746887Y-51333082D01*
X137746887Y-51333082D02*
X137746887Y-51237844D01*
X137746887Y-51237844D02*
X137765935Y-51180701D01*
X137765935Y-51180701D02*
X137804030Y-51142606D01*
X137804030Y-51142606D02*
X137842125Y-51123559D01*
X137842125Y-51123559D02*
X137918316Y-51104511D01*
X137918316Y-51104511D02*
X137975459Y-51104511D01*
X137975459Y-51104511D02*
X138051649Y-51123559D01*
X138051649Y-51123559D02*
X138089744Y-51142606D01*
X138089744Y-51142606D02*
X138127840Y-51180701D01*
X138127840Y-51180701D02*
X138146887Y-51237844D01*
X138146887Y-51237844D02*
X138146887Y-51333082D01*
X135196887Y-51961654D02*
X135196887Y-52152130D01*
X135196887Y-52152130D02*
X135387363Y-52171178D01*
X135387363Y-52171178D02*
X135368316Y-52152130D01*
X135368316Y-52152130D02*
X135349268Y-52114035D01*
X135349268Y-52114035D02*
X135349268Y-52018797D01*
X135349268Y-52018797D02*
X135368316Y-51980702D01*
X135368316Y-51980702D02*
X135387363Y-51961654D01*
X135387363Y-51961654D02*
X135425459Y-51942607D01*
X135425459Y-51942607D02*
X135520697Y-51942607D01*
X135520697Y-51942607D02*
X135558792Y-51961654D01*
X135558792Y-51961654D02*
X135577840Y-51980702D01*
X135577840Y-51980702D02*
X135596887Y-52018797D01*
X135596887Y-52018797D02*
X135596887Y-52114035D01*
X135596887Y-52114035D02*
X135577840Y-52152130D01*
X135577840Y-52152130D02*
X135558792Y-52171178D01*
X135196887Y-51828321D02*
X135596887Y-51694988D01*
X135596887Y-51694988D02*
X135196887Y-51561655D01*
X135444506Y-51428321D02*
X135444506Y-51123560D01*
X135196887Y-50933083D02*
X135520697Y-50933083D01*
X135520697Y-50933083D02*
X135558792Y-50914036D01*
X135558792Y-50914036D02*
X135577840Y-50894988D01*
X135577840Y-50894988D02*
X135596887Y-50856893D01*
X135596887Y-50856893D02*
X135596887Y-50780702D01*
X135596887Y-50780702D02*
X135577840Y-50742607D01*
X135577840Y-50742607D02*
X135558792Y-50723560D01*
X135558792Y-50723560D02*
X135520697Y-50704512D01*
X135520697Y-50704512D02*
X135196887Y-50704512D01*
X135577840Y-50533083D02*
X135596887Y-50475940D01*
X135596887Y-50475940D02*
X135596887Y-50380702D01*
X135596887Y-50380702D02*
X135577840Y-50342607D01*
X135577840Y-50342607D02*
X135558792Y-50323559D01*
X135558792Y-50323559D02*
X135520697Y-50304512D01*
X135520697Y-50304512D02*
X135482601Y-50304512D01*
X135482601Y-50304512D02*
X135444506Y-50323559D01*
X135444506Y-50323559D02*
X135425459Y-50342607D01*
X135425459Y-50342607D02*
X135406411Y-50380702D01*
X135406411Y-50380702D02*
X135387363Y-50456893D01*
X135387363Y-50456893D02*
X135368316Y-50494988D01*
X135368316Y-50494988D02*
X135349268Y-50514035D01*
X135349268Y-50514035D02*
X135311173Y-50533083D01*
X135311173Y-50533083D02*
X135273078Y-50533083D01*
X135273078Y-50533083D02*
X135234982Y-50514035D01*
X135234982Y-50514035D02*
X135215935Y-50494988D01*
X135215935Y-50494988D02*
X135196887Y-50456893D01*
X135196887Y-50456893D02*
X135196887Y-50361654D01*
X135196887Y-50361654D02*
X135215935Y-50304512D01*
X135387363Y-49999750D02*
X135406411Y-49942607D01*
X135406411Y-49942607D02*
X135425459Y-49923560D01*
X135425459Y-49923560D02*
X135463554Y-49904512D01*
X135463554Y-49904512D02*
X135520697Y-49904512D01*
X135520697Y-49904512D02*
X135558792Y-49923560D01*
X135558792Y-49923560D02*
X135577840Y-49942607D01*
X135577840Y-49942607D02*
X135596887Y-49980702D01*
X135596887Y-49980702D02*
X135596887Y-50133083D01*
X135596887Y-50133083D02*
X135196887Y-50133083D01*
X135196887Y-50133083D02*
X135196887Y-49999750D01*
X135196887Y-49999750D02*
X135215935Y-49961655D01*
X135215935Y-49961655D02*
X135234982Y-49942607D01*
X135234982Y-49942607D02*
X135273078Y-49923560D01*
X135273078Y-49923560D02*
X135311173Y-49923560D01*
X135311173Y-49923560D02*
X135349268Y-49942607D01*
X135349268Y-49942607D02*
X135368316Y-49961655D01*
X135368316Y-49961655D02*
X135387363Y-49999750D01*
X135387363Y-49999750D02*
X135387363Y-50133083D01*
D11*
X147540476Y-43460491D02*
X147540476Y-43060491D01*
X147540476Y-43060491D02*
X147673809Y-43346205D01*
X147673809Y-43346205D02*
X147807142Y-43060491D01*
X147807142Y-43060491D02*
X147807142Y-43460491D01*
X148054761Y-43460491D02*
X148016666Y-43441444D01*
X148016666Y-43441444D02*
X147997619Y-43422396D01*
X147997619Y-43422396D02*
X147978571Y-43384301D01*
X147978571Y-43384301D02*
X147978571Y-43270015D01*
X147978571Y-43270015D02*
X147997619Y-43231920D01*
X147997619Y-43231920D02*
X148016666Y-43212872D01*
X148016666Y-43212872D02*
X148054761Y-43193824D01*
X148054761Y-43193824D02*
X148111904Y-43193824D01*
X148111904Y-43193824D02*
X148150000Y-43212872D01*
X148150000Y-43212872D02*
X148169047Y-43231920D01*
X148169047Y-43231920D02*
X148188095Y-43270015D01*
X148188095Y-43270015D02*
X148188095Y-43384301D01*
X148188095Y-43384301D02*
X148169047Y-43422396D01*
X148169047Y-43422396D02*
X148150000Y-43441444D01*
X148150000Y-43441444D02*
X148111904Y-43460491D01*
X148111904Y-43460491D02*
X148054761Y-43460491D01*
X148359524Y-43460491D02*
X148359524Y-43193824D01*
X148359524Y-43060491D02*
X148340476Y-43079539D01*
X148340476Y-43079539D02*
X148359524Y-43098586D01*
X148359524Y-43098586D02*
X148378571Y-43079539D01*
X148378571Y-43079539D02*
X148359524Y-43060491D01*
X148359524Y-43060491D02*
X148359524Y-43098586D01*
X148550000Y-43460491D02*
X148550000Y-43193824D01*
X148550000Y-43270015D02*
X148569047Y-43231920D01*
X148569047Y-43231920D02*
X148588095Y-43212872D01*
X148588095Y-43212872D02*
X148626190Y-43193824D01*
X148626190Y-43193824D02*
X148664285Y-43193824D01*
X148950000Y-43441444D02*
X148911904Y-43460491D01*
X148911904Y-43460491D02*
X148835714Y-43460491D01*
X148835714Y-43460491D02*
X148797619Y-43441444D01*
X148797619Y-43441444D02*
X148778571Y-43403348D01*
X148778571Y-43403348D02*
X148778571Y-43250967D01*
X148778571Y-43250967D02*
X148797619Y-43212872D01*
X148797619Y-43212872D02*
X148835714Y-43193824D01*
X148835714Y-43193824D02*
X148911904Y-43193824D01*
X148911904Y-43193824D02*
X148950000Y-43212872D01*
X148950000Y-43212872D02*
X148969047Y-43250967D01*
X148969047Y-43250967D02*
X148969047Y-43289063D01*
X148969047Y-43289063D02*
X148778571Y-43327158D01*
X149445238Y-43460491D02*
X149445238Y-43060491D01*
X149445238Y-43060491D02*
X149540476Y-43060491D01*
X149540476Y-43060491D02*
X149597619Y-43079539D01*
X149597619Y-43079539D02*
X149635714Y-43117634D01*
X149635714Y-43117634D02*
X149654761Y-43155729D01*
X149654761Y-43155729D02*
X149673809Y-43231920D01*
X149673809Y-43231920D02*
X149673809Y-43289063D01*
X149673809Y-43289063D02*
X149654761Y-43365253D01*
X149654761Y-43365253D02*
X149635714Y-43403348D01*
X149635714Y-43403348D02*
X149597619Y-43441444D01*
X149597619Y-43441444D02*
X149540476Y-43460491D01*
X149540476Y-43460491D02*
X149445238Y-43460491D01*
X150016666Y-43460491D02*
X150016666Y-43250967D01*
X150016666Y-43250967D02*
X149997619Y-43212872D01*
X149997619Y-43212872D02*
X149959523Y-43193824D01*
X149959523Y-43193824D02*
X149883333Y-43193824D01*
X149883333Y-43193824D02*
X149845238Y-43212872D01*
X150016666Y-43441444D02*
X149978571Y-43460491D01*
X149978571Y-43460491D02*
X149883333Y-43460491D01*
X149883333Y-43460491D02*
X149845238Y-43441444D01*
X149845238Y-43441444D02*
X149826190Y-43403348D01*
X149826190Y-43403348D02*
X149826190Y-43365253D01*
X149826190Y-43365253D02*
X149845238Y-43327158D01*
X149845238Y-43327158D02*
X149883333Y-43308110D01*
X149883333Y-43308110D02*
X149978571Y-43308110D01*
X149978571Y-43308110D02*
X150016666Y-43289063D01*
X150378571Y-43193824D02*
X150378571Y-43460491D01*
X150207143Y-43193824D02*
X150207143Y-43403348D01*
X150207143Y-43403348D02*
X150226190Y-43441444D01*
X150226190Y-43441444D02*
X150264285Y-43460491D01*
X150264285Y-43460491D02*
X150321428Y-43460491D01*
X150321428Y-43460491D02*
X150359524Y-43441444D01*
X150359524Y-43441444D02*
X150378571Y-43422396D01*
X150740476Y-43193824D02*
X150740476Y-43517634D01*
X150740476Y-43517634D02*
X150721429Y-43555729D01*
X150721429Y-43555729D02*
X150702381Y-43574777D01*
X150702381Y-43574777D02*
X150664286Y-43593824D01*
X150664286Y-43593824D02*
X150607143Y-43593824D01*
X150607143Y-43593824D02*
X150569048Y-43574777D01*
X150740476Y-43441444D02*
X150702381Y-43460491D01*
X150702381Y-43460491D02*
X150626190Y-43460491D01*
X150626190Y-43460491D02*
X150588095Y-43441444D01*
X150588095Y-43441444D02*
X150569048Y-43422396D01*
X150569048Y-43422396D02*
X150550000Y-43384301D01*
X150550000Y-43384301D02*
X150550000Y-43270015D01*
X150550000Y-43270015D02*
X150569048Y-43231920D01*
X150569048Y-43231920D02*
X150588095Y-43212872D01*
X150588095Y-43212872D02*
X150626190Y-43193824D01*
X150626190Y-43193824D02*
X150702381Y-43193824D01*
X150702381Y-43193824D02*
X150740476Y-43212872D01*
X150930953Y-43460491D02*
X150930953Y-43060491D01*
X151102381Y-43460491D02*
X151102381Y-43250967D01*
X151102381Y-43250967D02*
X151083334Y-43212872D01*
X151083334Y-43212872D02*
X151045238Y-43193824D01*
X151045238Y-43193824D02*
X150988095Y-43193824D01*
X150988095Y-43193824D02*
X150950000Y-43212872D01*
X150950000Y-43212872D02*
X150930953Y-43231920D01*
X151235715Y-43193824D02*
X151388096Y-43193824D01*
X151292858Y-43060491D02*
X151292858Y-43403348D01*
X151292858Y-43403348D02*
X151311905Y-43441444D01*
X151311905Y-43441444D02*
X151350000Y-43460491D01*
X151350000Y-43460491D02*
X151388096Y-43460491D01*
X151673810Y-43441444D02*
X151635714Y-43460491D01*
X151635714Y-43460491D02*
X151559524Y-43460491D01*
X151559524Y-43460491D02*
X151521429Y-43441444D01*
X151521429Y-43441444D02*
X151502381Y-43403348D01*
X151502381Y-43403348D02*
X151502381Y-43250967D01*
X151502381Y-43250967D02*
X151521429Y-43212872D01*
X151521429Y-43212872D02*
X151559524Y-43193824D01*
X151559524Y-43193824D02*
X151635714Y-43193824D01*
X151635714Y-43193824D02*
X151673810Y-43212872D01*
X151673810Y-43212872D02*
X151692857Y-43250967D01*
X151692857Y-43250967D02*
X151692857Y-43289063D01*
X151692857Y-43289063D02*
X151502381Y-43327158D01*
X151864286Y-43460491D02*
X151864286Y-43193824D01*
X151864286Y-43270015D02*
X151883333Y-43231920D01*
X151883333Y-43231920D02*
X151902381Y-43212872D01*
X151902381Y-43212872D02*
X151940476Y-43193824D01*
X151940476Y-43193824D02*
X151978571Y-43193824D01*
X152550000Y-43250967D02*
X152607143Y-43270015D01*
X152607143Y-43270015D02*
X152626190Y-43289063D01*
X152626190Y-43289063D02*
X152645238Y-43327158D01*
X152645238Y-43327158D02*
X152645238Y-43384301D01*
X152645238Y-43384301D02*
X152626190Y-43422396D01*
X152626190Y-43422396D02*
X152607143Y-43441444D01*
X152607143Y-43441444D02*
X152569048Y-43460491D01*
X152569048Y-43460491D02*
X152416667Y-43460491D01*
X152416667Y-43460491D02*
X152416667Y-43060491D01*
X152416667Y-43060491D02*
X152550000Y-43060491D01*
X152550000Y-43060491D02*
X152588095Y-43079539D01*
X152588095Y-43079539D02*
X152607143Y-43098586D01*
X152607143Y-43098586D02*
X152626190Y-43136682D01*
X152626190Y-43136682D02*
X152626190Y-43174777D01*
X152626190Y-43174777D02*
X152607143Y-43212872D01*
X152607143Y-43212872D02*
X152588095Y-43231920D01*
X152588095Y-43231920D02*
X152550000Y-43250967D01*
X152550000Y-43250967D02*
X152416667Y-43250967D01*
X152873809Y-43460491D02*
X152835714Y-43441444D01*
X152835714Y-43441444D02*
X152816667Y-43422396D01*
X152816667Y-43422396D02*
X152797619Y-43384301D01*
X152797619Y-43384301D02*
X152797619Y-43270015D01*
X152797619Y-43270015D02*
X152816667Y-43231920D01*
X152816667Y-43231920D02*
X152835714Y-43212872D01*
X152835714Y-43212872D02*
X152873809Y-43193824D01*
X152873809Y-43193824D02*
X152930952Y-43193824D01*
X152930952Y-43193824D02*
X152969048Y-43212872D01*
X152969048Y-43212872D02*
X152988095Y-43231920D01*
X152988095Y-43231920D02*
X153007143Y-43270015D01*
X153007143Y-43270015D02*
X153007143Y-43384301D01*
X153007143Y-43384301D02*
X152988095Y-43422396D01*
X152988095Y-43422396D02*
X152969048Y-43441444D01*
X152969048Y-43441444D02*
X152930952Y-43460491D01*
X152930952Y-43460491D02*
X152873809Y-43460491D01*
X153350000Y-43460491D02*
X153350000Y-43250967D01*
X153350000Y-43250967D02*
X153330953Y-43212872D01*
X153330953Y-43212872D02*
X153292857Y-43193824D01*
X153292857Y-43193824D02*
X153216667Y-43193824D01*
X153216667Y-43193824D02*
X153178572Y-43212872D01*
X153350000Y-43441444D02*
X153311905Y-43460491D01*
X153311905Y-43460491D02*
X153216667Y-43460491D01*
X153216667Y-43460491D02*
X153178572Y-43441444D01*
X153178572Y-43441444D02*
X153159524Y-43403348D01*
X153159524Y-43403348D02*
X153159524Y-43365253D01*
X153159524Y-43365253D02*
X153178572Y-43327158D01*
X153178572Y-43327158D02*
X153216667Y-43308110D01*
X153216667Y-43308110D02*
X153311905Y-43308110D01*
X153311905Y-43308110D02*
X153350000Y-43289063D01*
X153540477Y-43460491D02*
X153540477Y-43193824D01*
X153540477Y-43270015D02*
X153559524Y-43231920D01*
X153559524Y-43231920D02*
X153578572Y-43212872D01*
X153578572Y-43212872D02*
X153616667Y-43193824D01*
X153616667Y-43193824D02*
X153654762Y-43193824D01*
X153959524Y-43460491D02*
X153959524Y-43060491D01*
X153959524Y-43441444D02*
X153921429Y-43460491D01*
X153921429Y-43460491D02*
X153845238Y-43460491D01*
X153845238Y-43460491D02*
X153807143Y-43441444D01*
X153807143Y-43441444D02*
X153788096Y-43422396D01*
X153788096Y-43422396D02*
X153769048Y-43384301D01*
X153769048Y-43384301D02*
X153769048Y-43270015D01*
X153769048Y-43270015D02*
X153788096Y-43231920D01*
X153788096Y-43231920D02*
X153807143Y-43212872D01*
X153807143Y-43212872D02*
X153845238Y-43193824D01*
X153845238Y-43193824D02*
X153921429Y-43193824D01*
X153921429Y-43193824D02*
X153959524Y-43212872D01*
X149092858Y-44104469D02*
X149092858Y-43704469D01*
X149092858Y-43704469D02*
X149245239Y-43704469D01*
X149245239Y-43704469D02*
X149283334Y-43723517D01*
X149283334Y-43723517D02*
X149302381Y-43742564D01*
X149302381Y-43742564D02*
X149321429Y-43780660D01*
X149321429Y-43780660D02*
X149321429Y-43837802D01*
X149321429Y-43837802D02*
X149302381Y-43875898D01*
X149302381Y-43875898D02*
X149283334Y-43894945D01*
X149283334Y-43894945D02*
X149245239Y-43913993D01*
X149245239Y-43913993D02*
X149092858Y-43913993D01*
X149492858Y-44104469D02*
X149492858Y-43837802D01*
X149492858Y-43913993D02*
X149511905Y-43875898D01*
X149511905Y-43875898D02*
X149530953Y-43856850D01*
X149530953Y-43856850D02*
X149569048Y-43837802D01*
X149569048Y-43837802D02*
X149607143Y-43837802D01*
X149797619Y-44104469D02*
X149759524Y-44085422D01*
X149759524Y-44085422D02*
X149740477Y-44066374D01*
X149740477Y-44066374D02*
X149721429Y-44028279D01*
X149721429Y-44028279D02*
X149721429Y-43913993D01*
X149721429Y-43913993D02*
X149740477Y-43875898D01*
X149740477Y-43875898D02*
X149759524Y-43856850D01*
X149759524Y-43856850D02*
X149797619Y-43837802D01*
X149797619Y-43837802D02*
X149854762Y-43837802D01*
X149854762Y-43837802D02*
X149892858Y-43856850D01*
X149892858Y-43856850D02*
X149911905Y-43875898D01*
X149911905Y-43875898D02*
X149930953Y-43913993D01*
X149930953Y-43913993D02*
X149930953Y-44028279D01*
X149930953Y-44028279D02*
X149911905Y-44066374D01*
X149911905Y-44066374D02*
X149892858Y-44085422D01*
X149892858Y-44085422D02*
X149854762Y-44104469D01*
X149854762Y-44104469D02*
X149797619Y-44104469D01*
X150045239Y-43837802D02*
X150197620Y-43837802D01*
X150102382Y-43704469D02*
X150102382Y-44047326D01*
X150102382Y-44047326D02*
X150121429Y-44085422D01*
X150121429Y-44085422D02*
X150159524Y-44104469D01*
X150159524Y-44104469D02*
X150197620Y-44104469D01*
X150292857Y-43837802D02*
X150388095Y-44104469D01*
X150483334Y-43837802D02*
X150388095Y-44104469D01*
X150388095Y-44104469D02*
X150350000Y-44199707D01*
X150350000Y-44199707D02*
X150330953Y-44218755D01*
X150330953Y-44218755D02*
X150292857Y-44237802D01*
X150635715Y-43837802D02*
X150635715Y-44237802D01*
X150635715Y-43856850D02*
X150673810Y-43837802D01*
X150673810Y-43837802D02*
X150750000Y-43837802D01*
X150750000Y-43837802D02*
X150788096Y-43856850D01*
X150788096Y-43856850D02*
X150807143Y-43875898D01*
X150807143Y-43875898D02*
X150826191Y-43913993D01*
X150826191Y-43913993D02*
X150826191Y-44028279D01*
X150826191Y-44028279D02*
X150807143Y-44066374D01*
X150807143Y-44066374D02*
X150788096Y-44085422D01*
X150788096Y-44085422D02*
X150750000Y-44104469D01*
X150750000Y-44104469D02*
X150673810Y-44104469D01*
X150673810Y-44104469D02*
X150635715Y-44085422D01*
X151150001Y-44085422D02*
X151111905Y-44104469D01*
X151111905Y-44104469D02*
X151035715Y-44104469D01*
X151035715Y-44104469D02*
X150997620Y-44085422D01*
X150997620Y-44085422D02*
X150978572Y-44047326D01*
X150978572Y-44047326D02*
X150978572Y-43894945D01*
X150978572Y-43894945D02*
X150997620Y-43856850D01*
X150997620Y-43856850D02*
X151035715Y-43837802D01*
X151035715Y-43837802D02*
X151111905Y-43837802D01*
X151111905Y-43837802D02*
X151150001Y-43856850D01*
X151150001Y-43856850D02*
X151169048Y-43894945D01*
X151169048Y-43894945D02*
X151169048Y-43933041D01*
X151169048Y-43933041D02*
X150978572Y-43971136D01*
X151854762Y-44104469D02*
X151626191Y-44104469D01*
X151740477Y-44104469D02*
X151740477Y-43704469D01*
X151740477Y-43704469D02*
X151702381Y-43761612D01*
X151702381Y-43761612D02*
X151664286Y-43799707D01*
X151664286Y-43799707D02*
X151626191Y-43818755D01*
X152026191Y-44066374D02*
X152045238Y-44085422D01*
X152045238Y-44085422D02*
X152026191Y-44104469D01*
X152026191Y-44104469D02*
X152007143Y-44085422D01*
X152007143Y-44085422D02*
X152026191Y-44066374D01*
X152026191Y-44066374D02*
X152026191Y-44104469D01*
X152292857Y-43704469D02*
X152330952Y-43704469D01*
X152330952Y-43704469D02*
X152369048Y-43723517D01*
X152369048Y-43723517D02*
X152388095Y-43742564D01*
X152388095Y-43742564D02*
X152407143Y-43780660D01*
X152407143Y-43780660D02*
X152426190Y-43856850D01*
X152426190Y-43856850D02*
X152426190Y-43952088D01*
X152426190Y-43952088D02*
X152407143Y-44028279D01*
X152407143Y-44028279D02*
X152388095Y-44066374D01*
X152388095Y-44066374D02*
X152369048Y-44085422D01*
X152369048Y-44085422D02*
X152330952Y-44104469D01*
X152330952Y-44104469D02*
X152292857Y-44104469D01*
X152292857Y-44104469D02*
X152254762Y-44085422D01*
X152254762Y-44085422D02*
X152235714Y-44066374D01*
X152235714Y-44066374D02*
X152216667Y-44028279D01*
X152216667Y-44028279D02*
X152197619Y-43952088D01*
X152197619Y-43952088D02*
X152197619Y-43856850D01*
X152197619Y-43856850D02*
X152216667Y-43780660D01*
X152216667Y-43780660D02*
X152235714Y-43742564D01*
X152235714Y-43742564D02*
X152254762Y-43723517D01*
X152254762Y-43723517D02*
X152292857Y-43704469D01*
X147045237Y-44748447D02*
X147045237Y-44348447D01*
X147045237Y-44348447D02*
X147140475Y-44348447D01*
X147140475Y-44348447D02*
X147197618Y-44367495D01*
X147197618Y-44367495D02*
X147235713Y-44405590D01*
X147235713Y-44405590D02*
X147254760Y-44443685D01*
X147254760Y-44443685D02*
X147273808Y-44519876D01*
X147273808Y-44519876D02*
X147273808Y-44577019D01*
X147273808Y-44577019D02*
X147254760Y-44653209D01*
X147254760Y-44653209D02*
X147235713Y-44691304D01*
X147235713Y-44691304D02*
X147197618Y-44729400D01*
X147197618Y-44729400D02*
X147140475Y-44748447D01*
X147140475Y-44748447D02*
X147045237Y-44748447D01*
X147597618Y-44729400D02*
X147559522Y-44748447D01*
X147559522Y-44748447D02*
X147483332Y-44748447D01*
X147483332Y-44748447D02*
X147445237Y-44729400D01*
X147445237Y-44729400D02*
X147426189Y-44691304D01*
X147426189Y-44691304D02*
X147426189Y-44538923D01*
X147426189Y-44538923D02*
X147445237Y-44500828D01*
X147445237Y-44500828D02*
X147483332Y-44481780D01*
X147483332Y-44481780D02*
X147559522Y-44481780D01*
X147559522Y-44481780D02*
X147597618Y-44500828D01*
X147597618Y-44500828D02*
X147616665Y-44538923D01*
X147616665Y-44538923D02*
X147616665Y-44577019D01*
X147616665Y-44577019D02*
X147426189Y-44615114D01*
X147769046Y-44729400D02*
X147807141Y-44748447D01*
X147807141Y-44748447D02*
X147883332Y-44748447D01*
X147883332Y-44748447D02*
X147921427Y-44729400D01*
X147921427Y-44729400D02*
X147940475Y-44691304D01*
X147940475Y-44691304D02*
X147940475Y-44672257D01*
X147940475Y-44672257D02*
X147921427Y-44634161D01*
X147921427Y-44634161D02*
X147883332Y-44615114D01*
X147883332Y-44615114D02*
X147826189Y-44615114D01*
X147826189Y-44615114D02*
X147788094Y-44596066D01*
X147788094Y-44596066D02*
X147769046Y-44557971D01*
X147769046Y-44557971D02*
X147769046Y-44538923D01*
X147769046Y-44538923D02*
X147788094Y-44500828D01*
X147788094Y-44500828D02*
X147826189Y-44481780D01*
X147826189Y-44481780D02*
X147883332Y-44481780D01*
X147883332Y-44481780D02*
X147921427Y-44500828D01*
X148111904Y-44748447D02*
X148111904Y-44481780D01*
X148111904Y-44348447D02*
X148092856Y-44367495D01*
X148092856Y-44367495D02*
X148111904Y-44386542D01*
X148111904Y-44386542D02*
X148130951Y-44367495D01*
X148130951Y-44367495D02*
X148111904Y-44348447D01*
X148111904Y-44348447D02*
X148111904Y-44386542D01*
X148473808Y-44481780D02*
X148473808Y-44805590D01*
X148473808Y-44805590D02*
X148454761Y-44843685D01*
X148454761Y-44843685D02*
X148435713Y-44862733D01*
X148435713Y-44862733D02*
X148397618Y-44881780D01*
X148397618Y-44881780D02*
X148340475Y-44881780D01*
X148340475Y-44881780D02*
X148302380Y-44862733D01*
X148473808Y-44729400D02*
X148435713Y-44748447D01*
X148435713Y-44748447D02*
X148359522Y-44748447D01*
X148359522Y-44748447D02*
X148321427Y-44729400D01*
X148321427Y-44729400D02*
X148302380Y-44710352D01*
X148302380Y-44710352D02*
X148283332Y-44672257D01*
X148283332Y-44672257D02*
X148283332Y-44557971D01*
X148283332Y-44557971D02*
X148302380Y-44519876D01*
X148302380Y-44519876D02*
X148321427Y-44500828D01*
X148321427Y-44500828D02*
X148359522Y-44481780D01*
X148359522Y-44481780D02*
X148435713Y-44481780D01*
X148435713Y-44481780D02*
X148473808Y-44500828D01*
X148664285Y-44481780D02*
X148664285Y-44748447D01*
X148664285Y-44519876D02*
X148683332Y-44500828D01*
X148683332Y-44500828D02*
X148721427Y-44481780D01*
X148721427Y-44481780D02*
X148778570Y-44481780D01*
X148778570Y-44481780D02*
X148816666Y-44500828D01*
X148816666Y-44500828D02*
X148835713Y-44538923D01*
X148835713Y-44538923D02*
X148835713Y-44748447D01*
X149178571Y-44729400D02*
X149140475Y-44748447D01*
X149140475Y-44748447D02*
X149064285Y-44748447D01*
X149064285Y-44748447D02*
X149026190Y-44729400D01*
X149026190Y-44729400D02*
X149007142Y-44691304D01*
X149007142Y-44691304D02*
X149007142Y-44538923D01*
X149007142Y-44538923D02*
X149026190Y-44500828D01*
X149026190Y-44500828D02*
X149064285Y-44481780D01*
X149064285Y-44481780D02*
X149140475Y-44481780D01*
X149140475Y-44481780D02*
X149178571Y-44500828D01*
X149178571Y-44500828D02*
X149197618Y-44538923D01*
X149197618Y-44538923D02*
X149197618Y-44577019D01*
X149197618Y-44577019D02*
X149007142Y-44615114D01*
X149540475Y-44748447D02*
X149540475Y-44348447D01*
X149540475Y-44729400D02*
X149502380Y-44748447D01*
X149502380Y-44748447D02*
X149426189Y-44748447D01*
X149426189Y-44748447D02*
X149388094Y-44729400D01*
X149388094Y-44729400D02*
X149369047Y-44710352D01*
X149369047Y-44710352D02*
X149349999Y-44672257D01*
X149349999Y-44672257D02*
X149349999Y-44557971D01*
X149349999Y-44557971D02*
X149369047Y-44519876D01*
X149369047Y-44519876D02*
X149388094Y-44500828D01*
X149388094Y-44500828D02*
X149426189Y-44481780D01*
X149426189Y-44481780D02*
X149502380Y-44481780D01*
X149502380Y-44481780D02*
X149540475Y-44500828D01*
X150035714Y-44748447D02*
X150035714Y-44481780D01*
X150035714Y-44348447D02*
X150016666Y-44367495D01*
X150016666Y-44367495D02*
X150035714Y-44386542D01*
X150035714Y-44386542D02*
X150054761Y-44367495D01*
X150054761Y-44367495D02*
X150035714Y-44348447D01*
X150035714Y-44348447D02*
X150035714Y-44386542D01*
X150226190Y-44481780D02*
X150226190Y-44748447D01*
X150226190Y-44519876D02*
X150245237Y-44500828D01*
X150245237Y-44500828D02*
X150283332Y-44481780D01*
X150283332Y-44481780D02*
X150340475Y-44481780D01*
X150340475Y-44481780D02*
X150378571Y-44500828D01*
X150378571Y-44500828D02*
X150397618Y-44538923D01*
X150397618Y-44538923D02*
X150397618Y-44748447D01*
X150892857Y-44748447D02*
X150892857Y-44348447D01*
X150892857Y-44348447D02*
X151121428Y-44748447D01*
X151121428Y-44748447D02*
X151121428Y-44348447D01*
X151464286Y-44729400D02*
X151426190Y-44748447D01*
X151426190Y-44748447D02*
X151350000Y-44748447D01*
X151350000Y-44748447D02*
X151311905Y-44729400D01*
X151311905Y-44729400D02*
X151292857Y-44691304D01*
X151292857Y-44691304D02*
X151292857Y-44538923D01*
X151292857Y-44538923D02*
X151311905Y-44500828D01*
X151311905Y-44500828D02*
X151350000Y-44481780D01*
X151350000Y-44481780D02*
X151426190Y-44481780D01*
X151426190Y-44481780D02*
X151464286Y-44500828D01*
X151464286Y-44500828D02*
X151483333Y-44538923D01*
X151483333Y-44538923D02*
X151483333Y-44577019D01*
X151483333Y-44577019D02*
X151292857Y-44615114D01*
X151616666Y-44481780D02*
X151692857Y-44748447D01*
X151692857Y-44748447D02*
X151769047Y-44557971D01*
X151769047Y-44557971D02*
X151845238Y-44748447D01*
X151845238Y-44748447D02*
X151921428Y-44481780D01*
X152454762Y-44348447D02*
X152530953Y-44348447D01*
X152530953Y-44348447D02*
X152569048Y-44367495D01*
X152569048Y-44367495D02*
X152607143Y-44405590D01*
X152607143Y-44405590D02*
X152626191Y-44481780D01*
X152626191Y-44481780D02*
X152626191Y-44615114D01*
X152626191Y-44615114D02*
X152607143Y-44691304D01*
X152607143Y-44691304D02*
X152569048Y-44729400D01*
X152569048Y-44729400D02*
X152530953Y-44748447D01*
X152530953Y-44748447D02*
X152454762Y-44748447D01*
X152454762Y-44748447D02*
X152416667Y-44729400D01*
X152416667Y-44729400D02*
X152378572Y-44691304D01*
X152378572Y-44691304D02*
X152359524Y-44615114D01*
X152359524Y-44615114D02*
X152359524Y-44481780D01*
X152359524Y-44481780D02*
X152378572Y-44405590D01*
X152378572Y-44405590D02*
X152416667Y-44367495D01*
X152416667Y-44367495D02*
X152454762Y-44348447D01*
X152797620Y-44748447D02*
X152797620Y-44481780D01*
X152797620Y-44557971D02*
X152816667Y-44519876D01*
X152816667Y-44519876D02*
X152835715Y-44500828D01*
X152835715Y-44500828D02*
X152873810Y-44481780D01*
X152873810Y-44481780D02*
X152911905Y-44481780D01*
X153102381Y-44748447D02*
X153064286Y-44729400D01*
X153064286Y-44729400D02*
X153045239Y-44691304D01*
X153045239Y-44691304D02*
X153045239Y-44348447D01*
X153407144Y-44729400D02*
X153369048Y-44748447D01*
X153369048Y-44748447D02*
X153292858Y-44748447D01*
X153292858Y-44748447D02*
X153254763Y-44729400D01*
X153254763Y-44729400D02*
X153235715Y-44691304D01*
X153235715Y-44691304D02*
X153235715Y-44538923D01*
X153235715Y-44538923D02*
X153254763Y-44500828D01*
X153254763Y-44500828D02*
X153292858Y-44481780D01*
X153292858Y-44481780D02*
X153369048Y-44481780D01*
X153369048Y-44481780D02*
X153407144Y-44500828D01*
X153407144Y-44500828D02*
X153426191Y-44538923D01*
X153426191Y-44538923D02*
X153426191Y-44577019D01*
X153426191Y-44577019D02*
X153235715Y-44615114D01*
X153769048Y-44748447D02*
X153769048Y-44538923D01*
X153769048Y-44538923D02*
X153750001Y-44500828D01*
X153750001Y-44500828D02*
X153711905Y-44481780D01*
X153711905Y-44481780D02*
X153635715Y-44481780D01*
X153635715Y-44481780D02*
X153597620Y-44500828D01*
X153769048Y-44729400D02*
X153730953Y-44748447D01*
X153730953Y-44748447D02*
X153635715Y-44748447D01*
X153635715Y-44748447D02*
X153597620Y-44729400D01*
X153597620Y-44729400D02*
X153578572Y-44691304D01*
X153578572Y-44691304D02*
X153578572Y-44653209D01*
X153578572Y-44653209D02*
X153597620Y-44615114D01*
X153597620Y-44615114D02*
X153635715Y-44596066D01*
X153635715Y-44596066D02*
X153730953Y-44596066D01*
X153730953Y-44596066D02*
X153769048Y-44577019D01*
X153959525Y-44481780D02*
X153959525Y-44748447D01*
X153959525Y-44519876D02*
X153978572Y-44500828D01*
X153978572Y-44500828D02*
X154016667Y-44481780D01*
X154016667Y-44481780D02*
X154073810Y-44481780D01*
X154073810Y-44481780D02*
X154111906Y-44500828D01*
X154111906Y-44500828D02*
X154130953Y-44538923D01*
X154130953Y-44538923D02*
X154130953Y-44748447D01*
X154302382Y-44729400D02*
X154340477Y-44748447D01*
X154340477Y-44748447D02*
X154416668Y-44748447D01*
X154416668Y-44748447D02*
X154454763Y-44729400D01*
X154454763Y-44729400D02*
X154473811Y-44691304D01*
X154473811Y-44691304D02*
X154473811Y-44672257D01*
X154473811Y-44672257D02*
X154454763Y-44634161D01*
X154454763Y-44634161D02*
X154416668Y-44615114D01*
X154416668Y-44615114D02*
X154359525Y-44615114D01*
X154359525Y-44615114D02*
X154321430Y-44596066D01*
X154321430Y-44596066D02*
X154302382Y-44557971D01*
X154302382Y-44557971D02*
X154302382Y-44538923D01*
X154302382Y-44538923D02*
X154321430Y-44500828D01*
X154321430Y-44500828D02*
X154359525Y-44481780D01*
X154359525Y-44481780D02*
X154416668Y-44481780D01*
X154416668Y-44481780D02*
X154454763Y-44500828D01*
D12*
G36*
X143609565Y-144511942D02*
G01*
X148967375Y-145385072D01*
X151646283Y-145821638D01*
X154325184Y-146258205D01*
X154553394Y-146278050D01*
X154580784Y-146282274D01*
X154606956Y-146287660D01*
X154631617Y-146294443D01*
X154654469Y-146302852D01*
X154665133Y-146307741D01*
X154675240Y-146313121D01*
X154684746Y-146319028D01*
X154693617Y-146325486D01*
X154701818Y-146332525D01*
X154709325Y-146340173D01*
X154716082Y-146348462D01*
X154722059Y-146357420D01*
X154729156Y-146366948D01*
X154735585Y-146376927D01*
X154741376Y-146387335D01*
X154746555Y-146398154D01*
X154751159Y-146409362D01*
X154755199Y-146420950D01*
X154758726Y-146432887D01*
X154761750Y-146445171D01*
X154766441Y-146470661D01*
X154769503Y-146497294D01*
X154771169Y-146524914D01*
X154771674Y-146553379D01*
X154761751Y-146793987D01*
X154761749Y-151020705D01*
X152241597Y-150603981D01*
X152236467Y-150614860D01*
X152232243Y-150625178D01*
X152228877Y-150634950D01*
X152226325Y-150644220D01*
X152224560Y-150652984D01*
X152223542Y-150661280D01*
X152223238Y-150669120D01*
X152223612Y-150676542D01*
X152224622Y-150683548D01*
X152226237Y-150690172D01*
X152228418Y-150696434D01*
X152231129Y-150702350D01*
X152234337Y-150707951D01*
X152238003Y-150713254D01*
X152242090Y-150718274D01*
X152246555Y-150723049D01*
X152251374Y-150727586D01*
X152256506Y-150731916D01*
X152267561Y-150740023D01*
X152279431Y-150747550D01*
X152291826Y-150754677D01*
X152317017Y-150768392D01*
X152329234Y-150775341D01*
X152340818Y-150782575D01*
X152524987Y-150866408D01*
X152705442Y-150954659D01*
X152882178Y-151048027D01*
X153055189Y-151147207D01*
X153140297Y-151199193D01*
X153224481Y-151252895D01*
X153307729Y-151308399D01*
X153390054Y-151365802D01*
X153471441Y-151425166D01*
X153551903Y-151486604D01*
X153631436Y-151550194D01*
X153710033Y-151616011D01*
X153858147Y-151751835D01*
X153997304Y-151891467D01*
X154127387Y-152034991D01*
X154248297Y-152182487D01*
X154359897Y-152334070D01*
X154462081Y-152489801D01*
X154554729Y-152649772D01*
X154637728Y-152814083D01*
X154710956Y-152982808D01*
X154774304Y-153156037D01*
X154827656Y-153333859D01*
X154870891Y-153516366D01*
X154903896Y-153703636D01*
X154926550Y-153895759D01*
X154938738Y-154092828D01*
X154940349Y-154294923D01*
X154939221Y-154365614D01*
X154936008Y-154436308D01*
X154930930Y-154507003D01*
X154924220Y-154577693D01*
X154906861Y-154719083D01*
X154885773Y-154860468D01*
X154839887Y-155143245D01*
X154818800Y-155284629D01*
X154801438Y-155426012D01*
X151606589Y-154890234D01*
X151627170Y-154910777D01*
X151644727Y-154928059D01*
X151659963Y-154942557D01*
X151666925Y-154948899D01*
X151673565Y-154954728D01*
X151679980Y-154960085D01*
X151686236Y-154965033D01*
X151692446Y-154969637D01*
X151698679Y-154973951D01*
X151705034Y-154978028D01*
X151711590Y-154981932D01*
X151718432Y-154985722D01*
X151725656Y-154989458D01*
X152034463Y-155225019D01*
X152328295Y-155470348D01*
X152607067Y-155725454D01*
X152870702Y-155990321D01*
X153119102Y-156264957D01*
X153352179Y-156549357D01*
X153569857Y-156843523D01*
X153772041Y-157147460D01*
X153958641Y-157461162D01*
X154129578Y-157784630D01*
X154284757Y-158117862D01*
X154424091Y-158460868D01*
X154547506Y-158813637D01*
X154654895Y-159176173D01*
X154746183Y-159548479D01*
X154821281Y-159930548D01*
X154859374Y-160176100D01*
X154891626Y-160421603D01*
X154917774Y-160666984D01*
X154937550Y-160912192D01*
X154950711Y-161157165D01*
X154956973Y-161401851D01*
X154956087Y-161646186D01*
X154947782Y-161890113D01*
X154931815Y-162133582D01*
X154907902Y-162376521D01*
X154875794Y-162618878D01*
X154835228Y-162860598D01*
X154785951Y-163101618D01*
X154727681Y-163341886D01*
X154660173Y-163581339D01*
X154583153Y-163819921D01*
X154467840Y-164132000D01*
X154337821Y-164428330D01*
X154193263Y-164708964D01*
X154034353Y-164973958D01*
X153861253Y-165223371D01*
X153674141Y-165457261D01*
X153473193Y-165675692D01*
X153258583Y-165878711D01*
X153030488Y-166066384D01*
X152789078Y-166238763D01*
X152534527Y-166395913D01*
X152267019Y-166537892D01*
X151986712Y-166664752D01*
X151693796Y-166776564D01*
X151388437Y-166873363D01*
X151070807Y-166955227D01*
X150884771Y-166993383D01*
X150698739Y-167026077D01*
X150512701Y-167053420D01*
X150326666Y-167075533D01*
X150140634Y-167092531D01*
X149954600Y-167104526D01*
X149768563Y-167111638D01*
X149582530Y-167113977D01*
X149396493Y-167111676D01*
X149210459Y-167104839D01*
X149024422Y-167093573D01*
X148838386Y-167078017D01*
X148652353Y-167058268D01*
X148466320Y-167034452D01*
X148094243Y-166975076D01*
X147754115Y-166944999D01*
X147441890Y-166913063D01*
X147148265Y-166877409D01*
X147005520Y-166857603D01*
X146863938Y-166836171D01*
X146863937Y-158640701D01*
X149503160Y-158640701D01*
X149503162Y-162807887D01*
X149616055Y-162832584D01*
X149731014Y-162847341D01*
X149847311Y-162852451D01*
X149964217Y-162848193D01*
X150081006Y-162834872D01*
X150196955Y-162812768D01*
X150311332Y-162782182D01*
X150423408Y-162743392D01*
X150532469Y-162696698D01*
X150637779Y-162642393D01*
X150738610Y-162580756D01*
X150834242Y-162512089D01*
X150923941Y-162436681D01*
X151006981Y-162354816D01*
X151082641Y-162266788D01*
X151150191Y-162172889D01*
X151206283Y-162083126D01*
X151255689Y-161992472D01*
X151298699Y-161900939D01*
X151335604Y-161808569D01*
X151366697Y-161715381D01*
X151392271Y-161621413D01*
X151412608Y-161526683D01*
X151428002Y-161431229D01*
X151438742Y-161335074D01*
X151445134Y-161238252D01*
X151447447Y-161140794D01*
X151445985Y-161042725D01*
X151441029Y-160944071D01*
X151432881Y-160844865D01*
X151421824Y-160745140D01*
X151408156Y-160644917D01*
X151393174Y-160554125D01*
X151374341Y-160464134D01*
X151351742Y-160375045D01*
X151325491Y-160286954D01*
X151295676Y-160199972D01*
X151262398Y-160114193D01*
X151185848Y-159946663D01*
X151096623Y-159785186D01*
X150995511Y-159630562D01*
X150883296Y-159483611D01*
X150760756Y-159345155D01*
X150628687Y-159215989D01*
X150487868Y-159096949D01*
X150339086Y-158988837D01*
X150183118Y-158892467D01*
X150020757Y-158808656D01*
X149937425Y-158771712D01*
X149852789Y-158738217D01*
X149766946Y-158708258D01*
X149679994Y-158681958D01*
X149592034Y-158659405D01*
X149503160Y-158640701D01*
X146863937Y-158640701D01*
X146863937Y-158303359D01*
X146863454Y-158278446D01*
X146861955Y-158255722D01*
X146859360Y-158235028D01*
X146857612Y-158225403D01*
X146855568Y-158216229D01*
X146853194Y-158207493D01*
X146850493Y-158199172D01*
X146847450Y-158191250D01*
X146844055Y-158183708D01*
X146840292Y-158176533D01*
X146836164Y-158169706D01*
X146831646Y-158163200D01*
X146826730Y-158157004D01*
X146821409Y-158151101D01*
X146815667Y-158145473D01*
X146809503Y-158140093D01*
X146802890Y-158134955D01*
X146795835Y-158130031D01*
X146788319Y-158125308D01*
X146780325Y-158120764D01*
X146771851Y-158116388D01*
X146753406Y-158108051D01*
X146732900Y-158100152D01*
X146710241Y-158092539D01*
X146685347Y-158085075D01*
X146622094Y-158074616D01*
X146558840Y-158065578D01*
X146495590Y-158058001D01*
X146432336Y-158051900D01*
X146369082Y-158047312D01*
X146305832Y-158044266D01*
X146242576Y-158042784D01*
X146179332Y-158042911D01*
X146116073Y-158044657D01*
X146052822Y-158048065D01*
X145989573Y-158053158D01*
X145926319Y-158059965D01*
X145863071Y-158068513D01*
X145799814Y-158078832D01*
X145736562Y-158090960D01*
X145673312Y-158104920D01*
X145563806Y-158137467D01*
X145458632Y-158175531D01*
X145357940Y-158219066D01*
X145261863Y-158268006D01*
X145170558Y-158322293D01*
X145084160Y-158381873D01*
X145002826Y-158446687D01*
X144926687Y-158516674D01*
X144855905Y-158591778D01*
X144790617Y-158671935D01*
X144730965Y-158757095D01*
X144677089Y-158847195D01*
X144629159Y-158942180D01*
X144587298Y-159041994D01*
X144551654Y-159146566D01*
X144522377Y-159255856D01*
X144488670Y-159400722D01*
X144461993Y-159545063D01*
X144442408Y-159688823D01*
X144429977Y-159831940D01*
X144424758Y-159974366D01*
X144426807Y-160116034D01*
X144436169Y-160256885D01*
X144452924Y-160396871D01*
X144477115Y-160535922D01*
X144508813Y-160673989D01*
X144548062Y-160811002D01*
X144594931Y-160946916D01*
X144649471Y-161081661D01*
X144711744Y-161215192D01*
X144781809Y-161347440D01*
X144859718Y-161478355D01*
X144890409Y-161529753D01*
X144922894Y-161579784D01*
X144957128Y-161628474D01*
X144993047Y-161675862D01*
X145030594Y-161721971D01*
X145069710Y-161766824D01*
X145110337Y-161810464D01*
X145152414Y-161852907D01*
X145195896Y-161894185D01*
X145240703Y-161934331D01*
X145286795Y-161973375D01*
X145334110Y-162011344D01*
X145382589Y-162048263D01*
X145432165Y-162084173D01*
X145482788Y-162119085D01*
X145534408Y-162153043D01*
X145538184Y-162155073D01*
X145542063Y-162157442D01*
X145546032Y-162160128D01*
X145550067Y-162163117D01*
X145558299Y-162169958D01*
X145566655Y-162177844D01*
X145575008Y-162186664D01*
X145583242Y-162196290D01*
X145591247Y-162206622D01*
X145598907Y-162217532D01*
X145606094Y-162228908D01*
X145612699Y-162240634D01*
X145618610Y-162252589D01*
X145621263Y-162258617D01*
X145623707Y-162264659D01*
X145625915Y-162270707D01*
X145627873Y-162276736D01*
X145629573Y-162282734D01*
X145630994Y-162288692D01*
X145632128Y-162294586D01*
X145632949Y-162300415D01*
X145633454Y-162306151D01*
X145633630Y-162311789D01*
X145633629Y-166617881D01*
X145395498Y-166538499D01*
X145063862Y-166401106D01*
X144746042Y-166249487D01*
X144441884Y-166083865D01*
X144151233Y-165904429D01*
X143873961Y-165711395D01*
X143609908Y-165504960D01*
X143358942Y-165285326D01*
X143120908Y-165052701D01*
X142895671Y-164807288D01*
X142683071Y-164549283D01*
X142482971Y-164278896D01*
X142295224Y-163996330D01*
X142119690Y-163701792D01*
X141956217Y-163395479D01*
X141804662Y-163077591D01*
X141664878Y-162748342D01*
X141599984Y-162576958D01*
X141539190Y-162405070D01*
X141482407Y-162232669D01*
X141429546Y-162059706D01*
X141380522Y-161886164D01*
X141335248Y-161712017D01*
X141255603Y-161361765D01*
X141189907Y-161008721D01*
X141137467Y-160652662D01*
X141097587Y-160293337D01*
X141069562Y-159930533D01*
X141052977Y-159573383D01*
X141048478Y-159216467D01*
X141057007Y-158860012D01*
X141079486Y-158504258D01*
X141096251Y-158326721D01*
X141116852Y-158149442D01*
X141141400Y-157972453D01*
X141170020Y-157795779D01*
X141202831Y-157619461D01*
X141239939Y-157443513D01*
X141281466Y-157267983D01*
X141327534Y-157092880D01*
X141402915Y-156832458D01*
X141487871Y-156579656D01*
X141582647Y-156334638D01*
X141687510Y-156097590D01*
X141802716Y-155868677D01*
X141928540Y-155648079D01*
X142065232Y-155435977D01*
X142213062Y-155232526D01*
X142372276Y-155037913D01*
X142543156Y-154852315D01*
X142725951Y-154675904D01*
X142920923Y-154508848D01*
X143128339Y-154351329D01*
X143348458Y-154203520D01*
X143581537Y-154065593D01*
X143827850Y-153937726D01*
X143962484Y-153873065D01*
X144098488Y-153812963D01*
X144235834Y-153757342D01*
X144374481Y-153706109D01*
X144514409Y-153659184D01*
X144655588Y-153616465D01*
X144797989Y-153577873D01*
X144941576Y-153543327D01*
X145086330Y-153512734D01*
X145232216Y-153486007D01*
X145379212Y-153463058D01*
X145527277Y-153443801D01*
X145676394Y-153428144D01*
X145826521Y-153416008D01*
X145977643Y-153407303D01*
X146129723Y-153401938D01*
X146422951Y-153401959D01*
X146714721Y-153409536D01*
X147004988Y-153424785D01*
X147293684Y-153447832D01*
X147580742Y-153478774D01*
X147866122Y-153517743D01*
X148149758Y-153564855D01*
X148431594Y-153620221D01*
X148711569Y-153683950D01*
X148989627Y-153756180D01*
X149265701Y-153837010D01*
X149503166Y-153914603D01*
X149539747Y-153926555D01*
X149811700Y-154024945D01*
X150081498Y-154132278D01*
X150349086Y-154248687D01*
X150614417Y-154374285D01*
X150616276Y-154374342D01*
X150618136Y-154374504D01*
X150620013Y-154374782D01*
X150621887Y-154375175D01*
X150623791Y-154375662D01*
X150625705Y-154376243D01*
X150629606Y-154377690D01*
X150633620Y-154379490D01*
X150637781Y-154381604D01*
X150642118Y-154384016D01*
X150646657Y-154386690D01*
X150667433Y-154399398D01*
X150673423Y-154402942D01*
X150679787Y-154406572D01*
X150686570Y-154410256D01*
X150693782Y-154413975D01*
X150773155Y-153997258D01*
X150817187Y-153562553D01*
X150833852Y-153343570D01*
X150839419Y-153233882D01*
X150842616Y-153124128D01*
X150843005Y-153014377D01*
X150840207Y-152904683D01*
X150833802Y-152795110D01*
X150823384Y-152685705D01*
X150808551Y-152576539D01*
X150788897Y-152467658D01*
X150764002Y-152359125D01*
X150733472Y-152251005D01*
X150661170Y-152036844D01*
X150578283Y-151833435D01*
X150484936Y-151640840D01*
X150381241Y-151459118D01*
X150267313Y-151288324D01*
X150143274Y-151128515D01*
X150009231Y-150979756D01*
X149865307Y-150842096D01*
X149711614Y-150715607D01*
X149548271Y-150600334D01*
X149375392Y-150496340D01*
X149193098Y-150403672D01*
X149001500Y-150322410D01*
X148800718Y-150252601D01*
X148590868Y-150194297D01*
X148372060Y-150147565D01*
X147252441Y-149948818D01*
X146127240Y-149763092D01*
X143867529Y-149393506D01*
X142647136Y-149187626D01*
X142036942Y-149089338D01*
X141426754Y-148996634D01*
X141419534Y-148996407D01*
X141412721Y-148995745D01*
X141406260Y-148994671D01*
X141400088Y-148993225D01*
X141394145Y-148991428D01*
X141388381Y-148989303D01*
X141382733Y-148986900D01*
X141377144Y-148984231D01*
X141371553Y-148981326D01*
X141365904Y-148978223D01*
X141354200Y-148971514D01*
X141341561Y-148964350D01*
X141334751Y-148960660D01*
X141327528Y-148956943D01*
X141327528Y-144134913D01*
X143609565Y-144511942D01*
G37*
G36*
X157976442Y-140781333D02*
G01*
X158061328Y-140786665D01*
X158144885Y-140795211D01*
X158227151Y-140806879D01*
X158308208Y-140821641D01*
X158388094Y-140839419D01*
X158466878Y-140860166D01*
X158544614Y-140883813D01*
X158621365Y-140910313D01*
X158697184Y-140939605D01*
X158772133Y-140971632D01*
X158846264Y-141006323D01*
X158919645Y-141043638D01*
X158992321Y-141083509D01*
X159064364Y-141125881D01*
X159135820Y-141170694D01*
X159206757Y-141217890D01*
X159319113Y-141301286D01*
X159432168Y-141394853D01*
X159544758Y-141498074D01*
X159655721Y-141610424D01*
X159763892Y-141731375D01*
X159868113Y-141860412D01*
X159967212Y-141996995D01*
X160060036Y-142140624D01*
X160145417Y-142290761D01*
X160184954Y-142368107D01*
X160222193Y-142446883D01*
X160256992Y-142527030D01*
X160289207Y-142608473D01*
X160318685Y-142691150D01*
X160345284Y-142775004D01*
X160368865Y-142859957D01*
X160389277Y-142945952D01*
X160406378Y-143032919D01*
X160420012Y-143120793D01*
X160430043Y-143209516D01*
X160436325Y-143299010D01*
X160438715Y-143389225D01*
X160437064Y-143480075D01*
X160435172Y-143608228D01*
X160429351Y-143732308D01*
X160419405Y-143852438D01*
X160405129Y-143968728D01*
X160386316Y-144081303D01*
X160362768Y-144190268D01*
X160334275Y-144295742D01*
X160300636Y-144397850D01*
X160261655Y-144496701D01*
X160217115Y-144592415D01*
X160166827Y-144685102D01*
X160110574Y-144774884D01*
X160048161Y-144861879D01*
X159979381Y-144946194D01*
X159904032Y-145027950D01*
X159821910Y-145107263D01*
X159716356Y-145202413D01*
X159608126Y-145287061D01*
X159553041Y-145325518D01*
X159497339Y-145361423D01*
X159441020Y-145394808D01*
X159384109Y-145425699D01*
X159268557Y-145480091D01*
X159150786Y-145524799D01*
X159030929Y-145560035D01*
X158909098Y-145585997D01*
X158785401Y-145602892D01*
X158659965Y-145610921D01*
X158532899Y-145610286D01*
X158404325Y-145601192D01*
X158274348Y-145583839D01*
X158143099Y-145558439D01*
X158010682Y-145525192D01*
X157877225Y-145484293D01*
X157752263Y-145441614D01*
X157630453Y-145391900D01*
X157511958Y-145335439D01*
X157396907Y-145272528D01*
X157285447Y-145203450D01*
X157177718Y-145128507D01*
X157073869Y-145047980D01*
X156974028Y-144962159D01*
X156878342Y-144871340D01*
X156786959Y-144775813D01*
X156700016Y-144675868D01*
X156617650Y-144571794D01*
X156540011Y-144463881D01*
X156467238Y-144352433D01*
X156399471Y-144237716D01*
X156336856Y-144120043D01*
X156279527Y-143999688D01*
X156227634Y-143876954D01*
X156181304Y-143752129D01*
X156140702Y-143625500D01*
X156105953Y-143497358D01*
X156077203Y-143367996D01*
X156054592Y-143237701D01*
X156038261Y-143106766D01*
X156028364Y-142975486D01*
X156025026Y-142844147D01*
X156028396Y-142713041D01*
X156038616Y-142582462D01*
X156055828Y-142452692D01*
X156080168Y-142324026D01*
X156111789Y-142196757D01*
X156150817Y-142071169D01*
X156178188Y-141997522D01*
X156208161Y-141925445D01*
X156240676Y-141854992D01*
X156275651Y-141786224D01*
X156313030Y-141719202D01*
X156352732Y-141653987D01*
X156394703Y-141590627D01*
X156438862Y-141529189D01*
X156485140Y-141469727D01*
X156533470Y-141412303D01*
X156583789Y-141356962D01*
X156636022Y-141303779D01*
X156690099Y-141252800D01*
X156745947Y-141204092D01*
X156803507Y-141157711D01*
X156862709Y-141113712D01*
X156923482Y-141072157D01*
X156985750Y-141033098D01*
X157049447Y-140996596D01*
X157114520Y-140962714D01*
X157180878Y-140931505D01*
X157248457Y-140903029D01*
X157317198Y-140877341D01*
X157387019Y-140854500D01*
X157457859Y-140834576D01*
X157529652Y-140817606D01*
X157602321Y-140803663D01*
X157675800Y-140792803D01*
X157750022Y-140785082D01*
X157824917Y-140780558D01*
X157900412Y-140779289D01*
X157976442Y-140781333D01*
G37*
G36*
X156316999Y-160053105D02*
G01*
X156324406Y-160056198D01*
X156331753Y-160058939D01*
X156339017Y-160061393D01*
X156353162Y-160065657D01*
X156366617Y-160069456D01*
X156379133Y-160073255D01*
X156384971Y-160075297D01*
X156390487Y-160077517D01*
X156395655Y-160079968D01*
X156400450Y-160082711D01*
X156404835Y-160085802D01*
X156408783Y-160089303D01*
X158264172Y-161193106D01*
X159193730Y-161749665D01*
X160119566Y-162311800D01*
X160130487Y-162319467D01*
X160140917Y-162327578D01*
X160150825Y-162336087D01*
X160160184Y-162344979D01*
X160168956Y-162354218D01*
X160177118Y-162363775D01*
X160184640Y-162373626D01*
X160191503Y-162383735D01*
X160197652Y-162394078D01*
X160203084Y-162404624D01*
X160207764Y-162415342D01*
X160209811Y-162420757D01*
X160211651Y-162426212D01*
X160213296Y-162431690D01*
X160214729Y-162437193D01*
X160215952Y-162442714D01*
X160216961Y-162448265D01*
X160217757Y-162453824D01*
X160218321Y-162459389D01*
X160218672Y-162464970D01*
X160218787Y-162470548D01*
X160218788Y-166419454D01*
X160220531Y-166419512D01*
X160222056Y-166419688D01*
X160223369Y-166419977D01*
X160223951Y-166420171D01*
X160224484Y-166420383D01*
X160224967Y-166420631D01*
X160225410Y-166420905D01*
X160225803Y-166421211D01*
X160226154Y-166421543D01*
X160226464Y-166421909D01*
X160226734Y-166422296D01*
X160226962Y-166422718D01*
X160227157Y-166423168D01*
X160227314Y-166423650D01*
X160227434Y-166424160D01*
X160227579Y-166425259D01*
X160227600Y-166426484D01*
X160227507Y-166427819D01*
X160227315Y-166429276D01*
X160227027Y-166430845D01*
X160226660Y-166432527D01*
X160226228Y-166434334D01*
X160224019Y-166442703D01*
X160222785Y-166447588D01*
X160222171Y-166450205D01*
X160221572Y-166452939D01*
X160221010Y-166455783D01*
X160220487Y-166458749D01*
X160220011Y-166461835D01*
X160219601Y-166465032D01*
X160219261Y-166468342D01*
X160219005Y-166471774D01*
X160218841Y-166475320D01*
X160218782Y-166478981D01*
X159879895Y-166196521D01*
X159546577Y-165915916D01*
X159216983Y-165639038D01*
X158889248Y-165367733D01*
X156448469Y-163323828D01*
X156430562Y-163308935D01*
X156414020Y-163293983D01*
X156398810Y-163278922D01*
X156384911Y-163263681D01*
X156372287Y-163248202D01*
X156360918Y-163232442D01*
X156350766Y-163216330D01*
X156341807Y-163199810D01*
X156334014Y-163182823D01*
X156327351Y-163165314D01*
X156321794Y-163147223D01*
X156317313Y-163128493D01*
X156313879Y-163109064D01*
X156311464Y-163088881D01*
X156310033Y-163067888D01*
X156309565Y-163046021D01*
X156309562Y-160049605D01*
X156316999Y-160053105D01*
G37*
G36*
X156587377Y-111611012D02*
G01*
X156231821Y-111611016D01*
X156587379Y-111520372D01*
X156587377Y-111611012D01*
G37*
G36*
X154662532Y-140225700D02*
G01*
X154662534Y-145047732D01*
X141268006Y-142805387D01*
X141268005Y-138003202D01*
X154662532Y-140225700D01*
G37*
G36*
X146878519Y-124307280D02*
G01*
X147135203Y-124311991D01*
X147661408Y-124351633D01*
X148176926Y-124421395D01*
X148681499Y-124521581D01*
X149174922Y-124652530D01*
X149656942Y-124814548D01*
X150127341Y-125007963D01*
X150585884Y-125233095D01*
X151032328Y-125490249D01*
X151466449Y-125779770D01*
X151888012Y-126101948D01*
X152296787Y-126457128D01*
X152692536Y-126845612D01*
X153075034Y-127267732D01*
X153241778Y-127470961D01*
X153399742Y-127678758D01*
X153548987Y-127891026D01*
X153689574Y-128107685D01*
X153821549Y-128328645D01*
X153944984Y-128553822D01*
X154059925Y-128783123D01*
X154166438Y-129016464D01*
X154264588Y-129253766D01*
X154354412Y-129494929D01*
X154435984Y-129739868D01*
X154509366Y-129988503D01*
X154574599Y-130240737D01*
X154631760Y-130496492D01*
X154680894Y-130755671D01*
X154722062Y-131018203D01*
X154762992Y-131375081D01*
X154796481Y-131715211D01*
X154822523Y-132014420D01*
X154841122Y-132248516D01*
X154828649Y-132713025D01*
X154804540Y-133155438D01*
X154766479Y-133577849D01*
X154741489Y-133782212D01*
X154712139Y-133982361D01*
X154678139Y-134178557D01*
X154639202Y-134371056D01*
X154595023Y-134560129D01*
X154545334Y-134746039D01*
X154489823Y-134929033D01*
X154428207Y-135109387D01*
X154360198Y-135287353D01*
X154285506Y-135463201D01*
X154145530Y-135753192D01*
X153993544Y-136027893D01*
X153829647Y-136287364D01*
X153653914Y-136531666D01*
X153466442Y-136760846D01*
X153267314Y-136974969D01*
X153056616Y-137174099D01*
X152834431Y-137358282D01*
X152600854Y-137527579D01*
X152355976Y-137682058D01*
X152099870Y-137821769D01*
X151832634Y-137946775D01*
X151554350Y-138057125D01*
X151265112Y-138152882D01*
X150964994Y-138234109D01*
X150654098Y-138300862D01*
X150180913Y-138370663D01*
X149693541Y-138409069D01*
X149195003Y-138416315D01*
X148688325Y-138392635D01*
X148176539Y-138338263D01*
X147662657Y-138253420D01*
X147149696Y-138138350D01*
X146640700Y-137993282D01*
X146138677Y-137818448D01*
X145646654Y-137614079D01*
X145167654Y-137380410D01*
X144704697Y-137117677D01*
X144260805Y-136826104D01*
X143839011Y-136505931D01*
X143442331Y-136157388D01*
X143073783Y-135780705D01*
X142888450Y-135566752D01*
X142711947Y-135349026D01*
X142544285Y-135127459D01*
X142385457Y-134902000D01*
X142235466Y-134672579D01*
X142094313Y-134439156D01*
X141961992Y-134201662D01*
X141838514Y-133960043D01*
X141723869Y-133714232D01*
X141618061Y-133464177D01*
X141521089Y-133209822D01*
X141432955Y-132951105D01*
X141353656Y-132687979D01*
X141283196Y-132420367D01*
X141221572Y-132148223D01*
X141168781Y-131871483D01*
X141130436Y-131640805D01*
X141097318Y-131410159D01*
X141069545Y-131179567D01*
X141047243Y-130949061D01*
X141031879Y-130737444D01*
X144597754Y-130737444D01*
X144598969Y-130827208D01*
X144604719Y-130916039D01*
X144614979Y-131003940D01*
X144629710Y-131090911D01*
X144648887Y-131176950D01*
X144672487Y-131262061D01*
X144700472Y-131346244D01*
X144732823Y-131429496D01*
X144769502Y-131511816D01*
X144810480Y-131593204D01*
X144855733Y-131673662D01*
X144905233Y-131753197D01*
X144958944Y-131831792D01*
X145023353Y-131912260D01*
X145090024Y-131989961D01*
X145158911Y-132064934D01*
X145229939Y-132137201D01*
X145303066Y-132206792D01*
X145378225Y-132273744D01*
X145455362Y-132338075D01*
X145534415Y-132399822D01*
X145615334Y-132459007D01*
X145698049Y-132515667D01*
X145782513Y-132569826D01*
X145868662Y-132621513D01*
X145956434Y-132670758D01*
X146045786Y-132717589D01*
X146136641Y-132762042D01*
X146228951Y-132804140D01*
X146397029Y-132886270D01*
X146566210Y-132961689D01*
X146736209Y-133030652D01*
X146906732Y-133093423D01*
X147077485Y-133150265D01*
X147248183Y-133201439D01*
X147418531Y-133247208D01*
X147588240Y-133287831D01*
X147757014Y-133323569D01*
X147924573Y-133354683D01*
X148090615Y-133381445D01*
X148254859Y-133404103D01*
X148576780Y-133438171D01*
X148888004Y-133458982D01*
X149132055Y-133456848D01*
X149359601Y-133449365D01*
X149572727Y-133434912D01*
X149674538Y-133424562D01*
X149773529Y-133411855D01*
X149869963Y-133396590D01*
X149964096Y-133378558D01*
X150056203Y-133357570D01*
X150146529Y-133333409D01*
X150235349Y-133305880D01*
X150322911Y-133274770D01*
X150409496Y-133239885D01*
X150495346Y-133201014D01*
X150572066Y-133162631D01*
X150645884Y-133121838D01*
X150716670Y-133078538D01*
X150784321Y-133032651D01*
X150848716Y-132984093D01*
X150909740Y-132932773D01*
X150967276Y-132878604D01*
X151021206Y-132821503D01*
X151071416Y-132761375D01*
X151117787Y-132698138D01*
X151160208Y-132631702D01*
X151198563Y-132561981D01*
X151232728Y-132488891D01*
X151262586Y-132412341D01*
X151288028Y-132332241D01*
X151308946Y-132248513D01*
X151328257Y-132148522D01*
X151341615Y-132049496D01*
X151349101Y-131951453D01*
X151350803Y-131854427D01*
X151346802Y-131758451D01*
X151337199Y-131663550D01*
X151322064Y-131569750D01*
X151301499Y-131477088D01*
X151275587Y-131385588D01*
X151244413Y-131295280D01*
X151208063Y-131206192D01*
X151166623Y-131118352D01*
X151120190Y-131031791D01*
X151068838Y-130946539D01*
X151012667Y-130862622D01*
X150951756Y-130780075D01*
X150898520Y-130710538D01*
X150843042Y-130643263D01*
X150785415Y-130578195D01*
X150725721Y-130515289D01*
X150664054Y-130454463D01*
X150600500Y-130395681D01*
X150535143Y-130338873D01*
X150468067Y-130283984D01*
X150399364Y-130230952D01*
X150329122Y-130179724D01*
X150257423Y-130130240D01*
X150184368Y-130082444D01*
X150110024Y-130036277D01*
X150034495Y-129991676D01*
X149957851Y-129948585D01*
X149880194Y-129906954D01*
X149674861Y-129810206D01*
X149468130Y-129720880D01*
X149260003Y-129638931D01*
X149050481Y-129564339D01*
X148839561Y-129497073D01*
X148627249Y-129437099D01*
X148413543Y-129384390D01*
X148198443Y-129338925D01*
X147981938Y-129300668D01*
X147764050Y-129269591D01*
X147544757Y-129245659D01*
X147324074Y-129228855D01*
X147101995Y-129219142D01*
X146878521Y-129216491D01*
X146653649Y-129220877D01*
X146427386Y-129232267D01*
X146364137Y-129236905D01*
X146300920Y-129243311D01*
X146237761Y-129251410D01*
X146174687Y-129261103D01*
X146111735Y-129272305D01*
X146048925Y-129284937D01*
X145923849Y-129314124D01*
X145799711Y-129347958D01*
X145676735Y-129385744D01*
X145555151Y-129426789D01*
X145435200Y-129470387D01*
X145354989Y-129505734D01*
X145278152Y-129544766D01*
X145204799Y-129587459D01*
X145135058Y-129633793D01*
X145069037Y-129683727D01*
X145006846Y-129737233D01*
X144948617Y-129794288D01*
X144894454Y-129854862D01*
X144844475Y-129918923D01*
X144798800Y-129986445D01*
X144757544Y-130057397D01*
X144720821Y-130131745D01*
X144688747Y-130209466D01*
X144661442Y-130290536D01*
X144639024Y-130374913D01*
X144621601Y-130462577D01*
X144609043Y-130555130D01*
X144601101Y-130646752D01*
X144597754Y-130737444D01*
X141031879Y-130737444D01*
X141030516Y-130718670D01*
X141019494Y-130488429D01*
X141014282Y-130258364D01*
X141014996Y-130028502D01*
X141021760Y-129798870D01*
X141034686Y-129569496D01*
X141053889Y-129340415D01*
X141079488Y-129111655D01*
X141111599Y-128883241D01*
X141150340Y-128655210D01*
X141195819Y-128427586D01*
X141248162Y-128200392D01*
X141362560Y-127797228D01*
X141497368Y-127414003D01*
X141652524Y-127051129D01*
X141827972Y-126709006D01*
X142023643Y-126388049D01*
X142129052Y-126235631D01*
X142239495Y-126088654D01*
X142354964Y-125947179D01*
X142475456Y-125811246D01*
X142600962Y-125680902D01*
X142731478Y-125556210D01*
X142866991Y-125437218D01*
X143007498Y-125323968D01*
X143152987Y-125216522D01*
X143303458Y-125114918D01*
X143458899Y-125019223D01*
X143619302Y-124929477D01*
X143784663Y-124845735D01*
X143954973Y-124768043D01*
X144130218Y-124696456D01*
X144310405Y-124631024D01*
X144495515Y-124571802D01*
X144685541Y-124518836D01*
X144880485Y-124472172D01*
X145080334Y-124431868D01*
X145494716Y-124370549D01*
X146051623Y-124321766D01*
X146598527Y-124302144D01*
X146878519Y-124307280D01*
G37*
G36*
X141332089Y-101982257D02*
G01*
X141358433Y-101983785D01*
X141387052Y-101986800D01*
X142399094Y-102155471D01*
X144165192Y-102449820D01*
X144185033Y-102453124D01*
X144482673Y-102502731D01*
X144571117Y-102519357D01*
X144658170Y-102539010D01*
X144744287Y-102560985D01*
X144829942Y-102584587D01*
X145001715Y-102633888D01*
X145088764Y-102658187D01*
X145177209Y-102681328D01*
X145177432Y-102689224D01*
X145178060Y-102697956D01*
X145180311Y-102717604D01*
X145187134Y-102763184D01*
X145190774Y-102787718D01*
X145193949Y-102812481D01*
X145195221Y-102824734D01*
X145196200Y-102836781D01*
X145196828Y-102848539D01*
X145197052Y-102859922D01*
X145234702Y-102860568D01*
X145273133Y-102862326D01*
X145351766Y-102867982D01*
X145431804Y-102874570D01*
X145512072Y-102879764D01*
X145551931Y-102881114D01*
X145591408Y-102881238D01*
X145630362Y-102879850D01*
X145668653Y-102876664D01*
X145706126Y-102871385D01*
X145742641Y-102863719D01*
X145778044Y-102853382D01*
X145812208Y-102840073D01*
X145834418Y-102831348D01*
X145856406Y-102823732D01*
X145878181Y-102817175D01*
X145899767Y-102811628D01*
X145931283Y-102805514D01*
X145942365Y-102803364D01*
X145984292Y-102798529D01*
X146025641Y-102796719D01*
X146066498Y-102797523D01*
X146106948Y-102800533D01*
X146147073Y-102805351D01*
X146186972Y-102811564D01*
X146226722Y-102818760D01*
X146306132Y-102834494D01*
X146386008Y-102849302D01*
X146426341Y-102855340D01*
X146467050Y-102859925D01*
X146555455Y-102861704D01*
X146642236Y-102866740D01*
X146727615Y-102874571D01*
X146811838Y-102884726D01*
X146895122Y-102896743D01*
X146977717Y-102910147D01*
X147141736Y-102939299D01*
X147717220Y-103034545D01*
X149483318Y-103326866D01*
X150019079Y-103415544D01*
X150991421Y-103594143D01*
X150535018Y-103594143D01*
X150535015Y-103951327D01*
X151229549Y-103951325D01*
X151229548Y-103653672D01*
X151269257Y-103660366D01*
X151476047Y-103695219D01*
X151713244Y-103733045D01*
X151946717Y-103770872D01*
X152182046Y-103812421D01*
X152340795Y-103911641D01*
X152320949Y-103951327D01*
X152420168Y-103951327D01*
X152550387Y-103945709D01*
X152680582Y-103943574D01*
X152810714Y-103944702D01*
X152940757Y-103948849D01*
X153055191Y-103956087D01*
X153200467Y-103965282D01*
X153459487Y-103991017D01*
X153717571Y-104024192D01*
X153974490Y-104062952D01*
X154483917Y-104149767D01*
X154841124Y-104208834D01*
X156587378Y-104497580D01*
X157004078Y-104566483D01*
X157138021Y-104596559D01*
X157271964Y-104628495D01*
X157338939Y-104645741D01*
X157405912Y-104664153D01*
X157472886Y-104683957D01*
X157539860Y-104705389D01*
X157541778Y-104705562D01*
X157543798Y-104706065D01*
X157545913Y-104706876D01*
X157548120Y-104707992D01*
X157550390Y-104709370D01*
X157552722Y-104711016D01*
X157555107Y-104712896D01*
X157557535Y-104715001D01*
X157559984Y-104717310D01*
X157562460Y-104719798D01*
X157567412Y-104725270D01*
X157572313Y-104731261D01*
X157577067Y-104737639D01*
X157581586Y-104744238D01*
X157585785Y-104750932D01*
X157589572Y-104757562D01*
X157592879Y-104763992D01*
X157595592Y-104770069D01*
X157597645Y-104775660D01*
X157598389Y-104778218D01*
X157598937Y-104780601D01*
X157599275Y-104782795D01*
X157599385Y-104784768D01*
X157599388Y-105082421D01*
X158293920Y-105082424D01*
X158313768Y-104844295D01*
X158373312Y-104855661D01*
X158387289Y-104858327D01*
X158459183Y-104870964D01*
X158599018Y-104893908D01*
X158735130Y-104916851D01*
X158802381Y-104929486D01*
X158869388Y-104943516D01*
X158873328Y-104943742D01*
X158877644Y-104944410D01*
X158882255Y-104945479D01*
X158887064Y-104946928D01*
X158891990Y-104948722D01*
X158896944Y-104950843D01*
X158901840Y-104953248D01*
X158906591Y-104955917D01*
X158911116Y-104958819D01*
X158915311Y-104961927D01*
X158919108Y-104965205D01*
X158920824Y-104966896D01*
X158922410Y-104968633D01*
X158923839Y-104970385D01*
X158925125Y-104972172D01*
X158926238Y-104973974D01*
X158927170Y-104975803D01*
X158927916Y-104977638D01*
X158928466Y-104979484D01*
X158928800Y-104981344D01*
X158928912Y-104983199D01*
X158961672Y-105042736D01*
X158974915Y-105067963D01*
X158986276Y-105091101D01*
X158995894Y-105112846D01*
X159003913Y-105133887D01*
X159010477Y-105154937D01*
X159013258Y-105165678D01*
X159015738Y-105176679D01*
X159019829Y-105199818D01*
X159022905Y-105225049D01*
X159025108Y-105253069D01*
X159026589Y-105284578D01*
X159027477Y-105320277D01*
X159027945Y-105360854D01*
X159028133Y-105459453D01*
X159028553Y-105471049D01*
X159029610Y-105483407D01*
X159032478Y-105509677D01*
X159033708Y-105523252D01*
X159034417Y-105536894D01*
X159034307Y-105550407D01*
X159033859Y-105557066D01*
X159033099Y-105563637D01*
X159031984Y-105570079D01*
X159030495Y-105576391D01*
X159028578Y-105582548D01*
X159026196Y-105588515D01*
X159023326Y-105594276D01*
X159019933Y-105599822D01*
X159015964Y-105605116D01*
X159011394Y-105610142D01*
X159006183Y-105614873D01*
X159000298Y-105619298D01*
X158993698Y-105623386D01*
X158986353Y-105627120D01*
X158978225Y-105630470D01*
X158969269Y-105633427D01*
X158959464Y-105635958D01*
X158948760Y-105638049D01*
X158946951Y-105638217D01*
X158945263Y-105638717D01*
X158943689Y-105639531D01*
X158942206Y-105640647D01*
X158940834Y-105642029D01*
X158939557Y-105643672D01*
X158938378Y-105645551D01*
X158937291Y-105647661D01*
X158936286Y-105649965D01*
X158935365Y-105652461D01*
X158933760Y-105657931D01*
X158932449Y-105663920D01*
X158931398Y-105670292D01*
X158930579Y-105676896D01*
X158929965Y-105683587D01*
X158929521Y-105690221D01*
X158929222Y-105696649D01*
X158928956Y-105708312D01*
X158928914Y-105717417D01*
X158928919Y-106015077D01*
X158928501Y-106029946D01*
X158927446Y-106044766D01*
X158924578Y-106073985D01*
X158923343Y-106088282D01*
X158922636Y-106102282D01*
X158922743Y-106115935D01*
X158923192Y-106122608D01*
X158923953Y-106129177D01*
X158925069Y-106135632D01*
X158926563Y-106141964D01*
X158928476Y-106148155D01*
X158930854Y-106154216D01*
X158933719Y-106160133D01*
X158937120Y-106165893D01*
X158941087Y-106171492D01*
X158945661Y-106176930D01*
X158950868Y-106182187D01*
X158956754Y-106187266D01*
X158963354Y-106192158D01*
X158970695Y-106196852D01*
X158978825Y-106201337D01*
X158987779Y-106205619D01*
X158997587Y-106209680D01*
X159008293Y-106213516D01*
X159013584Y-106216398D01*
X159018313Y-106221251D01*
X159022484Y-106227945D01*
X159026120Y-106236343D01*
X159029234Y-106246328D01*
X159031834Y-106257771D01*
X159035580Y-106284522D01*
X159037454Y-106315566D01*
X159037594Y-106349900D01*
X159036094Y-106386505D01*
X159033096Y-106424355D01*
X159028697Y-106462437D01*
X159023016Y-106499738D01*
X159016174Y-106535238D01*
X159008290Y-106567910D01*
X158999469Y-106596753D01*
X158989842Y-106620736D01*
X158984758Y-106630591D01*
X158979512Y-106638853D01*
X158974118Y-106645390D01*
X158968601Y-106650074D01*
X158964880Y-106654024D01*
X158961195Y-106658406D01*
X158957566Y-106663202D01*
X158954028Y-106668369D01*
X158950599Y-106673888D01*
X158947317Y-106679728D01*
X158944214Y-106685857D01*
X158941309Y-106692242D01*
X158938643Y-106698864D01*
X158936235Y-106705689D01*
X158934117Y-106712697D01*
X158932318Y-106719840D01*
X158930874Y-106727107D01*
X158929803Y-106734452D01*
X158929138Y-106741860D01*
X158928909Y-106749296D01*
X158928907Y-107185859D01*
X158988435Y-107304921D01*
X158988867Y-107327465D01*
X158990028Y-107350383D01*
X158993711Y-107397005D01*
X158997858Y-107444101D01*
X159000843Y-107490956D01*
X159001386Y-107514078D01*
X159001033Y-107536884D01*
X158999579Y-107559279D01*
X158996809Y-107581184D01*
X158992530Y-107602504D01*
X158986534Y-107623158D01*
X158982840Y-107633206D01*
X158978626Y-107643052D01*
X158973885Y-107652691D01*
X158968595Y-107662107D01*
X158961177Y-107685386D01*
X158953946Y-107717186D01*
X158947053Y-107756244D01*
X158940687Y-107801327D01*
X158930222Y-107904535D01*
X158926476Y-107960166D01*
X158923945Y-108016813D01*
X158922816Y-108073231D01*
X158923249Y-108128165D01*
X158925427Y-108180363D01*
X158929532Y-108228586D01*
X158935720Y-108271572D01*
X158944176Y-108308074D01*
X158949310Y-108323509D01*
X158955080Y-108336851D01*
X158961498Y-108347944D01*
X158968593Y-108356636D01*
X158972311Y-108360590D01*
X158976000Y-108364973D01*
X158979626Y-108369763D01*
X158983166Y-108374935D01*
X158986594Y-108380454D01*
X158989871Y-108386291D01*
X158992984Y-108392418D01*
X158995879Y-108398811D01*
X158998549Y-108405429D01*
X159000958Y-108412255D01*
X159003077Y-108419257D01*
X159004873Y-108426403D01*
X159006326Y-108433662D01*
X159007396Y-108441013D01*
X159008060Y-108448419D01*
X159008287Y-108455858D01*
X159006761Y-108468938D01*
X159005865Y-108482116D01*
X159005650Y-108508726D01*
X159007062Y-108535562D01*
X159009526Y-108562516D01*
X159015257Y-108616317D01*
X159017368Y-108642915D01*
X159018205Y-108669178D01*
X159017179Y-108694969D01*
X159015788Y-108707656D01*
X159013708Y-108720183D01*
X159010877Y-108732535D01*
X159007219Y-108744697D01*
X159002653Y-108756659D01*
X158997121Y-108768394D01*
X158990545Y-108779906D01*
X158982839Y-108791166D01*
X158973945Y-108802168D01*
X158963789Y-108812892D01*
X158952299Y-108823320D01*
X158939398Y-108833451D01*
X158925010Y-108843257D01*
X158909068Y-108852732D01*
X158912279Y-108869535D01*
X158914535Y-108886436D01*
X158915928Y-108903436D01*
X158916547Y-108920522D01*
X158915825Y-108954891D01*
X158913098Y-108989468D01*
X158896667Y-109128065D01*
X158894805Y-109162351D01*
X158895306Y-109196320D01*
X158896663Y-109213155D01*
X158898887Y-109229877D01*
X158902060Y-109246473D01*
X158906272Y-109262939D01*
X158911622Y-109279260D01*
X158918200Y-109295426D01*
X158926082Y-109311417D01*
X158935378Y-109327237D01*
X158946172Y-109342867D01*
X158958552Y-109358298D01*
X158972611Y-109373519D01*
X158988439Y-109388516D01*
X158990242Y-109390429D01*
X158991929Y-109392459D01*
X158993511Y-109394606D01*
X158994987Y-109396845D01*
X158996363Y-109399195D01*
X158997641Y-109401639D01*
X158998819Y-109404173D01*
X158999911Y-109406804D01*
X159001836Y-109412324D01*
X159003443Y-109418163D01*
X159004758Y-109424290D01*
X159005809Y-109430679D01*
X159006624Y-109437301D01*
X159007236Y-109444127D01*
X159007680Y-109451133D01*
X159007978Y-109458276D01*
X159008244Y-109472890D01*
X159008287Y-109487734D01*
X159008292Y-109785394D01*
X159008171Y-109789164D01*
X159007834Y-109793054D01*
X159006545Y-109801125D01*
X159004496Y-109809545D01*
X159001775Y-109818256D01*
X158998476Y-109827197D01*
X158994681Y-109836315D01*
X158990479Y-109845550D01*
X158985959Y-109854840D01*
X158948757Y-109924293D01*
X158945262Y-109931513D01*
X158942209Y-109938325D01*
X158939553Y-109944790D01*
X158937280Y-109950963D01*
X158935363Y-109956897D01*
X158933755Y-109962667D01*
X158932443Y-109968312D01*
X158931389Y-109973905D01*
X158930574Y-109979494D01*
X158929955Y-109985139D01*
X158929518Y-109990910D01*
X158929219Y-109996846D01*
X158928951Y-110009484D01*
X158928911Y-110023515D01*
X158931766Y-110049784D01*
X158933136Y-110076457D01*
X158933400Y-110103480D01*
X158932940Y-110130795D01*
X158931351Y-110186061D01*
X158930974Y-110213899D01*
X158931389Y-110241794D01*
X158932968Y-110269688D01*
X158936082Y-110297526D01*
X158941112Y-110325246D01*
X158944472Y-110339047D01*
X158948442Y-110352794D01*
X158953088Y-110366485D01*
X158958450Y-110380113D01*
X158964569Y-110393664D01*
X158971508Y-110407137D01*
X158979298Y-110420516D01*
X158987989Y-110433806D01*
X158997636Y-110446994D01*
X159008284Y-110460074D01*
X159015325Y-110469664D01*
X159021593Y-110479814D01*
X159027106Y-110490499D01*
X159031927Y-110501702D01*
X159036075Y-110513396D01*
X159039593Y-110525567D01*
X159042512Y-110538182D01*
X159044868Y-110551235D01*
X159048059Y-110578530D01*
X159049445Y-110607275D01*
X159049317Y-110637301D01*
X159047971Y-110668432D01*
X159042778Y-110733310D01*
X159036191Y-110800525D01*
X159030530Y-110868651D01*
X159028780Y-110902638D01*
X159028129Y-110936332D01*
X158983492Y-110944638D01*
X158938911Y-110954465D01*
X158850158Y-110977252D01*
X158675901Y-111025623D01*
X158633354Y-111036261D01*
X158591335Y-111045621D01*
X158549894Y-111053350D01*
X158509094Y-111059110D01*
X158468989Y-111062540D01*
X158429639Y-111063295D01*
X158391105Y-111061025D01*
X158353439Y-111055390D01*
X158312517Y-111048620D01*
X158271587Y-111043104D01*
X158230658Y-111038686D01*
X158189730Y-111035234D01*
X158107875Y-111030621D01*
X158026021Y-111028108D01*
X157862310Y-111024692D01*
X157780455Y-111021478D01*
X157698601Y-111015699D01*
X157599381Y-111015706D01*
X157585817Y-111095270D01*
X157579411Y-111128328D01*
X157572716Y-111157398D01*
X157565325Y-111182864D01*
X157561237Y-111194367D01*
X157556825Y-111205104D01*
X157552036Y-111215136D01*
X157546814Y-111224503D01*
X157541115Y-111233244D01*
X157534889Y-111241421D01*
X157528077Y-111249073D01*
X157520637Y-111256252D01*
X157512510Y-111262998D01*
X157503652Y-111269373D01*
X157494004Y-111275403D01*
X157483525Y-111281146D01*
X157472158Y-111286651D01*
X157459856Y-111291960D01*
X157432227Y-111302200D01*
X157400245Y-111312235D01*
X157363495Y-111322441D01*
X157321570Y-111333200D01*
X156587379Y-111520372D01*
X156587374Y-111233984D01*
X155892840Y-111233984D01*
X155892843Y-111611014D01*
X156231821Y-111611016D01*
X155813447Y-111717676D01*
X155061244Y-111905257D01*
X154305320Y-112087263D01*
X152995628Y-112384913D01*
X152995630Y-112126948D01*
X152978775Y-112144979D01*
X152961688Y-112161881D01*
X152944374Y-112177695D01*
X152926842Y-112192452D01*
X152909095Y-112206190D01*
X152891130Y-112218950D01*
X152872952Y-112230764D01*
X152854570Y-112241678D01*
X152835983Y-112251710D01*
X152817196Y-112260908D01*
X152779039Y-112276942D01*
X152740124Y-112290071D01*
X152700480Y-112300583D01*
X152660142Y-112308770D01*
X152619130Y-112314925D01*
X152577485Y-112319339D01*
X152535224Y-112322289D01*
X152492381Y-112324085D01*
X152448989Y-112325002D01*
X152360660Y-112325388D01*
X152360661Y-112623045D01*
X152936124Y-112623043D01*
X152936127Y-112642886D01*
X152174004Y-112832954D01*
X151408155Y-113017439D01*
X149880187Y-113377105D01*
X149842753Y-113384095D01*
X149804882Y-113390243D01*
X149727947Y-113400362D01*
X149649619Y-113408152D01*
X149570134Y-113414315D01*
X149408590Y-113424547D01*
X149327003Y-113430009D01*
X149245186Y-113436638D01*
X148788782Y-113436639D01*
X148788782Y-113654922D01*
X148833740Y-113655231D01*
X148856803Y-113655966D01*
X148868159Y-113656656D01*
X148880560Y-113657402D01*
X148905249Y-113659762D01*
X148918013Y-113661371D01*
X148931099Y-113663293D01*
X148944536Y-113665565D01*
X148958347Y-113668214D01*
X148972569Y-113671273D01*
X148987220Y-113674761D01*
X148967379Y-113694610D01*
X148978322Y-113705988D01*
X148988888Y-113717744D01*
X148999161Y-113729792D01*
X149009231Y-113742041D01*
X149029117Y-113766812D01*
X149049228Y-113791346D01*
X149059592Y-113803303D01*
X149070272Y-113814947D01*
X149081362Y-113826183D01*
X149092950Y-113836922D01*
X149105117Y-113847083D01*
X149117949Y-113856572D01*
X149131534Y-113865309D01*
X149138643Y-113869367D01*
X149145969Y-113873203D01*
X149713995Y-114200622D01*
X150002656Y-114364336D01*
X150296901Y-114528046D01*
X150295035Y-114529849D01*
X150293172Y-114531548D01*
X150289382Y-114534674D01*
X150285475Y-114537502D01*
X150281400Y-114540138D01*
X150277084Y-114542651D01*
X150272482Y-114545137D01*
X150262179Y-114550367D01*
X150250005Y-114556529D01*
X150243076Y-114560181D01*
X150235510Y-114564323D01*
X150227243Y-114569048D01*
X150218224Y-114574440D01*
X150208391Y-114580586D01*
X150197686Y-114587577D01*
X150241441Y-114601570D01*
X150283570Y-114613936D01*
X150324309Y-114624904D01*
X150363879Y-114634709D01*
X150402520Y-114643580D01*
X150440463Y-114651762D01*
X150515185Y-114666957D01*
X150594561Y-114686798D01*
X150996707Y-114921819D01*
X151289094Y-115089220D01*
X151400715Y-115153126D01*
X152221750Y-115619453D01*
X152219888Y-115621252D01*
X152218020Y-115622953D01*
X152216122Y-115624555D01*
X152214194Y-115626083D01*
X152212225Y-115627527D01*
X152210197Y-115628915D01*
X152205938Y-115631545D01*
X152201333Y-115634060D01*
X152196285Y-115636541D01*
X152190719Y-115639085D01*
X152184543Y-115641773D01*
X152170009Y-115647937D01*
X152151986Y-115655729D01*
X152141441Y-115660452D01*
X152129775Y-115665843D01*
X152116889Y-115671993D01*
X152102689Y-115678989D01*
X152160399Y-115693868D01*
X152214617Y-115708751D01*
X152265580Y-115723632D01*
X152313527Y-115738516D01*
X152358679Y-115753399D01*
X152401270Y-115768279D01*
X152441540Y-115783162D01*
X152479718Y-115798044D01*
X152658309Y-115877416D01*
X153055189Y-116105040D01*
X154007682Y-116651324D01*
X154005824Y-116653129D01*
X154003967Y-116654817D01*
X154000277Y-116657879D01*
X153996652Y-116660526D01*
X153993106Y-116662798D01*
X153989683Y-116664722D01*
X153986404Y-116666326D01*
X153983295Y-116667642D01*
X153980396Y-116668690D01*
X153977723Y-116669507D01*
X153975318Y-116670123D01*
X153973199Y-116670566D01*
X153971405Y-116670858D01*
X153968885Y-116671130D01*
X153967994Y-116671171D01*
X153990318Y-116693575D01*
X154012641Y-116716442D01*
X154034958Y-116740234D01*
X154046126Y-116752628D01*
X154057288Y-116765428D01*
X154068451Y-116778692D01*
X154079612Y-116792484D01*
X154090774Y-116806854D01*
X154101941Y-116821862D01*
X154113103Y-116837569D01*
X154124265Y-116854029D01*
X154135424Y-116871302D01*
X154146582Y-116889452D01*
X154166931Y-116884384D01*
X154187060Y-116880337D01*
X154206978Y-116877270D01*
X154226695Y-116875148D01*
X154246222Y-116873942D01*
X154265574Y-116873626D01*
X154284754Y-116874154D01*
X154303783Y-116875497D01*
X154341413Y-116880512D01*
X154378546Y-116888407D01*
X154415269Y-116898913D01*
X154451678Y-116911776D01*
X154487856Y-116926729D01*
X154523886Y-116943521D01*
X154559859Y-116961872D01*
X154595858Y-116981539D01*
X154668297Y-117023745D01*
X154741897Y-117068046D01*
X154841128Y-117126032D01*
X154855181Y-117134244D01*
X154971026Y-117199510D01*
X155205744Y-117330972D01*
X155322286Y-117399030D01*
X155436736Y-117469881D01*
X155492818Y-117506643D01*
X155547932Y-117544453D01*
X155601947Y-117583422D01*
X155654713Y-117623669D01*
X155693391Y-117654482D01*
X155713396Y-117670805D01*
X155733464Y-117687851D01*
X155753301Y-117705712D01*
X155772612Y-117724476D01*
X155791112Y-117744229D01*
X155808501Y-117765059D01*
X155816690Y-117775898D01*
X155824497Y-117787043D01*
X155831884Y-117798505D01*
X155838810Y-117810287D01*
X155845242Y-117822404D01*
X155851148Y-117834862D01*
X155856478Y-117847684D01*
X155861207Y-117860862D01*
X155865302Y-117874426D01*
X155868724Y-117888375D01*
X155871425Y-117902728D01*
X155873380Y-117917490D01*
X155874555Y-117932669D01*
X155874903Y-117948290D01*
X155874396Y-117964346D01*
X155872996Y-117980858D01*
X155874799Y-117980918D01*
X155876490Y-117981078D01*
X155878070Y-117981352D01*
X155879549Y-117981710D01*
X155880919Y-117982163D01*
X155882196Y-117982691D01*
X155883379Y-117983287D01*
X155884464Y-117983964D01*
X155885472Y-117984684D01*
X155886387Y-117985459D01*
X155887229Y-117986280D01*
X155887995Y-117987135D01*
X155888686Y-117988024D01*
X155889309Y-117988932D01*
X155889859Y-117989852D01*
X155890360Y-117990778D01*
X155890795Y-117991706D01*
X155891172Y-117992633D01*
X155891790Y-117994425D01*
X155892229Y-117996100D01*
X155892532Y-117997601D01*
X155892709Y-117998871D01*
X155892800Y-117999847D01*
X155892836Y-118000701D01*
X155927951Y-117995867D01*
X155962621Y-117992495D01*
X156030660Y-117989931D01*
X156097071Y-117992592D01*
X156161968Y-118000080D01*
X156225473Y-118011987D01*
X156287698Y-118027906D01*
X156348759Y-118047435D01*
X156408775Y-118070155D01*
X156467864Y-118095671D01*
X156526129Y-118123564D01*
X156583706Y-118153435D01*
X156587374Y-118155460D01*
X156640701Y-118184882D01*
X156753407Y-118250843D01*
X156865176Y-118318208D01*
X157579557Y-118734926D01*
X157577694Y-118736726D01*
X157575829Y-118738419D01*
X157573955Y-118740016D01*
X157572077Y-118741513D01*
X157568262Y-118744253D01*
X157564366Y-118746705D01*
X157560343Y-118748923D01*
X157556185Y-118750974D01*
X157551843Y-118752899D01*
X157547306Y-118754768D01*
X157526534Y-118762828D01*
X157520541Y-118765283D01*
X157514172Y-118768024D01*
X157507400Y-118771117D01*
X157500180Y-118774610D01*
X157519787Y-118778674D01*
X157537721Y-118783415D01*
X157554056Y-118788796D01*
X157568862Y-118794804D01*
X157582215Y-118801402D01*
X157594189Y-118808575D01*
X157604856Y-118816292D01*
X157614283Y-118824528D01*
X157622553Y-118833259D01*
X157629730Y-118842459D01*
X157635889Y-118852107D01*
X157641100Y-118862163D01*
X157645449Y-118872620D01*
X157648994Y-118883436D01*
X157651811Y-118894594D01*
X157653975Y-118906074D01*
X157658929Y-119111958D01*
X157817682Y-119111954D01*
X157876528Y-119105899D01*
X157934064Y-119102614D01*
X157990386Y-119102062D01*
X158045573Y-119104204D01*
X158099713Y-119109021D01*
X158152888Y-119116490D01*
X158205196Y-119126570D01*
X158256722Y-119139235D01*
X158307547Y-119154463D01*
X158357758Y-119172222D01*
X158373315Y-119178558D01*
X158407457Y-119192476D01*
X158456712Y-119215205D01*
X158505616Y-119240374D01*
X158554260Y-119267951D01*
X158602730Y-119297917D01*
X158651119Y-119330241D01*
X158695806Y-119359149D01*
X158740726Y-119386668D01*
X158786111Y-119413257D01*
X158832196Y-119439372D01*
X158927378Y-119492082D01*
X159028150Y-119548519D01*
X159046030Y-119559684D01*
X159062374Y-119570886D01*
X159069922Y-119576505D01*
X159077030Y-119582136D01*
X159083677Y-119587795D01*
X159089852Y-119593479D01*
X159095529Y-119599190D01*
X159100695Y-119604934D01*
X159105334Y-119610713D01*
X159109424Y-119616539D01*
X159112947Y-119622404D01*
X159115881Y-119628314D01*
X159118217Y-119634279D01*
X159119923Y-119640296D01*
X159120998Y-119646371D01*
X159121411Y-119652513D01*
X159121153Y-119658716D01*
X159120197Y-119664985D01*
X159118528Y-119671331D01*
X159116129Y-119677747D01*
X159112986Y-119684253D01*
X159109071Y-119690836D01*
X159104379Y-119697506D01*
X159098875Y-119704267D01*
X159092556Y-119711129D01*
X159085395Y-119718082D01*
X159077375Y-119725140D01*
X159068475Y-119732301D01*
X159058693Y-119739573D01*
X159047989Y-119746955D01*
X159044277Y-119750901D01*
X159040590Y-119755251D01*
X159036961Y-119759953D01*
X159033420Y-119764944D01*
X159029997Y-119770160D01*
X159026714Y-119775561D01*
X159023605Y-119781073D01*
X159020708Y-119786644D01*
X159018038Y-119792218D01*
X159015625Y-119797733D01*
X159013511Y-119803125D01*
X159011714Y-119808345D01*
X159010265Y-119813337D01*
X159009198Y-119818039D01*
X159008531Y-119822384D01*
X159008308Y-119826333D01*
X159008302Y-120123984D01*
X159008530Y-120131207D01*
X159009193Y-120138018D01*
X159010267Y-120144479D01*
X159011715Y-120150649D01*
X159013510Y-120156589D01*
X159015629Y-120162357D01*
X159018040Y-120168007D01*
X159020705Y-120173592D01*
X159023611Y-120179186D01*
X159026711Y-120184836D01*
X159033417Y-120196535D01*
X159040590Y-120209176D01*
X159044274Y-120215981D01*
X159047992Y-120223202D01*
X159051932Y-120230654D01*
X159056251Y-120238129D01*
X159065667Y-120253282D01*
X159075548Y-120268898D01*
X159080446Y-120276954D01*
X159085197Y-120285216D01*
X159089714Y-120293713D01*
X159093912Y-120302462D01*
X159097710Y-120311512D01*
X159101008Y-120320873D01*
X159102445Y-120325683D01*
X159103724Y-120330587D01*
X159104840Y-120335585D01*
X159105775Y-120340677D01*
X159106522Y-120345873D01*
X159107068Y-120351175D01*
X159107402Y-120356589D01*
X159107518Y-120362113D01*
X159107737Y-120377219D01*
X159108332Y-120392729D01*
X159110311Y-120424740D01*
X159114959Y-120491094D01*
X159116243Y-120524503D01*
X159116313Y-120541067D01*
X159115892Y-120557450D01*
X159114891Y-120573602D01*
X159113220Y-120589465D01*
X159110791Y-120604973D01*
X159107520Y-120620081D01*
X159107400Y-120623856D01*
X159107073Y-120627747D01*
X159105776Y-120635817D01*
X159103722Y-120644239D01*
X159101007Y-120652941D01*
X159097708Y-120661891D01*
X159093913Y-120671005D01*
X159089712Y-120680239D01*
X159085197Y-120689534D01*
X159047993Y-120758981D01*
X159044499Y-120766201D01*
X159041443Y-120773014D01*
X159038792Y-120779478D01*
X159036521Y-120785649D01*
X159034597Y-120791591D01*
X159032990Y-120797355D01*
X159031680Y-120803005D01*
X159030630Y-120808598D01*
X159029807Y-120814182D01*
X159029199Y-120819833D01*
X159028755Y-120825598D01*
X159028459Y-120831537D01*
X159028187Y-120844177D01*
X159028146Y-120858202D01*
X159028150Y-121195550D01*
X159027730Y-121206702D01*
X159026674Y-121217833D01*
X159023806Y-121239887D01*
X159022575Y-121250747D01*
X159021867Y-121261476D01*
X159021805Y-121266770D01*
X159021974Y-121272018D01*
X159022426Y-121277221D01*
X159023187Y-121282363D01*
X159024296Y-121287450D01*
X159025791Y-121292473D01*
X159027710Y-121297431D01*
X159030084Y-121302325D01*
X159032954Y-121307140D01*
X159036352Y-121311885D01*
X159040320Y-121316546D01*
X159044888Y-121321119D01*
X159050093Y-121325614D01*
X159055983Y-121330013D01*
X159062579Y-121334319D01*
X159069922Y-121338525D01*
X159078054Y-121342626D01*
X159087010Y-121346632D01*
X159096816Y-121350520D01*
X159107517Y-121354301D01*
X159112699Y-121357180D01*
X159117110Y-121362041D01*
X159120780Y-121368742D01*
X159123756Y-121377160D01*
X159126084Y-121387186D01*
X159127790Y-121398685D01*
X159129534Y-121425613D01*
X159129297Y-121456958D01*
X159127401Y-121491733D01*
X159124172Y-121528950D01*
X159119922Y-121567621D01*
X159109653Y-121645364D01*
X159099146Y-121717065D01*
X159090969Y-121774818D01*
X159088551Y-121795989D01*
X159087672Y-121810708D01*
X159081164Y-121892559D01*
X159076510Y-121974412D01*
X159073719Y-122056270D01*
X159072791Y-122138130D01*
X159073722Y-122219987D01*
X159076513Y-122301836D01*
X159081161Y-122383693D01*
X159087674Y-122465549D01*
X159088548Y-122479150D01*
X159090969Y-122497174D01*
X159099145Y-122543681D01*
X159109651Y-122599495D01*
X159119921Y-122659029D01*
X159124170Y-122688443D01*
X159127400Y-122716694D01*
X159129298Y-122743089D01*
X159129531Y-122766926D01*
X159127794Y-122787506D01*
X159126080Y-122796356D01*
X159123758Y-122804133D01*
X159120779Y-122810748D01*
X159117107Y-122816107D01*
X159112700Y-122820139D01*
X159107519Y-122822738D01*
X159098562Y-122826512D01*
X159090277Y-122830402D01*
X159082638Y-122834402D01*
X159075626Y-122838510D01*
X159069202Y-122842714D01*
X159063352Y-122847022D01*
X159058045Y-122851424D01*
X159053259Y-122855910D01*
X159048970Y-122860491D01*
X159045145Y-122865154D01*
X159041768Y-122869892D01*
X159038804Y-122874712D01*
X159036234Y-122879602D01*
X159034035Y-122884558D01*
X159032169Y-122889583D01*
X159030627Y-122894673D01*
X159029375Y-122899811D01*
X159028386Y-122905012D01*
X159027635Y-122910269D01*
X159027098Y-122915564D01*
X159026571Y-122926281D01*
X159026595Y-122937151D01*
X159027490Y-122959207D01*
X159027949Y-122970330D01*
X159028150Y-122981485D01*
X159028147Y-123398206D01*
X159028261Y-123401930D01*
X159028599Y-123405651D01*
X159029144Y-123409372D01*
X159029893Y-123413090D01*
X159030827Y-123416809D01*
X159031937Y-123420533D01*
X159034659Y-123427976D01*
X159037958Y-123435413D01*
X159041753Y-123442857D01*
X159045956Y-123450298D01*
X159050475Y-123457740D01*
X159060123Y-123472620D01*
X159070005Y-123487503D01*
X159074811Y-123494949D01*
X159079421Y-123502391D01*
X159083736Y-123509826D01*
X159087674Y-123517269D01*
X159091384Y-123524490D01*
X159095042Y-123531301D01*
X159101940Y-123543936D01*
X159105067Y-123549877D01*
X159107910Y-123555639D01*
X159110397Y-123561286D01*
X159112487Y-123566880D01*
X159113356Y-123569669D01*
X159114105Y-123572472D01*
X159114714Y-123575284D01*
X159115195Y-123578121D01*
X159115528Y-123580984D01*
X159115709Y-123583884D01*
X159115726Y-123586831D01*
X159115578Y-123589827D01*
X159115261Y-123592878D01*
X159114758Y-123595995D01*
X159114067Y-123599185D01*
X159113176Y-123602463D01*
X159112084Y-123605821D01*
X159110786Y-123609270D01*
X159109262Y-123612824D01*
X159107523Y-123616493D01*
X159105994Y-123629512D01*
X159105100Y-123642531D01*
X159104923Y-123668538D01*
X159106426Y-123694493D01*
X159109067Y-123720361D01*
X159115543Y-123771713D01*
X159118269Y-123797141D01*
X159119919Y-123822367D01*
X159119947Y-123847364D01*
X159119173Y-123859761D01*
X159117795Y-123872092D01*
X159115725Y-123884351D01*
X159112906Y-123896532D01*
X159109264Y-123908639D01*
X159104728Y-123920655D01*
X159099240Y-123932586D01*
X159092724Y-123944431D01*
X159085103Y-123956174D01*
X159076321Y-123967827D01*
X159066303Y-123979369D01*
X159054985Y-123990810D01*
X159042282Y-124002143D01*
X159028148Y-124013365D01*
X159024598Y-124017372D01*
X159021390Y-124021937D01*
X159018506Y-124027030D01*
X159015939Y-124032627D01*
X159013673Y-124038704D01*
X159011707Y-124045238D01*
X159008615Y-124059564D01*
X159006565Y-124075400D01*
X159005476Y-124092547D01*
X159005259Y-124110798D01*
X159005821Y-124129949D01*
X159007089Y-124149798D01*
X159008965Y-124170140D01*
X159011364Y-124190771D01*
X159014197Y-124211495D01*
X159020821Y-124252379D01*
X159028147Y-124291180D01*
X159027732Y-124309555D01*
X159026676Y-124327489D01*
X159023811Y-124362180D01*
X159022574Y-124378987D01*
X159021868Y-124395470D01*
X159021973Y-124411668D01*
X159023188Y-124427603D01*
X159024298Y-124435479D01*
X159025794Y-124443306D01*
X159027712Y-124451075D01*
X159030084Y-124458799D01*
X159032955Y-124466486D01*
X159036351Y-124474124D01*
X159040318Y-124481733D01*
X159044888Y-124489308D01*
X159050098Y-124496848D01*
X159055979Y-124504368D01*
X159062581Y-124511864D01*
X159069931Y-124519343D01*
X159078054Y-124526802D01*
X159087004Y-124534256D01*
X159096814Y-124541708D01*
X159107518Y-124549144D01*
X159111067Y-124553155D01*
X159114282Y-124557716D01*
X159117179Y-124562808D01*
X159119769Y-124568406D01*
X159122066Y-124574487D01*
X159124088Y-124581017D01*
X159127368Y-124595344D01*
X159129712Y-124611185D01*
X159131242Y-124628325D01*
X159132076Y-124646574D01*
X159132327Y-124665728D01*
X159127365Y-124826955D01*
X159125844Y-124834508D01*
X159124955Y-124842274D01*
X159124628Y-124850229D01*
X159124813Y-124858354D01*
X159126408Y-124875004D01*
X159129223Y-124892073D01*
X159136429Y-124926719D01*
X159139779Y-124943954D01*
X159142248Y-124960904D01*
X159142989Y-124969215D01*
X159143323Y-124977384D01*
X159143174Y-124985395D01*
X159142478Y-124993225D01*
X159141173Y-125000850D01*
X159139195Y-125008254D01*
X159136472Y-125015411D01*
X159132945Y-125022290D01*
X159128545Y-125028890D01*
X159123207Y-125035172D01*
X159116867Y-125041118D01*
X159109456Y-125046708D01*
X159100917Y-125051926D01*
X159091180Y-125056739D01*
X159080173Y-125061132D01*
X159067838Y-125065083D01*
X159066034Y-125065257D01*
X159064338Y-125065757D01*
X159062762Y-125066571D01*
X159061286Y-125067680D01*
X159059910Y-125069062D01*
X159058636Y-125070706D01*
X159057456Y-125072592D01*
X159056365Y-125074696D01*
X159055361Y-125077001D01*
X159054435Y-125079495D01*
X159052834Y-125084966D01*
X159051523Y-125090958D01*
X159050471Y-125097330D01*
X159049651Y-125103933D01*
X159049034Y-125110620D01*
X159048596Y-125117257D01*
X159048302Y-125123682D01*
X159048032Y-125135350D01*
X159047992Y-125144457D01*
X159047993Y-125422268D01*
X159048442Y-125433433D01*
X159049739Y-125444634D01*
X159051789Y-125455886D01*
X159054504Y-125467228D01*
X159057805Y-125478684D01*
X159061596Y-125490286D01*
X159070313Y-125514048D01*
X159089848Y-125564583D01*
X159094658Y-125578021D01*
X159099264Y-125591833D01*
X159103582Y-125606049D01*
X159107517Y-125620706D01*
X159024733Y-125606678D01*
X158940085Y-125594042D01*
X158765213Y-125571096D01*
X158582904Y-125548150D01*
X158488954Y-125535516D01*
X158393142Y-125521486D01*
X158393143Y-125065075D01*
X157698611Y-125065078D01*
X157698617Y-125402419D01*
X157422357Y-125357778D01*
X157155391Y-125313126D01*
X156627055Y-125223831D01*
X156626833Y-125212886D01*
X156626197Y-125202321D01*
X156625217Y-125192046D01*
X156623950Y-125181970D01*
X156620773Y-125162089D01*
X156617131Y-125141975D01*
X156613487Y-125120927D01*
X156611804Y-125109838D01*
X156610308Y-125098252D01*
X156609037Y-125086090D01*
X156608060Y-125073257D01*
X156607427Y-125059665D01*
X156607210Y-125045239D01*
X156428302Y-125059813D01*
X156247541Y-125072524D01*
X156155880Y-125077602D01*
X156063054Y-125081511D01*
X155968831Y-125084032D01*
X155872988Y-125084923D01*
X155843221Y-125084475D01*
X155813455Y-125083180D01*
X155783691Y-125081132D01*
X155753925Y-125078413D01*
X155694393Y-125071319D01*
X155634859Y-125062600D01*
X155515800Y-125043070D01*
X155456270Y-125033643D01*
X155396736Y-125025392D01*
X153194082Y-124668206D01*
X153027268Y-124638129D01*
X152856737Y-124606191D01*
X152771238Y-124588946D01*
X152686207Y-124570532D01*
X152602104Y-124550728D01*
X152519392Y-124529299D01*
X153055176Y-124529298D01*
X153055180Y-124013359D01*
X154106910Y-124013359D01*
X154106912Y-124549140D01*
X154841124Y-124549139D01*
X154841126Y-124013363D01*
X154106910Y-124013359D01*
X153055180Y-124013359D01*
X153055180Y-124013357D01*
X155892842Y-124013357D01*
X155892844Y-124549136D01*
X156587373Y-124549139D01*
X156587373Y-124549138D01*
X157678777Y-124549138D01*
X158373309Y-124549138D01*
X158373312Y-124013363D01*
X157678778Y-124013362D01*
X157678777Y-124549138D01*
X156587373Y-124549138D01*
X156587374Y-124013362D01*
X155892842Y-124013357D01*
X153055180Y-124013357D01*
X153055180Y-123993517D01*
X152360644Y-123993514D01*
X152360651Y-124549142D01*
X152005938Y-124489614D01*
X151833239Y-124459847D01*
X151666119Y-124430081D01*
X151646270Y-124430077D01*
X151623516Y-124426787D01*
X151600032Y-124424229D01*
X151551699Y-124420465D01*
X151502902Y-124417171D01*
X151455271Y-124412718D01*
X151432401Y-124409540D01*
X151410431Y-124405469D01*
X151389566Y-124400290D01*
X151370005Y-124393803D01*
X151351959Y-124385805D01*
X151343565Y-124381175D01*
X151335632Y-124376091D01*
X151328168Y-124370531D01*
X151321213Y-124364456D01*
X151314791Y-124357858D01*
X151308922Y-124350704D01*
X151303628Y-124344835D01*
X151298887Y-124338412D01*
X151294668Y-124331443D01*
X151290943Y-124323963D01*
X151287681Y-124315987D01*
X151284855Y-124307543D01*
X151282437Y-124298642D01*
X151280401Y-124289313D01*
X151277339Y-124269463D01*
X151275439Y-124248151D01*
X151274465Y-124225565D01*
X151274200Y-124201875D01*
X151275436Y-124099558D01*
X151275168Y-124072961D01*
X151274193Y-124046304D01*
X151272298Y-124019766D01*
X151269236Y-123993519D01*
X150574700Y-123993517D01*
X150554859Y-124231640D01*
X150083571Y-124182030D01*
X149969234Y-124164979D01*
X149912909Y-124154477D01*
X149857226Y-124142344D01*
X149802235Y-124128354D01*
X149748009Y-124112274D01*
X149694586Y-124093864D01*
X149642039Y-124072893D01*
X149578793Y-124049089D01*
X149515536Y-124029447D01*
X149452289Y-124013466D01*
X149389037Y-124000650D01*
X149325777Y-123990505D01*
X149262535Y-123982551D01*
X149136026Y-123971197D01*
X148883025Y-123952899D01*
X148819771Y-123946361D01*
X148756513Y-123938049D01*
X148693263Y-123927480D01*
X148630010Y-123914136D01*
X148254842Y-123843137D01*
X147875950Y-123777715D01*
X147121888Y-123656173D01*
X146328157Y-123537113D01*
X150574725Y-123537113D01*
X150748357Y-123537112D01*
X152360661Y-123537112D01*
X152823680Y-123537108D01*
X154106905Y-123537108D01*
X154821283Y-123537111D01*
X154821283Y-123537109D01*
X155892845Y-123537109D01*
X156587376Y-123537105D01*
X156587377Y-122882263D01*
X155892846Y-122882265D01*
X155892845Y-123537109D01*
X154821283Y-123537109D01*
X154821285Y-122882264D01*
X154583160Y-122882262D01*
X157678780Y-122882262D01*
X157678786Y-123537110D01*
X158373312Y-123537108D01*
X158373312Y-122882260D01*
X157678780Y-122882262D01*
X154583160Y-122882262D01*
X154106909Y-122882258D01*
X154106905Y-123537108D01*
X152823680Y-123537108D01*
X153055190Y-123537106D01*
X153055186Y-122882263D01*
X152360662Y-122882262D01*
X152360661Y-123537112D01*
X150748357Y-123537112D01*
X151269253Y-123537109D01*
X151269257Y-122882260D01*
X150574727Y-122882263D01*
X150574725Y-123537113D01*
X146328157Y-123537113D01*
X146328137Y-123537110D01*
X147022687Y-123537110D01*
X147717223Y-123537111D01*
X147717223Y-123537108D01*
X148808630Y-123537108D01*
X149483315Y-123537109D01*
X149483317Y-122882262D01*
X148808634Y-122882259D01*
X148808630Y-123537108D01*
X147717223Y-123537108D01*
X147717223Y-122882263D01*
X147022689Y-122882266D01*
X147022687Y-123537110D01*
X146328137Y-123537110D01*
X145931258Y-123477578D01*
X145931256Y-122842578D01*
X145216886Y-122842582D01*
X145216883Y-123338672D01*
X144693506Y-123249373D01*
X144185008Y-123160078D01*
X144185008Y-122822736D01*
X143450789Y-122822738D01*
X143450478Y-122870487D01*
X143449741Y-122895991D01*
X143448302Y-122921958D01*
X143445938Y-122947922D01*
X143444337Y-122960760D01*
X143442418Y-122973427D01*
X143440141Y-122985854D01*
X143437496Y-122997998D01*
X143434437Y-123009786D01*
X143430942Y-123021175D01*
X141208442Y-122644145D01*
X141208441Y-121870233D01*
X141704559Y-121870233D01*
X141704566Y-122505233D01*
X142399094Y-122505236D01*
X142399094Y-122505233D01*
X143450817Y-122505233D01*
X144165189Y-122505236D01*
X144165192Y-121870234D01*
X145236750Y-121870234D01*
X145236751Y-122505233D01*
X145931285Y-122505238D01*
X145931285Y-122505237D01*
X147022690Y-122505237D01*
X147717218Y-122505233D01*
X147717220Y-121870237D01*
X147196323Y-121870234D01*
X148808630Y-121870234D01*
X148808632Y-122505239D01*
X149483316Y-122505231D01*
X149503160Y-122505232D01*
X149503162Y-121870234D01*
X148808630Y-121870234D01*
X147196323Y-121870234D01*
X147022691Y-121870233D01*
X147022690Y-122505237D01*
X145931285Y-122505237D01*
X145931285Y-121870232D01*
X145236750Y-121870234D01*
X144165192Y-121870234D01*
X144165192Y-121870233D01*
X143450818Y-121870233D01*
X143450817Y-122505233D01*
X142399094Y-122505233D01*
X142399093Y-121870232D01*
X141704559Y-121870233D01*
X141208441Y-121870233D01*
X141208441Y-121850388D01*
X150574724Y-121850388D01*
X150574725Y-122485389D01*
X151269258Y-122485386D01*
X151269254Y-121870234D01*
X152360658Y-121870234D01*
X152360659Y-122505232D01*
X153055190Y-122505235D01*
X153055190Y-122505232D01*
X154106904Y-122505232D01*
X154821282Y-122505234D01*
X154841124Y-122505235D01*
X154841125Y-121870232D01*
X154106908Y-121870232D01*
X154106904Y-122505232D01*
X153055190Y-122505232D01*
X153055191Y-121870231D01*
X155892842Y-121870231D01*
X155892848Y-122505231D01*
X156587372Y-122505234D01*
X156587373Y-121870237D01*
X157678778Y-121870237D01*
X157678778Y-122505236D01*
X158373310Y-122505231D01*
X158373310Y-121870236D01*
X157678778Y-121870237D01*
X156587373Y-121870237D01*
X156587373Y-121870232D01*
X155892842Y-121870231D01*
X153055191Y-121870231D01*
X153055191Y-121870229D01*
X152360658Y-121870234D01*
X151269254Y-121870234D01*
X151269254Y-121850389D01*
X150574724Y-121850388D01*
X141208441Y-121850388D01*
X141208440Y-121393982D01*
X143450813Y-121393982D01*
X144165190Y-121393982D01*
X144165190Y-120838358D01*
X143450816Y-120838354D01*
X143450813Y-121393982D01*
X141208440Y-121393982D01*
X141208440Y-121393979D01*
X141704562Y-121393979D01*
X142399094Y-121393979D01*
X142399090Y-120818513D01*
X145236748Y-120818513D01*
X154126752Y-120818513D01*
X154126752Y-121393984D01*
X154841125Y-121393979D01*
X155892842Y-121393979D01*
X156587378Y-121393979D01*
X156587376Y-120818521D01*
X157678779Y-120818521D01*
X157678779Y-121393980D01*
X158373313Y-121393981D01*
X158373309Y-120818513D01*
X157678779Y-120818521D01*
X156587376Y-120818521D01*
X156587376Y-120818515D01*
X155892845Y-120818517D01*
X155892842Y-121393979D01*
X154841125Y-121393979D01*
X154841122Y-120818513D01*
X154126752Y-120818513D01*
X145236748Y-120818513D01*
X145236753Y-121393981D01*
X145931283Y-121393981D01*
X145931284Y-120818517D01*
X147022686Y-120818517D01*
X147022686Y-121393984D01*
X147717220Y-121393985D01*
X147717220Y-121393982D01*
X148788779Y-121393982D01*
X149483319Y-121393979D01*
X149483321Y-120818516D01*
X148788779Y-120818515D01*
X148788779Y-121393982D01*
X147717220Y-121393982D01*
X147717219Y-120818516D01*
X147022686Y-120818517D01*
X145931284Y-120818517D01*
X145410382Y-120818514D01*
X150574722Y-120818514D01*
X150574725Y-121393977D01*
X151269254Y-121393983D01*
X151269254Y-121393981D01*
X152360659Y-121393981D01*
X153055186Y-121393982D01*
X153055192Y-120818519D01*
X152360661Y-120818514D01*
X152360659Y-121393981D01*
X151269254Y-121393981D01*
X151269255Y-120818520D01*
X150574722Y-120818514D01*
X145410382Y-120818514D01*
X145236748Y-120818513D01*
X142399090Y-120818513D01*
X141704567Y-120818512D01*
X141704562Y-121393979D01*
X141208440Y-121393979D01*
X141208439Y-119806485D01*
X141704563Y-119806485D01*
X141704563Y-120282731D01*
X142399090Y-120282730D01*
X142399090Y-120282728D01*
X143450813Y-120282728D01*
X144165192Y-120282731D01*
X144185027Y-120282732D01*
X144185031Y-119806486D01*
X145236753Y-119806486D01*
X145236753Y-120282732D01*
X145931284Y-120282735D01*
X145931282Y-119806482D01*
X147022685Y-119806482D01*
X147022691Y-120282734D01*
X147717219Y-120282734D01*
X147717222Y-119806489D01*
X148788780Y-119806489D01*
X148788782Y-120282732D01*
X149483319Y-120282731D01*
X150574719Y-120282731D01*
X151269256Y-120282732D01*
X151269259Y-119806484D01*
X150574726Y-119806485D01*
X150574719Y-120282731D01*
X149483319Y-120282731D01*
X149483318Y-119806487D01*
X148788780Y-119806489D01*
X147717222Y-119806489D01*
X147717222Y-119806484D01*
X147022685Y-119806482D01*
X152360657Y-119806482D01*
X152360661Y-120282731D01*
X153055190Y-120282731D01*
X153055191Y-119806488D01*
X154126754Y-119806488D01*
X154126756Y-120282735D01*
X154841126Y-120282733D01*
X154841126Y-119806486D01*
X154126754Y-119806488D01*
X153055191Y-119806488D01*
X153055191Y-119806482D01*
X155892843Y-119806482D01*
X155892848Y-120282734D01*
X156587375Y-120282733D01*
X156587375Y-120282730D01*
X157678781Y-120282730D01*
X158373312Y-120282733D01*
X158373311Y-119806484D01*
X157678782Y-119806484D01*
X157678781Y-120282730D01*
X156587375Y-120282730D01*
X156587377Y-119806485D01*
X155892843Y-119806482D01*
X153055191Y-119806482D01*
X153055191Y-119806480D01*
X152360657Y-119806482D01*
X147022685Y-119806482D01*
X145931282Y-119806482D01*
X145236753Y-119806486D01*
X144185031Y-119806486D01*
X144185031Y-119806483D01*
X143450814Y-119806484D01*
X143450813Y-120282728D01*
X142399090Y-120282728D01*
X142399088Y-119806482D01*
X141704563Y-119806485D01*
X141208439Y-119806485D01*
X141208438Y-119131795D01*
X141704560Y-119131795D01*
X142399094Y-119131792D01*
X142399090Y-118794454D01*
X143450819Y-118794454D01*
X143450821Y-119151637D01*
X144185028Y-119151639D01*
X144185034Y-119151643D01*
X144185034Y-119151640D01*
X145236748Y-119151640D01*
X145931285Y-119151638D01*
X145931280Y-118794451D01*
X145236753Y-118794451D01*
X145236748Y-119151640D01*
X144185034Y-119151640D01*
X144185036Y-118794453D01*
X143450819Y-118794454D01*
X142399090Y-118794454D01*
X142399090Y-118774610D01*
X141704564Y-118774607D01*
X141704560Y-119131795D01*
X141208438Y-119131795D01*
X141208436Y-117921332D01*
X142399068Y-118080078D01*
X142399090Y-118080087D01*
X143080573Y-118187675D01*
X143758359Y-118300842D01*
X144185033Y-118374813D01*
X145117658Y-118536491D01*
X145931283Y-118677989D01*
X146030473Y-118695238D01*
X146253412Y-118740196D01*
X146474480Y-118787020D01*
X146583736Y-118811705D01*
X146691830Y-118837555D01*
X146798523Y-118864805D01*
X146903598Y-118893679D01*
X146909060Y-118895709D01*
X146914306Y-118898078D01*
X146919343Y-118900764D01*
X146924176Y-118903753D01*
X146928818Y-118907037D01*
X146933292Y-118910593D01*
X146937593Y-118914415D01*
X146941731Y-118918481D01*
X146945729Y-118922778D01*
X146949596Y-118927297D01*
X146953339Y-118932024D01*
X146956963Y-118936930D01*
X146963932Y-118947260D01*
X146970567Y-118958174D01*
X146976980Y-118969546D01*
X146983246Y-118981272D01*
X146995684Y-119005300D01*
X147002041Y-119017376D01*
X147008591Y-119029332D01*
X147015432Y-119041052D01*
X147022657Y-119052429D01*
X146982973Y-119092113D01*
X147065644Y-119093701D01*
X147149474Y-119097388D01*
X147233769Y-119101531D01*
X147317835Y-119104516D01*
X147400968Y-119104705D01*
X147441970Y-119103253D01*
X147482476Y-119100485D01*
X147522400Y-119096209D01*
X147561653Y-119090218D01*
X147600158Y-119082305D01*
X147637817Y-119072271D01*
X147663406Y-119065509D01*
X147688160Y-119060024D01*
X147712157Y-119055698D01*
X147717217Y-119054987D01*
X147735485Y-119052428D01*
X147758229Y-119050080D01*
X147780483Y-119048554D01*
X147802325Y-119047716D01*
X147823850Y-119047463D01*
X147995001Y-119052428D01*
X148828438Y-119174902D01*
X149483317Y-119275515D01*
X149503161Y-119278571D01*
X149661878Y-119302955D01*
X151269253Y-119558891D01*
X151328748Y-119568364D01*
X151467652Y-119568359D01*
X151507342Y-119528675D01*
X151249376Y-119290550D01*
X151230540Y-119276109D01*
X151211239Y-119262450D01*
X151191470Y-119249437D01*
X151171241Y-119236911D01*
X151129389Y-119212766D01*
X151085669Y-119188854D01*
X151040089Y-119164008D01*
X150992649Y-119137071D01*
X150968233Y-119122456D01*
X150943351Y-119106880D01*
X150918006Y-119090197D01*
X150892193Y-119072266D01*
X151249377Y-119072273D01*
X151249376Y-118794453D01*
X152360659Y-118794453D01*
X152360666Y-119131798D01*
X153055190Y-119131798D01*
X153055189Y-118794455D01*
X154106904Y-118794455D01*
X154106907Y-119131794D01*
X154841125Y-119131794D01*
X154841124Y-118794456D01*
X154106904Y-118794455D01*
X153055189Y-118794455D01*
X153055189Y-118794452D01*
X155892842Y-118794452D01*
X155892845Y-119151641D01*
X156587373Y-119151638D01*
X156587379Y-118794452D01*
X155892842Y-118794452D01*
X153055189Y-118794452D01*
X153055189Y-118794449D01*
X152360659Y-118794453D01*
X151249376Y-118794453D01*
X151249376Y-118715083D01*
X150554843Y-118715083D01*
X150554539Y-118763451D01*
X150553799Y-118790428D01*
X150552362Y-118819263D01*
X150549998Y-118849956D01*
X150546471Y-118882513D01*
X150544200Y-118899486D01*
X150541550Y-118916927D01*
X150538496Y-118934835D01*
X150535000Y-118953204D01*
X150121077Y-118706088D01*
X149709010Y-118464553D01*
X149293214Y-118219298D01*
X149082186Y-118092368D01*
X148868128Y-117961020D01*
X149443597Y-117961022D01*
X149443594Y-117762581D01*
X150574719Y-117762581D01*
X150574723Y-118040392D01*
X150773160Y-118040390D01*
X152360658Y-118040390D01*
X153055195Y-118040389D01*
X153055188Y-117742732D01*
X152707924Y-117742731D01*
X154126753Y-117742731D01*
X154126754Y-118040395D01*
X154841129Y-118040388D01*
X154841126Y-117742735D01*
X154126753Y-117742731D01*
X152707924Y-117742731D01*
X152360660Y-117742730D01*
X152360658Y-118040390D01*
X150773160Y-118040390D01*
X151269253Y-118040385D01*
X151269253Y-117762575D01*
X150574719Y-117762581D01*
X149443594Y-117762581D01*
X149443593Y-117663362D01*
X148749068Y-117663361D01*
X148749066Y-117941177D01*
X148727630Y-117933730D01*
X148707824Y-117926286D01*
X148689417Y-117918848D01*
X148672172Y-117911408D01*
X148655853Y-117903967D01*
X148640230Y-117896524D01*
X148610156Y-117881641D01*
X148225680Y-117673282D01*
X148038098Y-117569099D01*
X147856095Y-117464921D01*
X147782571Y-117420270D01*
X147710679Y-117375623D01*
X147570840Y-117286323D01*
X147434724Y-117197028D01*
X147300473Y-117107733D01*
X146573345Y-116730703D01*
X147002845Y-116730703D01*
X147002847Y-116929143D01*
X147697375Y-116929145D01*
X147697375Y-116929143D01*
X150574723Y-116929143D01*
X151269254Y-116929141D01*
X151269256Y-116730704D01*
X150574728Y-116730707D01*
X150574723Y-116929143D01*
X147697375Y-116929143D01*
X147697375Y-116730702D01*
X148788778Y-116730702D01*
X148788780Y-116929140D01*
X149483316Y-116929138D01*
X149483318Y-116730703D01*
X152360657Y-116730703D01*
X152360662Y-116929144D01*
X153055187Y-116929145D01*
X153055190Y-116730702D01*
X152360657Y-116730703D01*
X149483318Y-116730703D01*
X149483318Y-116730699D01*
X148788778Y-116730702D01*
X147697375Y-116730702D01*
X147697375Y-116730700D01*
X147002845Y-116730703D01*
X146573345Y-116730703D01*
X146228912Y-116552108D01*
X146188199Y-116529338D01*
X146147873Y-116505755D01*
X146067994Y-116456611D01*
X145908931Y-116353671D01*
X145828354Y-116301732D01*
X145746145Y-116250731D01*
X145704221Y-116225865D01*
X145661617Y-116201588D01*
X145618262Y-116178008D01*
X145574067Y-116155235D01*
X145249746Y-115980055D01*
X144943216Y-115817894D01*
X145236749Y-115817894D01*
X145410382Y-115817893D01*
X150574722Y-115817893D01*
X151269254Y-115817891D01*
X151289099Y-115817890D01*
X151289095Y-115678983D01*
X150594570Y-115678983D01*
X150591072Y-115689919D01*
X150588015Y-115700414D01*
X150585368Y-115710510D01*
X150583096Y-115720221D01*
X150581171Y-115729586D01*
X150579571Y-115738632D01*
X150578256Y-115747387D01*
X150577202Y-115755875D01*
X150575768Y-115772195D01*
X150575038Y-115787814D01*
X150574764Y-115802966D01*
X150574722Y-115817893D01*
X145410382Y-115817893D01*
X145931281Y-115817890D01*
X145931283Y-115678985D01*
X147002843Y-115678985D01*
X147002846Y-115817888D01*
X147697376Y-115817891D01*
X147700869Y-115810441D01*
X147703927Y-115802967D01*
X147706577Y-115795434D01*
X147708849Y-115787811D01*
X147710771Y-115780072D01*
X147712380Y-115772198D01*
X147713685Y-115764138D01*
X147714742Y-115755874D01*
X147715557Y-115747383D01*
X147716168Y-115738629D01*
X147716910Y-115720218D01*
X147717184Y-115700414D01*
X147717218Y-115678987D01*
X148788778Y-115678987D01*
X148788778Y-115817892D01*
X149483319Y-115817886D01*
X149483320Y-115678983D01*
X148788778Y-115678987D01*
X147717218Y-115678987D01*
X147717218Y-115678985D01*
X147002843Y-115678985D01*
X145931283Y-115678985D01*
X145931283Y-115678982D01*
X145236752Y-115678985D01*
X145236749Y-115817894D01*
X144943216Y-115817894D01*
X144929149Y-115810452D01*
X144608550Y-115644569D01*
X144284226Y-115480544D01*
X143748442Y-115143204D01*
X142766485Y-114627260D01*
X143430978Y-114627260D01*
X143434695Y-114629241D01*
X143438413Y-114631431D01*
X143445821Y-114636373D01*
X143453173Y-114641957D01*
X143460432Y-114648035D01*
X143467579Y-114654466D01*
X143474580Y-114661101D01*
X143488025Y-114674395D01*
X143500549Y-114686757D01*
X143506382Y-114692230D01*
X143511904Y-114697031D01*
X143517072Y-114701016D01*
X143519514Y-114702660D01*
X143521867Y-114704046D01*
X143524110Y-114705152D01*
X143526253Y-114705967D01*
X143528280Y-114706473D01*
X143530200Y-114706638D01*
X144165192Y-114686796D01*
X144168687Y-114683081D01*
X144171785Y-114679394D01*
X144174524Y-114675764D01*
X144176973Y-114672225D01*
X144180315Y-114666953D01*
X145197069Y-114666953D01*
X145284581Y-114680054D01*
X145368838Y-114689897D01*
X145450309Y-114696954D01*
X145529450Y-114701680D01*
X145606733Y-114704547D01*
X145682620Y-114706020D01*
X145832066Y-114706638D01*
X145837535Y-114704724D01*
X145842779Y-114702697D01*
X145847812Y-114700570D01*
X145852645Y-114698349D01*
X145861759Y-114693645D01*
X145870204Y-114688655D01*
X145878064Y-114683437D01*
X145885433Y-114678037D01*
X145892397Y-114672526D01*
X145899038Y-114666950D01*
X145911711Y-114655867D01*
X145924153Y-114645248D01*
X145925931Y-114643851D01*
X147012322Y-114643851D01*
X147012422Y-114649089D01*
X147012767Y-114654549D01*
X147014141Y-114666175D01*
X147016336Y-114678733D01*
X147019219Y-114692225D01*
X147022689Y-114706642D01*
X147618002Y-114706637D01*
X147707308Y-114647110D01*
X148768936Y-114647110D01*
X148808634Y-114686792D01*
X149483318Y-114686798D01*
X149503160Y-114647109D01*
X149499501Y-114645136D01*
X149495938Y-114642947D01*
X149492488Y-114640565D01*
X149489127Y-114637998D01*
X149485855Y-114635282D01*
X149482669Y-114632413D01*
X149476494Y-114626337D01*
X149470554Y-114619907D01*
X149464787Y-114613271D01*
X149453548Y-114599980D01*
X149447959Y-114593606D01*
X149442307Y-114587613D01*
X149436548Y-114582147D01*
X149433599Y-114579651D01*
X149430604Y-114577348D01*
X149427552Y-114575240D01*
X149424433Y-114573357D01*
X149421240Y-114571715D01*
X149417970Y-114570327D01*
X149414611Y-114569224D01*
X149411157Y-114568406D01*
X149407605Y-114567906D01*
X149403940Y-114567733D01*
X148868154Y-114567732D01*
X148866241Y-114567904D01*
X148864204Y-114568407D01*
X148862067Y-114569224D01*
X148859820Y-114570326D01*
X148857478Y-114571717D01*
X148855036Y-114573355D01*
X148852497Y-114575237D01*
X148849864Y-114577349D01*
X148844347Y-114582147D01*
X148838506Y-114587614D01*
X148825991Y-114599978D01*
X148812541Y-114613275D01*
X148805544Y-114619906D01*
X148798396Y-114626333D01*
X148791135Y-114632418D01*
X148787466Y-114635276D01*
X148783784Y-114637999D01*
X148780084Y-114640564D01*
X148776377Y-114642947D01*
X148772657Y-114645139D01*
X148768936Y-114647110D01*
X147707308Y-114647110D01*
X147717223Y-114640501D01*
X147737067Y-114627267D01*
X147733571Y-114623547D01*
X147730478Y-114619861D01*
X147727737Y-114616233D01*
X147725281Y-114612696D01*
X147717220Y-114599979D01*
X147715351Y-114597316D01*
X147713421Y-114594906D01*
X147711379Y-114592787D01*
X147710295Y-114591846D01*
X147709159Y-114590987D01*
X147707962Y-114590218D01*
X147706707Y-114589541D01*
X147705371Y-114588955D01*
X147703962Y-114588471D01*
X147702467Y-114588083D01*
X147700875Y-114587810D01*
X147699178Y-114587637D01*
X147697376Y-114587580D01*
X147102061Y-114587578D01*
X147093051Y-114587696D01*
X147084606Y-114588045D01*
X147076710Y-114588627D01*
X147069355Y-114589440D01*
X147062521Y-114590488D01*
X147056196Y-114591765D01*
X147050365Y-114593278D01*
X147045011Y-114595018D01*
X147040125Y-114596998D01*
X147035692Y-114599208D01*
X147031691Y-114601649D01*
X147028114Y-114604323D01*
X147024940Y-114607228D01*
X147022164Y-114610369D01*
X147019765Y-114613739D01*
X147017727Y-114617345D01*
X147016036Y-114621178D01*
X147014685Y-114625253D01*
X147013650Y-114629551D01*
X147012920Y-114634089D01*
X147012486Y-114638856D01*
X147012322Y-114643851D01*
X145925931Y-114643851D01*
X145930501Y-114640259D01*
X145931280Y-114639702D01*
X145937059Y-114635562D01*
X145943905Y-114631211D01*
X145951125Y-114627266D01*
X145947630Y-114623551D01*
X145944534Y-114619864D01*
X145941794Y-114616236D01*
X145939343Y-114612689D01*
X145931283Y-114599982D01*
X145929413Y-114597309D01*
X145927483Y-114594905D01*
X145925437Y-114592787D01*
X145924355Y-114591847D01*
X145923219Y-114590986D01*
X145922030Y-114590223D01*
X145920767Y-114589540D01*
X145919439Y-114588956D01*
X145918029Y-114588471D01*
X145916533Y-114588089D01*
X145914939Y-114587807D01*
X145913239Y-114587636D01*
X145911439Y-114587580D01*
X145296285Y-114587579D01*
X145292620Y-114587750D01*
X145289066Y-114588251D01*
X145285610Y-114589070D01*
X145282254Y-114590174D01*
X145278980Y-114591565D01*
X145275787Y-114593201D01*
X145272668Y-114595089D01*
X145269616Y-114597193D01*
X145266624Y-114599498D01*
X145263679Y-114601989D01*
X145260773Y-114604653D01*
X145257914Y-114607463D01*
X145252265Y-114613456D01*
X145246671Y-114619829D01*
X145235434Y-114633118D01*
X145229671Y-114639752D01*
X145223727Y-114646183D01*
X145220677Y-114649275D01*
X145217557Y-114652259D01*
X145214364Y-114655123D01*
X145211096Y-114657842D01*
X145207734Y-114660407D01*
X145204283Y-114662796D01*
X145200725Y-114664980D01*
X145197069Y-114666953D01*
X144180315Y-114666953D01*
X144185032Y-114659513D01*
X144186903Y-114656837D01*
X144188837Y-114654432D01*
X144190879Y-114652316D01*
X144191968Y-114651379D01*
X144193097Y-114650522D01*
X144194290Y-114649746D01*
X144195556Y-114649071D01*
X144196884Y-114648486D01*
X144198291Y-114648000D01*
X144199792Y-114647613D01*
X144201388Y-114647335D01*
X144203086Y-114647163D01*
X144204883Y-114647109D01*
X144201220Y-114645134D01*
X144197666Y-114642949D01*
X144194213Y-114640566D01*
X144190852Y-114638000D01*
X144187580Y-114635277D01*
X144184390Y-114632413D01*
X144178216Y-114626331D01*
X144172277Y-114619910D01*
X144166508Y-114613274D01*
X144155271Y-114599983D01*
X144149680Y-114593609D01*
X144144033Y-114587615D01*
X144138272Y-114582144D01*
X144135323Y-114579652D01*
X144132328Y-114577349D01*
X144129274Y-114575240D01*
X144126153Y-114573358D01*
X144122965Y-114571715D01*
X144119694Y-114570324D01*
X144116335Y-114569220D01*
X144112882Y-114568407D01*
X144109332Y-114567905D01*
X144105666Y-114567734D01*
X143450824Y-114567733D01*
X143430978Y-114627260D01*
X142766485Y-114627260D01*
X142577661Y-114528047D01*
X141823605Y-114071638D01*
X141771514Y-114042764D01*
X141719424Y-114015516D01*
X141667333Y-113989669D01*
X141615243Y-113964981D01*
X141563153Y-113941220D01*
X141511062Y-113918164D01*
X141406885Y-113873202D01*
X141392464Y-113865744D01*
X141378979Y-113858199D01*
X141366424Y-113850482D01*
X141354792Y-113842506D01*
X141344095Y-113834178D01*
X141339097Y-113829859D01*
X141334330Y-113825414D01*
X141329794Y-113820840D01*
X141325491Y-113816126D01*
X141321422Y-113811260D01*
X141317583Y-113806231D01*
X141313978Y-113801025D01*
X141310609Y-113795635D01*
X141307469Y-113790046D01*
X141304565Y-113784253D01*
X141301888Y-113778243D01*
X141299446Y-113772004D01*
X141297240Y-113765525D01*
X141295261Y-113758789D01*
X141293517Y-113751798D01*
X141292002Y-113744531D01*
X141290729Y-113736986D01*
X141289683Y-113729139D01*
X141288868Y-113720994D01*
X141288288Y-113712527D01*
X141287935Y-113703734D01*
X141287818Y-113694607D01*
X141287818Y-113674767D01*
X143450812Y-113674767D01*
X143450819Y-113674766D01*
X144165193Y-113674766D01*
X144165190Y-113476332D01*
X143808002Y-113476329D01*
X145236751Y-113476329D01*
X145236757Y-113674763D01*
X145296287Y-113674766D01*
X145931280Y-113674764D01*
X145931283Y-113476332D01*
X145236751Y-113476329D01*
X143808002Y-113476329D01*
X143450815Y-113476326D01*
X143450812Y-113674767D01*
X141287818Y-113674767D01*
X141287818Y-113674764D01*
X141704563Y-113674764D01*
X142399093Y-113674765D01*
X142399094Y-113476327D01*
X141704564Y-113476330D01*
X141704563Y-113674764D01*
X141287818Y-113674764D01*
X141287818Y-113476325D01*
X147022686Y-113476325D01*
X147022690Y-113674765D01*
X147102066Y-113674768D01*
X147717217Y-113674765D01*
X147717221Y-113476325D01*
X147022686Y-113476325D01*
X141287818Y-113476325D01*
X141287818Y-112642888D01*
X148788777Y-112642888D01*
X149483316Y-112642889D01*
X149483322Y-112345235D01*
X148788780Y-112345233D01*
X150574721Y-112345233D01*
X150574723Y-112623046D01*
X151269254Y-112623048D01*
X151269255Y-112345229D01*
X150574721Y-112345233D01*
X148788780Y-112345233D01*
X148788777Y-112642888D01*
X141287818Y-112642888D01*
X141287818Y-112345235D01*
X141704562Y-112345235D01*
X141704562Y-112623050D01*
X142399091Y-112623049D01*
X142399091Y-112623046D01*
X143450814Y-112623046D01*
X144165191Y-112623045D01*
X144185036Y-112623046D01*
X144185037Y-112345231D01*
X143450817Y-112345231D01*
X143450814Y-112623046D01*
X142399091Y-112623046D01*
X142399091Y-112345235D01*
X141704562Y-112345235D01*
X141287818Y-112345235D01*
X141287818Y-112325392D01*
X145236754Y-112325392D01*
X145236756Y-112623045D01*
X145931278Y-112623047D01*
X145931284Y-112325393D01*
X147002842Y-112325393D01*
X147002845Y-112623045D01*
X147697376Y-112623047D01*
X147697377Y-112325390D01*
X147002842Y-112325393D01*
X145931284Y-112325393D01*
X145931284Y-112325392D01*
X145236754Y-112325392D01*
X141287818Y-112325392D01*
X141287818Y-111630854D01*
X148788780Y-111630854D01*
X149483319Y-111630855D01*
X149483319Y-111611019D01*
X154126750Y-111611019D01*
X154841127Y-111611018D01*
X154841123Y-111214139D01*
X154126755Y-111214141D01*
X154126750Y-111611019D01*
X149483319Y-111611019D01*
X149483316Y-111233983D01*
X150574722Y-111233983D01*
X150574724Y-111611012D01*
X151269252Y-111611012D01*
X151269255Y-111233985D01*
X150574722Y-111233983D01*
X149483316Y-111233983D01*
X149483316Y-111233982D01*
X152360658Y-111233982D01*
X152360664Y-111611017D01*
X153055187Y-111611013D01*
X153055188Y-111233984D01*
X152360658Y-111233982D01*
X149483316Y-111233982D01*
X148788782Y-111233983D01*
X148788780Y-111630854D01*
X141287818Y-111630854D01*
X141287818Y-111611014D01*
X141704558Y-111611014D01*
X142399095Y-111611017D01*
X142399094Y-111233985D01*
X143450814Y-111233985D01*
X143450816Y-111611012D01*
X144185032Y-111611020D01*
X144185032Y-111611015D01*
X147022689Y-111611015D01*
X147697375Y-111611013D01*
X147697374Y-111233981D01*
X147022690Y-111233984D01*
X147022689Y-111611015D01*
X144185032Y-111611015D01*
X144185032Y-111233985D01*
X143450814Y-111233985D01*
X142399094Y-111233985D01*
X142399094Y-111233981D01*
X141704559Y-111233978D01*
X141704558Y-111611014D01*
X141287818Y-111611014D01*
X141287818Y-111214139D01*
X145236752Y-111214139D01*
X145236753Y-111591171D01*
X145931279Y-111591172D01*
X145931282Y-111214145D01*
X145236752Y-111214139D01*
X141287818Y-111214139D01*
X141287818Y-111095078D01*
X141287994Y-111084148D01*
X141288507Y-111073667D01*
X141289356Y-111063637D01*
X141290533Y-111054032D01*
X141292029Y-111044853D01*
X141293835Y-111036083D01*
X141295948Y-111027715D01*
X141298359Y-111019730D01*
X141301060Y-111012128D01*
X141304051Y-111004893D01*
X141307311Y-110998012D01*
X141310841Y-110991478D01*
X141314634Y-110985275D01*
X141318678Y-110979402D01*
X141322965Y-110973838D01*
X141327504Y-110968573D01*
X141332269Y-110963597D01*
X141337264Y-110958908D01*
X141342471Y-110954483D01*
X141347892Y-110950319D01*
X141359332Y-110942718D01*
X141371532Y-110936018D01*
X141384433Y-110930130D01*
X141397968Y-110924968D01*
X141412087Y-110920450D01*
X141426726Y-110916483D01*
X141876312Y-110812613D01*
X142329614Y-110710605D01*
X142399096Y-110695544D01*
X142782923Y-110612318D01*
X142847569Y-110598987D01*
X152360661Y-110598987D01*
X153055189Y-110598981D01*
X153055191Y-110122738D01*
X152360663Y-110122738D01*
X152360661Y-110598987D01*
X142847569Y-110598987D01*
X142847579Y-110598985D01*
X147022689Y-110598985D01*
X147697379Y-110598983D01*
X147717219Y-110598985D01*
X147717219Y-110598984D01*
X148788780Y-110598984D01*
X149483316Y-110598986D01*
X150574719Y-110598986D01*
X151269252Y-110598984D01*
X151269257Y-110122738D01*
X150921988Y-110122737D01*
X154126751Y-110122737D01*
X154126752Y-110598986D01*
X154841124Y-110598983D01*
X154841127Y-110122736D01*
X155892842Y-110122736D01*
X155892845Y-110598986D01*
X156355865Y-110598984D01*
X157678780Y-110598984D01*
X158373312Y-110598987D01*
X158373312Y-110122736D01*
X157678782Y-110122735D01*
X157678780Y-110598984D01*
X156355865Y-110598984D01*
X156587375Y-110598983D01*
X156587371Y-110122733D01*
X155892842Y-110122736D01*
X154841127Y-110122736D01*
X154841127Y-110122731D01*
X154126751Y-110122737D01*
X150921988Y-110122737D01*
X150574720Y-110122736D01*
X150574719Y-110598986D01*
X149483316Y-110598986D01*
X149483313Y-110122733D01*
X148788782Y-110122735D01*
X148788780Y-110598984D01*
X147717219Y-110598984D01*
X147717221Y-110122738D01*
X147022691Y-110122736D01*
X147022689Y-110598985D01*
X142847579Y-110598985D01*
X143232507Y-110519608D01*
X143269940Y-110513062D01*
X143307780Y-110508174D01*
X143345960Y-110504737D01*
X143384437Y-110502558D01*
X143423152Y-110501419D01*
X143462031Y-110501120D01*
X143540087Y-110502243D01*
X143695740Y-110505654D01*
X143772400Y-110504685D01*
X143810236Y-110502823D01*
X143847665Y-110499764D01*
X144125478Y-110499763D01*
X144125791Y-110455118D01*
X144126525Y-110432794D01*
X144127959Y-110410465D01*
X144129010Y-110399306D01*
X144130323Y-110388144D01*
X144131926Y-110376985D01*
X144133848Y-110365819D01*
X144136125Y-110354658D01*
X144138774Y-110343493D01*
X144141830Y-110332333D01*
X144145324Y-110321168D01*
X144185035Y-110311872D01*
X144653818Y-110202109D01*
X145177200Y-110083048D01*
X145177201Y-110479918D01*
X145871733Y-110479923D01*
X145871735Y-110003668D01*
X145613767Y-110003669D01*
X145613767Y-109963984D01*
X145931284Y-109895225D01*
X147538044Y-109547263D01*
X152360661Y-109547263D01*
X153055187Y-109547267D01*
X153055187Y-109547265D01*
X157678780Y-109547265D01*
X158353466Y-109547268D01*
X158353465Y-109011483D01*
X157678783Y-109011479D01*
X157678780Y-109547265D01*
X153055187Y-109547265D01*
X153055192Y-109011487D01*
X152360663Y-109011489D01*
X152360661Y-109547263D01*
X147538044Y-109547263D01*
X147717222Y-109508460D01*
X148729240Y-109289296D01*
X148729460Y-109300230D01*
X148730090Y-109310734D01*
X148731069Y-109320819D01*
X148732336Y-109330533D01*
X148733844Y-109339900D01*
X148735517Y-109348942D01*
X148739162Y-109366191D01*
X148742806Y-109382503D01*
X148745981Y-109398124D01*
X148747249Y-109405748D01*
X148748225Y-109413282D01*
X148748858Y-109420755D01*
X148749084Y-109428205D01*
X149443614Y-109428201D01*
X149443612Y-109130543D01*
X149483319Y-109121724D01*
X150515173Y-108892419D01*
X150515179Y-109428206D01*
X151229550Y-109428201D01*
X151229552Y-109011485D01*
X154106904Y-109011485D01*
X154106906Y-109547263D01*
X154821281Y-109547264D01*
X154821281Y-109547263D01*
X155892840Y-109547263D01*
X156587373Y-109547264D01*
X156587376Y-109011484D01*
X155892842Y-109011480D01*
X155892840Y-109547263D01*
X154821281Y-109547263D01*
X154821285Y-109011485D01*
X154106904Y-109011485D01*
X151229552Y-109011485D01*
X151229552Y-108892416D01*
X150614397Y-108892423D01*
X150614394Y-108872578D01*
X151269256Y-108728828D01*
X151427988Y-108693984D01*
X151435430Y-108690039D01*
X151442876Y-108685650D01*
X151450310Y-108680859D01*
X151457760Y-108675690D01*
X151465195Y-108670174D01*
X151472635Y-108664334D01*
X151480077Y-108658206D01*
X151487517Y-108651814D01*
X151502402Y-108638370D01*
X151517287Y-108624221D01*
X151532165Y-108609608D01*
X151547053Y-108594769D01*
X151539387Y-108587331D01*
X151531317Y-108579926D01*
X151522895Y-108572571D01*
X151514180Y-108565311D01*
X151505242Y-108558164D01*
X151496122Y-108551166D01*
X151486887Y-108544338D01*
X151477598Y-108537718D01*
X151473924Y-108535235D01*
X152360661Y-108535235D01*
X153055189Y-108535234D01*
X153055189Y-108535232D01*
X154126751Y-108535232D01*
X154821282Y-108535237D01*
X154829219Y-108535235D01*
X155892843Y-108535235D01*
X156587372Y-108535233D01*
X156587375Y-107880394D01*
X157678780Y-107880394D01*
X157678784Y-108535238D01*
X158353466Y-108535233D01*
X158373309Y-108535234D01*
X158373310Y-107880389D01*
X157678780Y-107880394D01*
X156587375Y-107880394D01*
X156587375Y-107880390D01*
X155892846Y-107880393D01*
X155892843Y-108535235D01*
X154829219Y-108535235D01*
X154841124Y-108535232D01*
X154841122Y-107880388D01*
X154126753Y-107880390D01*
X154126751Y-108535232D01*
X153055189Y-108535232D01*
X153055192Y-107880388D01*
X152360663Y-107880390D01*
X152360661Y-108535235D01*
X151473924Y-108535235D01*
X151459072Y-108525199D01*
X151441007Y-108513838D01*
X151423881Y-108503876D01*
X151408144Y-108495548D01*
X151396984Y-108492052D01*
X151385822Y-108488997D01*
X151374659Y-108486344D01*
X151363493Y-108484078D01*
X151352334Y-108482153D01*
X151341167Y-108480550D01*
X151330007Y-108479232D01*
X151318848Y-108478184D01*
X151296522Y-108476749D01*
X151274196Y-108476017D01*
X151229552Y-108475701D01*
X151229546Y-107781175D01*
X150535016Y-107781173D01*
X150535015Y-108356638D01*
X149463455Y-108178044D01*
X149463456Y-107781171D01*
X148749084Y-107781175D01*
X148748771Y-107852484D01*
X148748037Y-107886517D01*
X148746598Y-107920075D01*
X148744239Y-107953640D01*
X148740708Y-107987669D01*
X148735787Y-108022628D01*
X148729234Y-108058985D01*
X147737049Y-107880393D01*
X147733381Y-107880214D01*
X147729827Y-107879709D01*
X147726358Y-107878866D01*
X147722979Y-107877715D01*
X147719664Y-107876255D01*
X147716420Y-107874504D01*
X147713228Y-107872464D01*
X147710075Y-107870159D01*
X147706940Y-107867588D01*
X147703837Y-107864768D01*
X147700736Y-107861703D01*
X147697628Y-107858416D01*
X147691370Y-107851190D01*
X147684961Y-107843178D01*
X147656125Y-107805047D01*
X147647684Y-107794422D01*
X147638565Y-107783531D01*
X147633735Y-107778025D01*
X147628698Y-107772474D01*
X147623458Y-107766906D01*
X147617986Y-107761330D01*
X147402182Y-107760554D01*
X147186347Y-107751447D01*
X146970452Y-107734949D01*
X146754475Y-107712031D01*
X146322136Y-107650754D01*
X145889099Y-107575295D01*
X145505042Y-107503360D01*
X148788780Y-107503360D01*
X149483318Y-107503357D01*
X149483318Y-107503354D01*
X150574720Y-107503354D01*
X151269256Y-107503356D01*
X151269253Y-106868361D01*
X150748356Y-106868358D01*
X152360656Y-106868358D01*
X152360663Y-107503359D01*
X153055185Y-107503355D01*
X153055190Y-106868360D01*
X154126753Y-106868360D01*
X154126755Y-107503357D01*
X154841127Y-107503358D01*
X154841126Y-106868358D01*
X155892844Y-106868358D01*
X155892847Y-107503356D01*
X156587376Y-107503359D01*
X156587374Y-106868361D01*
X155892844Y-106868358D01*
X154841126Y-106868358D01*
X154841126Y-106868356D01*
X154126753Y-106868360D01*
X153055190Y-106868360D01*
X153055190Y-106868357D01*
X152360656Y-106868358D01*
X150748356Y-106868358D01*
X150574724Y-106868357D01*
X150574720Y-107503354D01*
X149483318Y-107503354D01*
X149483317Y-106868362D01*
X148788780Y-106868359D01*
X148788780Y-107503360D01*
X145505042Y-107503360D01*
X145505015Y-107503355D01*
X147022689Y-107503355D01*
X147717218Y-107503358D01*
X147717222Y-106868360D01*
X147022689Y-106868359D01*
X147022689Y-107503355D01*
X145505015Y-107503355D01*
X145399096Y-107483516D01*
X145236755Y-107483521D01*
X145236749Y-107453109D01*
X145399096Y-107483516D01*
X145931286Y-107483513D01*
X145931281Y-106848519D01*
X157678779Y-106848519D01*
X157678781Y-107483514D01*
X158373313Y-107483518D01*
X158373312Y-106848515D01*
X157678779Y-106848519D01*
X145931281Y-106848519D01*
X145931281Y-106848516D01*
X145236754Y-106848516D01*
X145236749Y-107453109D01*
X145020004Y-107412511D01*
X144583480Y-107340539D01*
X144364621Y-107310263D01*
X144145326Y-107285078D01*
X144145329Y-106729451D01*
X143411111Y-106729453D01*
X143411112Y-107126326D01*
X142887728Y-107037032D01*
X142379235Y-106947737D01*
X142378922Y-106890994D01*
X142378188Y-106863673D01*
X142376753Y-106836114D01*
X142374384Y-106807628D01*
X142370861Y-106777510D01*
X142365936Y-106745077D01*
X142359388Y-106709614D01*
X141704544Y-106709606D01*
X141702628Y-106709779D01*
X141700599Y-106710288D01*
X141698474Y-106711112D01*
X141696254Y-106712247D01*
X141693940Y-106713664D01*
X141691549Y-106715366D01*
X141689089Y-106717323D01*
X141686560Y-106719529D01*
X141683976Y-106721973D01*
X141681339Y-106724623D01*
X141675939Y-106730539D01*
X141670429Y-106737143D01*
X141664856Y-106744334D01*
X141659286Y-106751991D01*
X141653772Y-106759992D01*
X141648374Y-106768228D01*
X141643151Y-106776582D01*
X141638163Y-106784935D01*
X141633464Y-106793171D01*
X141629109Y-106801177D01*
X141625172Y-106808830D01*
X141572183Y-106800534D01*
X141517578Y-106790846D01*
X141404405Y-106769143D01*
X141287518Y-106747434D01*
X141228259Y-106737744D01*
X141168764Y-106729451D01*
X141168764Y-106372266D01*
X141704558Y-106372266D01*
X142399090Y-106372263D01*
X142399095Y-105816645D01*
X143450810Y-105816645D01*
X143450812Y-106392106D01*
X144185030Y-106392112D01*
X144185030Y-106392110D01*
X145236751Y-106392110D01*
X145931282Y-106392113D01*
X145931283Y-105816642D01*
X147002844Y-105816642D01*
X147002848Y-106392109D01*
X147697377Y-106392109D01*
X147697375Y-105816641D01*
X148788781Y-105816641D01*
X148788783Y-106392109D01*
X149020293Y-106392108D01*
X155892841Y-106392108D01*
X156587379Y-106392112D01*
X156587379Y-106392111D01*
X157678780Y-106392111D01*
X158373316Y-106392110D01*
X158373312Y-105816638D01*
X157678781Y-105816638D01*
X157678780Y-106392111D01*
X156587379Y-106392111D01*
X156587372Y-105816641D01*
X155892844Y-105816642D01*
X155892841Y-106392108D01*
X149020293Y-106392108D01*
X149483314Y-106392106D01*
X149483314Y-106372265D01*
X150574721Y-106372265D01*
X151269252Y-106372264D01*
X151269252Y-106372263D01*
X152360658Y-106372263D01*
X153055191Y-106372267D01*
X153055189Y-105816642D01*
X154126753Y-105816642D01*
X154126755Y-106372269D01*
X154841129Y-106372264D01*
X154841126Y-105816639D01*
X154126753Y-105816642D01*
X153055189Y-105816642D01*
X153055189Y-105816639D01*
X152360663Y-105816639D01*
X152360658Y-106372263D01*
X151269252Y-106372263D01*
X151269254Y-105816640D01*
X150574726Y-105816641D01*
X150574721Y-106372265D01*
X149483314Y-106372265D01*
X149483318Y-105816644D01*
X148788781Y-105816641D01*
X147697375Y-105816641D01*
X147697375Y-105816640D01*
X147002844Y-105816642D01*
X145931283Y-105816642D01*
X145931283Y-105816639D01*
X145236752Y-105816639D01*
X145236751Y-106392110D01*
X144185030Y-106392110D01*
X144185026Y-105816645D01*
X143450810Y-105816645D01*
X142399095Y-105816645D01*
X142399095Y-105816640D01*
X141704562Y-105816641D01*
X141704558Y-106372266D01*
X141168764Y-106372266D01*
X141168765Y-104804608D01*
X141704561Y-104804608D01*
X141704563Y-105280861D01*
X142399092Y-105280862D01*
X142399092Y-105280859D01*
X145236751Y-105280859D01*
X145931283Y-105280862D01*
X145931285Y-104804609D01*
X145236754Y-104804612D01*
X145236751Y-105280859D01*
X142399092Y-105280859D01*
X142399092Y-105280858D01*
X143450815Y-105280858D01*
X144165187Y-105280857D01*
X144165189Y-104804608D01*
X143450816Y-104804610D01*
X143450815Y-105280858D01*
X142399092Y-105280858D01*
X142399094Y-104804609D01*
X141704561Y-104804608D01*
X141168765Y-104804608D01*
X141168765Y-104804606D01*
X147002845Y-104804606D01*
X147002847Y-105280860D01*
X147697377Y-105280862D01*
X147697377Y-105280859D01*
X148788781Y-105280859D01*
X149483314Y-105280858D01*
X149483317Y-104804609D01*
X150574722Y-104804609D01*
X150574723Y-105280863D01*
X151269257Y-105280860D01*
X151269252Y-104804611D01*
X152360659Y-104804611D01*
X152360661Y-105280861D01*
X153055189Y-105280862D01*
X153055189Y-105280858D01*
X154106908Y-105280858D01*
X154841130Y-105280858D01*
X154841128Y-104804608D01*
X155892839Y-104804608D01*
X155892849Y-105280859D01*
X156587375Y-105280862D01*
X156587372Y-104804607D01*
X155892839Y-104804608D01*
X154841128Y-104804608D01*
X154106910Y-104804608D01*
X154106908Y-105280858D01*
X153055189Y-105280858D01*
X153055191Y-104804609D01*
X152360659Y-104804611D01*
X151269252Y-104804611D01*
X151269252Y-104804607D01*
X150574722Y-104804609D01*
X149483317Y-104804609D01*
X149483317Y-104804606D01*
X148788785Y-104804610D01*
X148788781Y-105280859D01*
X147697377Y-105280859D01*
X147697373Y-104804611D01*
X147002845Y-104804606D01*
X141168765Y-104804606D01*
X141168766Y-103792576D01*
X141704562Y-103792576D01*
X141704563Y-104149764D01*
X142399092Y-104149763D01*
X145236750Y-104149763D01*
X145931287Y-104149764D01*
X145931287Y-104129923D01*
X147022687Y-104129923D01*
X147697379Y-104129926D01*
X147717219Y-104129923D01*
X147717219Y-103792579D01*
X148788776Y-103792579D01*
X148788781Y-104149765D01*
X149483315Y-104149763D01*
X149483317Y-103792579D01*
X148788776Y-103792579D01*
X147717219Y-103792579D01*
X147717219Y-103772734D01*
X147022692Y-103772731D01*
X147022687Y-104129923D01*
X145931287Y-104129923D01*
X145931282Y-103792578D01*
X145236756Y-103792573D01*
X145236750Y-104149763D01*
X142399092Y-104149763D01*
X142399092Y-104129922D01*
X143450814Y-104129922D01*
X144165190Y-104129926D01*
X144185029Y-104129920D01*
X144185034Y-104129923D01*
X144185033Y-103792578D01*
X143450816Y-103792579D01*
X143450814Y-104129922D01*
X142399092Y-104129922D01*
X142399094Y-103792579D01*
X141704562Y-103792576D01*
X141168766Y-103792576D01*
X141168766Y-103038513D01*
X141704560Y-103038513D01*
X142399089Y-103038516D01*
X142399097Y-102740858D01*
X143450812Y-102740858D01*
X143450815Y-103038516D01*
X144165190Y-103038514D01*
X144165190Y-102740860D01*
X143450812Y-102740858D01*
X142399097Y-102740858D01*
X141704565Y-102740854D01*
X141704560Y-103038513D01*
X141168766Y-103038513D01*
X141168766Y-102165390D01*
X141169472Y-102137005D01*
X141170365Y-102123832D01*
X141171632Y-102111322D01*
X141173276Y-102099467D01*
X141175307Y-102088257D01*
X141177732Y-102077680D01*
X141180550Y-102067716D01*
X141183777Y-102058375D01*
X141187419Y-102049626D01*
X141191479Y-102041468D01*
X141195973Y-102033886D01*
X141200899Y-102026872D01*
X141206270Y-102020412D01*
X141212094Y-102014496D01*
X141218377Y-102009124D01*
X141225120Y-102004264D01*
X141232336Y-101999921D01*
X141240035Y-101996079D01*
X141248220Y-101992724D01*
X141256895Y-101989853D01*
X141266078Y-101987454D01*
X141275765Y-101985505D01*
X141285967Y-101984002D01*
X141296697Y-101982939D01*
X141307953Y-101982304D01*
X141319751Y-101982081D01*
X141332089Y-101982257D01*
G37*
D13*
X147538095Y-60654819D02*
X147538095Y-61464342D01*
X147538095Y-61464342D02*
X147585714Y-61559580D01*
X147585714Y-61559580D02*
X147633333Y-61607200D01*
X147633333Y-61607200D02*
X147728571Y-61654819D01*
X147728571Y-61654819D02*
X147919047Y-61654819D01*
X147919047Y-61654819D02*
X148014285Y-61607200D01*
X148014285Y-61607200D02*
X148061904Y-61559580D01*
X148061904Y-61559580D02*
X148109523Y-61464342D01*
X148109523Y-61464342D02*
X148109523Y-60654819D01*
X149109523Y-61654819D02*
X148538095Y-61654819D01*
X148823809Y-61654819D02*
X148823809Y-60654819D01*
X148823809Y-60654819D02*
X148728571Y-60797676D01*
X148728571Y-60797676D02*
X148633333Y-60892914D01*
X148633333Y-60892914D02*
X148538095Y-60940533D01*
D14*
X157717190Y-59783333D02*
X157741000Y-59807142D01*
X157741000Y-59807142D02*
X157764809Y-59878571D01*
X157764809Y-59878571D02*
X157764809Y-59926190D01*
X157764809Y-59926190D02*
X157741000Y-59997618D01*
X157741000Y-59997618D02*
X157693380Y-60045237D01*
X157693380Y-60045237D02*
X157645761Y-60069047D01*
X157645761Y-60069047D02*
X157550523Y-60092856D01*
X157550523Y-60092856D02*
X157479095Y-60092856D01*
X157479095Y-60092856D02*
X157383857Y-60069047D01*
X157383857Y-60069047D02*
X157336238Y-60045237D01*
X157336238Y-60045237D02*
X157288619Y-59997618D01*
X157288619Y-59997618D02*
X157264809Y-59926190D01*
X157264809Y-59926190D02*
X157264809Y-59878571D01*
X157264809Y-59878571D02*
X157288619Y-59807142D01*
X157288619Y-59807142D02*
X157312428Y-59783333D01*
X157764809Y-59545237D02*
X157764809Y-59449999D01*
X157764809Y-59449999D02*
X157741000Y-59402380D01*
X157741000Y-59402380D02*
X157717190Y-59378571D01*
X157717190Y-59378571D02*
X157645761Y-59330952D01*
X157645761Y-59330952D02*
X157550523Y-59307142D01*
X157550523Y-59307142D02*
X157360047Y-59307142D01*
X157360047Y-59307142D02*
X157312428Y-59330952D01*
X157312428Y-59330952D02*
X157288619Y-59354761D01*
X157288619Y-59354761D02*
X157264809Y-59402380D01*
X157264809Y-59402380D02*
X157264809Y-59497618D01*
X157264809Y-59497618D02*
X157288619Y-59545237D01*
X157288619Y-59545237D02*
X157312428Y-59569047D01*
X157312428Y-59569047D02*
X157360047Y-59592856D01*
X157360047Y-59592856D02*
X157479095Y-59592856D01*
X157479095Y-59592856D02*
X157526714Y-59569047D01*
X157526714Y-59569047D02*
X157550523Y-59545237D01*
X157550523Y-59545237D02*
X157574333Y-59497618D01*
X157574333Y-59497618D02*
X157574333Y-59402380D01*
X157574333Y-59402380D02*
X157550523Y-59354761D01*
X157550523Y-59354761D02*
X157526714Y-59330952D01*
X157526714Y-59330952D02*
X157479095Y-59307142D01*
X154077190Y-59783333D02*
X154101000Y-59807142D01*
X154101000Y-59807142D02*
X154124809Y-59878571D01*
X154124809Y-59878571D02*
X154124809Y-59926190D01*
X154124809Y-59926190D02*
X154101000Y-59997618D01*
X154101000Y-59997618D02*
X154053380Y-60045237D01*
X154053380Y-60045237D02*
X154005761Y-60069047D01*
X154005761Y-60069047D02*
X153910523Y-60092856D01*
X153910523Y-60092856D02*
X153839095Y-60092856D01*
X153839095Y-60092856D02*
X153743857Y-60069047D01*
X153743857Y-60069047D02*
X153696238Y-60045237D01*
X153696238Y-60045237D02*
X153648619Y-59997618D01*
X153648619Y-59997618D02*
X153624809Y-59926190D01*
X153624809Y-59926190D02*
X153624809Y-59878571D01*
X153624809Y-59878571D02*
X153648619Y-59807142D01*
X153648619Y-59807142D02*
X153672428Y-59783333D01*
X153839095Y-59497618D02*
X153815285Y-59545237D01*
X153815285Y-59545237D02*
X153791476Y-59569047D01*
X153791476Y-59569047D02*
X153743857Y-59592856D01*
X153743857Y-59592856D02*
X153720047Y-59592856D01*
X153720047Y-59592856D02*
X153672428Y-59569047D01*
X153672428Y-59569047D02*
X153648619Y-59545237D01*
X153648619Y-59545237D02*
X153624809Y-59497618D01*
X153624809Y-59497618D02*
X153624809Y-59402380D01*
X153624809Y-59402380D02*
X153648619Y-59354761D01*
X153648619Y-59354761D02*
X153672428Y-59330952D01*
X153672428Y-59330952D02*
X153720047Y-59307142D01*
X153720047Y-59307142D02*
X153743857Y-59307142D01*
X153743857Y-59307142D02*
X153791476Y-59330952D01*
X153791476Y-59330952D02*
X153815285Y-59354761D01*
X153815285Y-59354761D02*
X153839095Y-59402380D01*
X153839095Y-59402380D02*
X153839095Y-59497618D01*
X153839095Y-59497618D02*
X153862904Y-59545237D01*
X153862904Y-59545237D02*
X153886714Y-59569047D01*
X153886714Y-59569047D02*
X153934333Y-59592856D01*
X153934333Y-59592856D02*
X154029571Y-59592856D01*
X154029571Y-59592856D02*
X154077190Y-59569047D01*
X154077190Y-59569047D02*
X154101000Y-59545237D01*
X154101000Y-59545237D02*
X154124809Y-59497618D01*
X154124809Y-59497618D02*
X154124809Y-59402380D01*
X154124809Y-59402380D02*
X154101000Y-59354761D01*
X154101000Y-59354761D02*
X154077190Y-59330952D01*
X154077190Y-59330952D02*
X154029571Y-59307142D01*
X154029571Y-59307142D02*
X153934333Y-59307142D01*
X153934333Y-59307142D02*
X153886714Y-59330952D01*
X153886714Y-59330952D02*
X153862904Y-59354761D01*
X153862904Y-59354761D02*
X153839095Y-59402380D01*
X140769047Y-56504809D02*
X140769047Y-56909571D01*
X140769047Y-56909571D02*
X140792857Y-56957190D01*
X140792857Y-56957190D02*
X140816666Y-56981000D01*
X140816666Y-56981000D02*
X140864285Y-57004809D01*
X140864285Y-57004809D02*
X140959523Y-57004809D01*
X140959523Y-57004809D02*
X141007142Y-56981000D01*
X141007142Y-56981000D02*
X141030952Y-56957190D01*
X141030952Y-56957190D02*
X141054761Y-56909571D01*
X141054761Y-56909571D02*
X141054761Y-56504809D01*
X141245238Y-56504809D02*
X141578571Y-56504809D01*
X141578571Y-56504809D02*
X141364286Y-57004809D01*
D13*
X132194819Y-34083333D02*
X132909104Y-34083333D01*
X132909104Y-34083333D02*
X133051961Y-34130952D01*
X133051961Y-34130952D02*
X133147200Y-34226190D01*
X133147200Y-34226190D02*
X133194819Y-34369047D01*
X133194819Y-34369047D02*
X133194819Y-34464285D01*
X132290057Y-33654761D02*
X132242438Y-33607142D01*
X132242438Y-33607142D02*
X132194819Y-33511904D01*
X132194819Y-33511904D02*
X132194819Y-33273809D01*
X132194819Y-33273809D02*
X132242438Y-33178571D01*
X132242438Y-33178571D02*
X132290057Y-33130952D01*
X132290057Y-33130952D02*
X132385295Y-33083333D01*
X132385295Y-33083333D02*
X132480533Y-33083333D01*
X132480533Y-33083333D02*
X132623390Y-33130952D01*
X132623390Y-33130952D02*
X133194819Y-33702380D01*
X133194819Y-33702380D02*
X133194819Y-33083333D01*
X132194819Y-54403333D02*
X132909104Y-54403333D01*
X132909104Y-54403333D02*
X133051961Y-54450952D01*
X133051961Y-54450952D02*
X133147200Y-54546190D01*
X133147200Y-54546190D02*
X133194819Y-54689047D01*
X133194819Y-54689047D02*
X133194819Y-54784285D01*
X133194819Y-53403333D02*
X133194819Y-53974761D01*
X133194819Y-53689047D02*
X132194819Y-53689047D01*
X132194819Y-53689047D02*
X132337676Y-53784285D01*
X132337676Y-53784285D02*
X132432914Y-53879523D01*
X132432914Y-53879523D02*
X132480533Y-53974761D01*
D14*
X147294047Y-68519809D02*
X147294047Y-68924571D01*
X147294047Y-68924571D02*
X147317857Y-68972190D01*
X147317857Y-68972190D02*
X147341666Y-68996000D01*
X147341666Y-68996000D02*
X147389285Y-69019809D01*
X147389285Y-69019809D02*
X147484523Y-69019809D01*
X147484523Y-69019809D02*
X147532142Y-68996000D01*
X147532142Y-68996000D02*
X147555952Y-68972190D01*
X147555952Y-68972190D02*
X147579761Y-68924571D01*
X147579761Y-68924571D02*
X147579761Y-68519809D01*
X148032143Y-68519809D02*
X147936905Y-68519809D01*
X147936905Y-68519809D02*
X147889286Y-68543619D01*
X147889286Y-68543619D02*
X147865476Y-68567428D01*
X147865476Y-68567428D02*
X147817857Y-68638857D01*
X147817857Y-68638857D02*
X147794048Y-68734095D01*
X147794048Y-68734095D02*
X147794048Y-68924571D01*
X147794048Y-68924571D02*
X147817857Y-68972190D01*
X147817857Y-68972190D02*
X147841667Y-68996000D01*
X147841667Y-68996000D02*
X147889286Y-69019809D01*
X147889286Y-69019809D02*
X147984524Y-69019809D01*
X147984524Y-69019809D02*
X148032143Y-68996000D01*
X148032143Y-68996000D02*
X148055952Y-68972190D01*
X148055952Y-68972190D02*
X148079762Y-68924571D01*
X148079762Y-68924571D02*
X148079762Y-68805523D01*
X148079762Y-68805523D02*
X148055952Y-68757904D01*
X148055952Y-68757904D02*
X148032143Y-68734095D01*
X148032143Y-68734095D02*
X147984524Y-68710285D01*
X147984524Y-68710285D02*
X147889286Y-68710285D01*
X147889286Y-68710285D02*
X147841667Y-68734095D01*
X147841667Y-68734095D02*
X147817857Y-68757904D01*
X147817857Y-68757904D02*
X147794048Y-68805523D01*
X157754809Y-64175833D02*
X157516714Y-64342499D01*
X157754809Y-64461547D02*
X157254809Y-64461547D01*
X157254809Y-64461547D02*
X157254809Y-64271071D01*
X157254809Y-64271071D02*
X157278619Y-64223452D01*
X157278619Y-64223452D02*
X157302428Y-64199642D01*
X157302428Y-64199642D02*
X157350047Y-64175833D01*
X157350047Y-64175833D02*
X157421476Y-64175833D01*
X157421476Y-64175833D02*
X157469095Y-64199642D01*
X157469095Y-64199642D02*
X157492904Y-64223452D01*
X157492904Y-64223452D02*
X157516714Y-64271071D01*
X157516714Y-64271071D02*
X157516714Y-64461547D01*
X157469095Y-63890118D02*
X157445285Y-63937737D01*
X157445285Y-63937737D02*
X157421476Y-63961547D01*
X157421476Y-63961547D02*
X157373857Y-63985356D01*
X157373857Y-63985356D02*
X157350047Y-63985356D01*
X157350047Y-63985356D02*
X157302428Y-63961547D01*
X157302428Y-63961547D02*
X157278619Y-63937737D01*
X157278619Y-63937737D02*
X157254809Y-63890118D01*
X157254809Y-63890118D02*
X157254809Y-63794880D01*
X157254809Y-63794880D02*
X157278619Y-63747261D01*
X157278619Y-63747261D02*
X157302428Y-63723452D01*
X157302428Y-63723452D02*
X157350047Y-63699642D01*
X157350047Y-63699642D02*
X157373857Y-63699642D01*
X157373857Y-63699642D02*
X157421476Y-63723452D01*
X157421476Y-63723452D02*
X157445285Y-63747261D01*
X157445285Y-63747261D02*
X157469095Y-63794880D01*
X157469095Y-63794880D02*
X157469095Y-63890118D01*
X157469095Y-63890118D02*
X157492904Y-63937737D01*
X157492904Y-63937737D02*
X157516714Y-63961547D01*
X157516714Y-63961547D02*
X157564333Y-63985356D01*
X157564333Y-63985356D02*
X157659571Y-63985356D01*
X157659571Y-63985356D02*
X157707190Y-63961547D01*
X157707190Y-63961547D02*
X157731000Y-63937737D01*
X157731000Y-63937737D02*
X157754809Y-63890118D01*
X157754809Y-63890118D02*
X157754809Y-63794880D01*
X157754809Y-63794880D02*
X157731000Y-63747261D01*
X157731000Y-63747261D02*
X157707190Y-63723452D01*
X157707190Y-63723452D02*
X157659571Y-63699642D01*
X157659571Y-63699642D02*
X157564333Y-63699642D01*
X157564333Y-63699642D02*
X157516714Y-63723452D01*
X157516714Y-63723452D02*
X157492904Y-63747261D01*
X157492904Y-63747261D02*
X157469095Y-63794880D01*
X154304809Y-64075833D02*
X154066714Y-64242499D01*
X154304809Y-64361547D02*
X153804809Y-64361547D01*
X153804809Y-64361547D02*
X153804809Y-64171071D01*
X153804809Y-64171071D02*
X153828619Y-64123452D01*
X153828619Y-64123452D02*
X153852428Y-64099642D01*
X153852428Y-64099642D02*
X153900047Y-64075833D01*
X153900047Y-64075833D02*
X153971476Y-64075833D01*
X153971476Y-64075833D02*
X154019095Y-64099642D01*
X154019095Y-64099642D02*
X154042904Y-64123452D01*
X154042904Y-64123452D02*
X154066714Y-64171071D01*
X154066714Y-64171071D02*
X154066714Y-64361547D01*
X153804809Y-63623452D02*
X153804809Y-63861547D01*
X153804809Y-63861547D02*
X154042904Y-63885356D01*
X154042904Y-63885356D02*
X154019095Y-63861547D01*
X154019095Y-63861547D02*
X153995285Y-63813928D01*
X153995285Y-63813928D02*
X153995285Y-63694880D01*
X153995285Y-63694880D02*
X154019095Y-63647261D01*
X154019095Y-63647261D02*
X154042904Y-63623452D01*
X154042904Y-63623452D02*
X154090523Y-63599642D01*
X154090523Y-63599642D02*
X154209571Y-63599642D01*
X154209571Y-63599642D02*
X154257190Y-63623452D01*
X154257190Y-63623452D02*
X154281000Y-63647261D01*
X154281000Y-63647261D02*
X154304809Y-63694880D01*
X154304809Y-63694880D02*
X154304809Y-63813928D01*
X154304809Y-63813928D02*
X154281000Y-63861547D01*
X154281000Y-63861547D02*
X154257190Y-63885356D01*
D12*
G36*
X149500000Y-60200000D02*
G01*
X149100000Y-60200000D01*
X149500000Y-59800000D01*
X149500000Y-60200000D01*
G37*
D15*
X158315000Y-59961252D02*
X158315000Y-59438748D01*
X159785000Y-59961252D02*
X159785000Y-59438748D01*
X154715000Y-59961252D02*
X154715000Y-59438748D01*
X156185000Y-59961252D02*
X156185000Y-59438748D01*
D13*
X142250000Y-61150000D02*
X140050000Y-61150000D01*
X142625000Y-57750000D02*
X139675000Y-57750000D01*
D15*
X134180000Y-32420000D02*
X135510000Y-32420000D01*
X134180000Y-33750000D02*
X134180000Y-32420000D01*
X136780000Y-32420000D02*
X167320000Y-32420000D01*
X136780000Y-35080000D02*
X136780000Y-32420000D01*
X136780000Y-35080000D02*
X167320000Y-35080000D01*
X167320000Y-35080000D02*
X167320000Y-32420000D01*
X134180000Y-52740000D02*
X135510000Y-52740000D01*
X134180000Y-54070000D02*
X134180000Y-52740000D01*
X136780000Y-52740000D02*
X167320000Y-52740000D01*
X136780000Y-55400000D02*
X136780000Y-52740000D01*
X136780000Y-55400000D02*
X167320000Y-55400000D01*
X167320000Y-55400000D02*
X167320000Y-52740000D01*
X147675000Y-62835000D02*
X149625000Y-62835000D01*
X147675000Y-62835000D02*
X145725000Y-62835000D01*
X147675000Y-67955000D02*
X151125000Y-67955000D01*
X147675000Y-67955000D02*
X145725000Y-67955000D01*
X158315000Y-64339564D02*
X158315000Y-63885436D01*
X159785000Y-64339564D02*
X159785000Y-63885436D01*
X154715000Y-64339564D02*
X154715000Y-63885436D01*
X156185000Y-64339564D02*
X156185000Y-63885436D01*
%LPC*%
D16*
X149200000Y-59650000D03*
X149200000Y-59000000D03*
X149200000Y-58350000D03*
X147400000Y-58350000D03*
X147400000Y-59000000D03*
X147400000Y-59650000D03*
D17*
X159050000Y-60650000D03*
X159050000Y-58750000D03*
X155450000Y-60650000D03*
X155450000Y-58750000D03*
D18*
X139750000Y-58500000D03*
X139750000Y-59450000D03*
X139750000Y-60400000D03*
X142550000Y-60400000D03*
X142550000Y-59450000D03*
X142550000Y-58500000D03*
D19*
X135510000Y-33750000D03*
D20*
X138050000Y-33750000D03*
X140590000Y-33750000D03*
X143130000Y-33750000D03*
X145670000Y-33750000D03*
X148210000Y-33750000D03*
X150750000Y-33750000D03*
X153290000Y-33750000D03*
X155830000Y-33750000D03*
X158370000Y-33750000D03*
X160910000Y-33750000D03*
X163450000Y-33750000D03*
X165990000Y-33750000D03*
D19*
X135510000Y-54070000D03*
D20*
X138050000Y-54070000D03*
X140590000Y-54070000D03*
X143130000Y-54070000D03*
X145670000Y-54070000D03*
X148210000Y-54070000D03*
X150750000Y-54070000D03*
X153290000Y-54070000D03*
X155830000Y-54070000D03*
X158370000Y-54070000D03*
X160910000Y-54070000D03*
X163450000Y-54070000D03*
X165990000Y-54070000D03*
D21*
X150150000Y-67300000D03*
X150150000Y-66030000D03*
X150150000Y-64760000D03*
X150150000Y-63490000D03*
X145200000Y-63490000D03*
X145200000Y-64760000D03*
X145200000Y-66030000D03*
X145200000Y-67300000D03*
D22*
X159050000Y-65025000D03*
X159050000Y-63200000D03*
X155450000Y-65025000D03*
X155450000Y-63200000D03*
%LPD*%
M02*
