G04 #@! TF.GenerationSoftware,KiCad,Pcbnew,9.0.7*
G04 #@! TF.CreationDate,2026-01-10T22:48:38-06:00*
G04 #@! TF.ProjectId,moirePCB,6d6f6972-6550-4434-922e-6b696361645f,rev?*
G04 #@! TF.SameCoordinates,Original*
G04 #@! TF.FileFunction,Legend,Bot*
G04 #@! TF.FilePolarity,Positive*
%FSLAX46Y46*%
G04 Gerber Fmt 4.6, Leading zero omitted, Abs format (unit mm)*
G04 Created by KiCad (PCBNEW 9.0.7) date 2026-01-10 22:48:38*
%MOMM*%
%LPD*%
G01*
G04 APERTURE LIST*
%ADD10C,0.000000*%
%ADD11R,1.700000X1.700000*%
%ADD12C,1.700000*%
G04 APERTURE END LIST*
D10*
G36*
X155401373Y-124321766D02*
G01*
X155958280Y-124370549D01*
X156372662Y-124431868D01*
X156572511Y-124472172D01*
X156767455Y-124518836D01*
X156957481Y-124571802D01*
X157142591Y-124631024D01*
X157322778Y-124696456D01*
X157498023Y-124768043D01*
X157668333Y-124845735D01*
X157833694Y-124929477D01*
X157994097Y-125019223D01*
X158149538Y-125114918D01*
X158300009Y-125216522D01*
X158445498Y-125323968D01*
X158586005Y-125437218D01*
X158721518Y-125556210D01*
X158852034Y-125680902D01*
X158977540Y-125811246D01*
X159098032Y-125947179D01*
X159213501Y-126088654D01*
X159323944Y-126235631D01*
X159429353Y-126388049D01*
X159625024Y-126709006D01*
X159800472Y-127051129D01*
X159955628Y-127414003D01*
X160090436Y-127797228D01*
X160204834Y-128200392D01*
X160257177Y-128427586D01*
X160302656Y-128655210D01*
X160341397Y-128883241D01*
X160373508Y-129111655D01*
X160399107Y-129340415D01*
X160418310Y-129569496D01*
X160431236Y-129798870D01*
X160438000Y-130028502D01*
X160438714Y-130258364D01*
X160433502Y-130488429D01*
X160422480Y-130718670D01*
X160405753Y-130949061D01*
X160383451Y-131179567D01*
X160355678Y-131410159D01*
X160322560Y-131640805D01*
X160284215Y-131871483D01*
X160231424Y-132148223D01*
X160169800Y-132420367D01*
X160099340Y-132687979D01*
X160020041Y-132951105D01*
X159931907Y-133209822D01*
X159834935Y-133464177D01*
X159729127Y-133714232D01*
X159614482Y-133960043D01*
X159491004Y-134201662D01*
X159358683Y-134439156D01*
X159217530Y-134672579D01*
X159067539Y-134902000D01*
X158908711Y-135127459D01*
X158741049Y-135349026D01*
X158564546Y-135566752D01*
X158379213Y-135780705D01*
X158010665Y-136157388D01*
X157613985Y-136505931D01*
X157192191Y-136826104D01*
X156748299Y-137117677D01*
X156285342Y-137380410D01*
X155806342Y-137614079D01*
X155314319Y-137818448D01*
X154812296Y-137993282D01*
X154303300Y-138138350D01*
X153790339Y-138253420D01*
X153276457Y-138338263D01*
X152764671Y-138392635D01*
X152257993Y-138416315D01*
X151759455Y-138409069D01*
X151272083Y-138370663D01*
X150798898Y-138300862D01*
X150488002Y-138234109D01*
X150187884Y-138152882D01*
X149898646Y-138057125D01*
X149620362Y-137946775D01*
X149353126Y-137821769D01*
X149097020Y-137682058D01*
X148852142Y-137527579D01*
X148618565Y-137358282D01*
X148396380Y-137174099D01*
X148185682Y-136974969D01*
X147986554Y-136760846D01*
X147799082Y-136531666D01*
X147623349Y-136287364D01*
X147459452Y-136027893D01*
X147307466Y-135753192D01*
X147167490Y-135463201D01*
X147092798Y-135287353D01*
X147024789Y-135109387D01*
X146963173Y-134929033D01*
X146907662Y-134746039D01*
X146857973Y-134560129D01*
X146813794Y-134371056D01*
X146774857Y-134178557D01*
X146740857Y-133982361D01*
X146711507Y-133782212D01*
X146686517Y-133577849D01*
X146648456Y-133155438D01*
X146624347Y-132713025D01*
X146611874Y-132248516D01*
X146630473Y-132014420D01*
X146644398Y-131854427D01*
X150102193Y-131854427D01*
X150103895Y-131951453D01*
X150111381Y-132049496D01*
X150124739Y-132148522D01*
X150144050Y-132248513D01*
X150164968Y-132332241D01*
X150190410Y-132412341D01*
X150220268Y-132488891D01*
X150254433Y-132561981D01*
X150292788Y-132631702D01*
X150335209Y-132698138D01*
X150381580Y-132761375D01*
X150431790Y-132821503D01*
X150485720Y-132878604D01*
X150543256Y-132932773D01*
X150604280Y-132984093D01*
X150668675Y-133032651D01*
X150736326Y-133078538D01*
X150807112Y-133121838D01*
X150880930Y-133162631D01*
X150957650Y-133201014D01*
X151043500Y-133239885D01*
X151130085Y-133274770D01*
X151217647Y-133305880D01*
X151306467Y-133333409D01*
X151396793Y-133357570D01*
X151488900Y-133378558D01*
X151583033Y-133396590D01*
X151679467Y-133411855D01*
X151778458Y-133424562D01*
X151880269Y-133434912D01*
X152093395Y-133449365D01*
X152320941Y-133456848D01*
X152564992Y-133458982D01*
X152876216Y-133438171D01*
X153198137Y-133404103D01*
X153362381Y-133381445D01*
X153528423Y-133354683D01*
X153695982Y-133323569D01*
X153864756Y-133287831D01*
X154034465Y-133247208D01*
X154204813Y-133201439D01*
X154375511Y-133150265D01*
X154546264Y-133093423D01*
X154716787Y-133030652D01*
X154886786Y-132961689D01*
X155055967Y-132886270D01*
X155224045Y-132804140D01*
X155316355Y-132762042D01*
X155407210Y-132717589D01*
X155496562Y-132670758D01*
X155584334Y-132621513D01*
X155670483Y-132569826D01*
X155754947Y-132515667D01*
X155837662Y-132459007D01*
X155918581Y-132399822D01*
X155997634Y-132338075D01*
X156074771Y-132273744D01*
X156149930Y-132206792D01*
X156223057Y-132137201D01*
X156294085Y-132064934D01*
X156362972Y-131989961D01*
X156429643Y-131912260D01*
X156494052Y-131831792D01*
X156547763Y-131753197D01*
X156597263Y-131673662D01*
X156642516Y-131593204D01*
X156683494Y-131511816D01*
X156720173Y-131429496D01*
X156752524Y-131346244D01*
X156780509Y-131262061D01*
X156804109Y-131176950D01*
X156823286Y-131090911D01*
X156838017Y-131003940D01*
X156848277Y-130916039D01*
X156854027Y-130827208D01*
X156855242Y-130737444D01*
X156851895Y-130646752D01*
X156843953Y-130555130D01*
X156831395Y-130462577D01*
X156813972Y-130374913D01*
X156791554Y-130290536D01*
X156764249Y-130209466D01*
X156732175Y-130131745D01*
X156695452Y-130057397D01*
X156654196Y-129986445D01*
X156608521Y-129918923D01*
X156558542Y-129854862D01*
X156504379Y-129794288D01*
X156446150Y-129737233D01*
X156383959Y-129683727D01*
X156317938Y-129633793D01*
X156248197Y-129587459D01*
X156174844Y-129544766D01*
X156098007Y-129505734D01*
X156017796Y-129470387D01*
X155897845Y-129426789D01*
X155776261Y-129385744D01*
X155653285Y-129347958D01*
X155529147Y-129314124D01*
X155404071Y-129284937D01*
X155341261Y-129272305D01*
X155278309Y-129261103D01*
X155215235Y-129251410D01*
X155152076Y-129243311D01*
X155088859Y-129236905D01*
X155025610Y-129232267D01*
X154799347Y-129220877D01*
X154574475Y-129216491D01*
X154351001Y-129219142D01*
X154128922Y-129228855D01*
X153908239Y-129245659D01*
X153688946Y-129269591D01*
X153471058Y-129300668D01*
X153254553Y-129338925D01*
X153039453Y-129384390D01*
X152825747Y-129437099D01*
X152613435Y-129497073D01*
X152402515Y-129564339D01*
X152192993Y-129638931D01*
X151984866Y-129720880D01*
X151778135Y-129810206D01*
X151572802Y-129906954D01*
X151495145Y-129948585D01*
X151418501Y-129991676D01*
X151342972Y-130036277D01*
X151268628Y-130082444D01*
X151195573Y-130130240D01*
X151123874Y-130179724D01*
X151053632Y-130230952D01*
X150984929Y-130283984D01*
X150917853Y-130338873D01*
X150852496Y-130395681D01*
X150788942Y-130454463D01*
X150727275Y-130515289D01*
X150667581Y-130578195D01*
X150609954Y-130643263D01*
X150554476Y-130710538D01*
X150501240Y-130780075D01*
X150440329Y-130862622D01*
X150384158Y-130946539D01*
X150332806Y-131031791D01*
X150286373Y-131118352D01*
X150244933Y-131206192D01*
X150208583Y-131295280D01*
X150177409Y-131385588D01*
X150151497Y-131477088D01*
X150130932Y-131569750D01*
X150115797Y-131663550D01*
X150106194Y-131758451D01*
X150102193Y-131854427D01*
X146644398Y-131854427D01*
X146656515Y-131715211D01*
X146690004Y-131375081D01*
X146730934Y-131018203D01*
X146772102Y-130755671D01*
X146821236Y-130496492D01*
X146878397Y-130240737D01*
X146943630Y-129988503D01*
X147017012Y-129739868D01*
X147098584Y-129494929D01*
X147188408Y-129253766D01*
X147286558Y-129016464D01*
X147393071Y-128783123D01*
X147508012Y-128553822D01*
X147631447Y-128328645D01*
X147763422Y-128107685D01*
X147904009Y-127891026D01*
X148053254Y-127678758D01*
X148211218Y-127470961D01*
X148377962Y-127267732D01*
X148760460Y-126845612D01*
X149156209Y-126457128D01*
X149564984Y-126101948D01*
X149986547Y-125779770D01*
X150420668Y-125490249D01*
X150867112Y-125233095D01*
X151325655Y-125007963D01*
X151796054Y-124814548D01*
X152278074Y-124652530D01*
X152771497Y-124521581D01*
X153276070Y-124421395D01*
X153791588Y-124351633D01*
X154317793Y-124311991D01*
X154574477Y-124307280D01*
X154854469Y-124302144D01*
X155401373Y-124321766D01*
G37*
G36*
X160125468Y-148956943D02*
G01*
X160118245Y-148960660D01*
X160111435Y-148964350D01*
X160098796Y-148971514D01*
X160087092Y-148978223D01*
X160081443Y-148981326D01*
X160075852Y-148984231D01*
X160070263Y-148986900D01*
X160064615Y-148989303D01*
X160058851Y-148991428D01*
X160052908Y-148993225D01*
X160046736Y-148994671D01*
X160040275Y-148995745D01*
X160033462Y-148996407D01*
X160026242Y-148996634D01*
X159416054Y-149089338D01*
X158805860Y-149187626D01*
X157585467Y-149393506D01*
X155325756Y-149763092D01*
X154200555Y-149948818D01*
X153080936Y-150147565D01*
X152862128Y-150194297D01*
X152652278Y-150252601D01*
X152451496Y-150322410D01*
X152259898Y-150403672D01*
X152077604Y-150496340D01*
X151904725Y-150600334D01*
X151741382Y-150715607D01*
X151587689Y-150842096D01*
X151443765Y-150979756D01*
X151309722Y-151128515D01*
X151185683Y-151288324D01*
X151071755Y-151459118D01*
X150968060Y-151640840D01*
X150874713Y-151833435D01*
X150791826Y-152036844D01*
X150719524Y-152251005D01*
X150688994Y-152359125D01*
X150664099Y-152467658D01*
X150644445Y-152576539D01*
X150629612Y-152685705D01*
X150619194Y-152795110D01*
X150612789Y-152904683D01*
X150609991Y-153014377D01*
X150610380Y-153124128D01*
X150613577Y-153233882D01*
X150619144Y-153343570D01*
X150635809Y-153562553D01*
X150679841Y-153997258D01*
X150759214Y-154413975D01*
X150766426Y-154410256D01*
X150773209Y-154406572D01*
X150779573Y-154402942D01*
X150785563Y-154399398D01*
X150806339Y-154386690D01*
X150810878Y-154384016D01*
X150815215Y-154381604D01*
X150819376Y-154379490D01*
X150823390Y-154377690D01*
X150827291Y-154376243D01*
X150829205Y-154375662D01*
X150831109Y-154375175D01*
X150832983Y-154374782D01*
X150834860Y-154374504D01*
X150836720Y-154374342D01*
X150838579Y-154374285D01*
X151103910Y-154248687D01*
X151371498Y-154132278D01*
X151641296Y-154024945D01*
X151913249Y-153926555D01*
X151949830Y-153914603D01*
X152187295Y-153837010D01*
X152463369Y-153756180D01*
X152741427Y-153683950D01*
X153021402Y-153620221D01*
X153303238Y-153564855D01*
X153586874Y-153517743D01*
X153872254Y-153478774D01*
X154159312Y-153447832D01*
X154448008Y-153424785D01*
X154738275Y-153409536D01*
X155030045Y-153401959D01*
X155323273Y-153401938D01*
X155475353Y-153407303D01*
X155626475Y-153416008D01*
X155776602Y-153428144D01*
X155925719Y-153443801D01*
X156073784Y-153463058D01*
X156220780Y-153486007D01*
X156366666Y-153512734D01*
X156511420Y-153543327D01*
X156655007Y-153577873D01*
X156797408Y-153616465D01*
X156938587Y-153659184D01*
X157078515Y-153706109D01*
X157217162Y-153757342D01*
X157354508Y-153812963D01*
X157490512Y-153873065D01*
X157625146Y-153937726D01*
X157871459Y-154065593D01*
X158104538Y-154203520D01*
X158324657Y-154351329D01*
X158532073Y-154508848D01*
X158727045Y-154675904D01*
X158909840Y-154852315D01*
X159080720Y-155037913D01*
X159239934Y-155232526D01*
X159387764Y-155435977D01*
X159524456Y-155648079D01*
X159650280Y-155868677D01*
X159765486Y-156097590D01*
X159870349Y-156334638D01*
X159965125Y-156579656D01*
X160050081Y-156832458D01*
X160125462Y-157092880D01*
X160171530Y-157267983D01*
X160213057Y-157443513D01*
X160250165Y-157619461D01*
X160282976Y-157795779D01*
X160311596Y-157972453D01*
X160336144Y-158149442D01*
X160356745Y-158326721D01*
X160373510Y-158504258D01*
X160395989Y-158860012D01*
X160404518Y-159216467D01*
X160400019Y-159573383D01*
X160383434Y-159930533D01*
X160355409Y-160293337D01*
X160315529Y-160652662D01*
X160263089Y-161008721D01*
X160197393Y-161361765D01*
X160117748Y-161712017D01*
X160072474Y-161886164D01*
X160023450Y-162059706D01*
X159970589Y-162232669D01*
X159913806Y-162405070D01*
X159853012Y-162576958D01*
X159788118Y-162748342D01*
X159648334Y-163077591D01*
X159496779Y-163395479D01*
X159333306Y-163701792D01*
X159157772Y-163996330D01*
X158970025Y-164278896D01*
X158769925Y-164549283D01*
X158557325Y-164807288D01*
X158332088Y-165052701D01*
X158094054Y-165285326D01*
X157843088Y-165504960D01*
X157579035Y-165711395D01*
X157301763Y-165904429D01*
X157011112Y-166083865D01*
X156706954Y-166249487D01*
X156389134Y-166401106D01*
X156057498Y-166538499D01*
X155819367Y-166617881D01*
X155819366Y-162311789D01*
X155819542Y-162306151D01*
X155820047Y-162300415D01*
X155820868Y-162294586D01*
X155822002Y-162288692D01*
X155823423Y-162282734D01*
X155825123Y-162276736D01*
X155827081Y-162270707D01*
X155829289Y-162264659D01*
X155831733Y-162258617D01*
X155834386Y-162252589D01*
X155840297Y-162240634D01*
X155846902Y-162228908D01*
X155854089Y-162217532D01*
X155861749Y-162206622D01*
X155869754Y-162196290D01*
X155877988Y-162186664D01*
X155886341Y-162177844D01*
X155894697Y-162169958D01*
X155902929Y-162163117D01*
X155906964Y-162160128D01*
X155910933Y-162157442D01*
X155914812Y-162155073D01*
X155918588Y-162153043D01*
X155970208Y-162119085D01*
X156020831Y-162084173D01*
X156070407Y-162048263D01*
X156118886Y-162011344D01*
X156166201Y-161973375D01*
X156212293Y-161934331D01*
X156257100Y-161894185D01*
X156300582Y-161852907D01*
X156342659Y-161810464D01*
X156383286Y-161766824D01*
X156422402Y-161721971D01*
X156459949Y-161675862D01*
X156495868Y-161628474D01*
X156530102Y-161579784D01*
X156562587Y-161529753D01*
X156593278Y-161478355D01*
X156671187Y-161347440D01*
X156741252Y-161215192D01*
X156803525Y-161081661D01*
X156858065Y-160946916D01*
X156904934Y-160811002D01*
X156944183Y-160673989D01*
X156975881Y-160535922D01*
X157000072Y-160396871D01*
X157016827Y-160256885D01*
X157026189Y-160116034D01*
X157028238Y-159974366D01*
X157023019Y-159831940D01*
X157010588Y-159688823D01*
X156991003Y-159545063D01*
X156964326Y-159400722D01*
X156930619Y-159255856D01*
X156901342Y-159146566D01*
X156865698Y-159041994D01*
X156823837Y-158942180D01*
X156775907Y-158847195D01*
X156722031Y-158757095D01*
X156662379Y-158671935D01*
X156597091Y-158591778D01*
X156526309Y-158516674D01*
X156450170Y-158446687D01*
X156368836Y-158381873D01*
X156282438Y-158322293D01*
X156191133Y-158268006D01*
X156095056Y-158219066D01*
X155994364Y-158175531D01*
X155889190Y-158137467D01*
X155779684Y-158104920D01*
X155716434Y-158090960D01*
X155653182Y-158078832D01*
X155589925Y-158068513D01*
X155526677Y-158059965D01*
X155463423Y-158053158D01*
X155400174Y-158048065D01*
X155336923Y-158044657D01*
X155273664Y-158042911D01*
X155210420Y-158042784D01*
X155147164Y-158044266D01*
X155083914Y-158047312D01*
X155020660Y-158051900D01*
X154957406Y-158058001D01*
X154894156Y-158065578D01*
X154830902Y-158074616D01*
X154767649Y-158085075D01*
X154742755Y-158092539D01*
X154720096Y-158100152D01*
X154699590Y-158108051D01*
X154681145Y-158116388D01*
X154672671Y-158120764D01*
X154664677Y-158125308D01*
X154657161Y-158130031D01*
X154650106Y-158134955D01*
X154643493Y-158140093D01*
X154637329Y-158145473D01*
X154631587Y-158151101D01*
X154626266Y-158157004D01*
X154621350Y-158163200D01*
X154616832Y-158169706D01*
X154612704Y-158176533D01*
X154608941Y-158183708D01*
X154605546Y-158191250D01*
X154602503Y-158199172D01*
X154599802Y-158207493D01*
X154597428Y-158216229D01*
X154595384Y-158225403D01*
X154593636Y-158235028D01*
X154591041Y-158255722D01*
X154589542Y-158278446D01*
X154589059Y-158303359D01*
X154589058Y-166836171D01*
X154447476Y-166857603D01*
X154304731Y-166877409D01*
X154011106Y-166913063D01*
X153698881Y-166944999D01*
X153358753Y-166975076D01*
X152986676Y-167034452D01*
X152800643Y-167058268D01*
X152614610Y-167078017D01*
X152428574Y-167093573D01*
X152242537Y-167104839D01*
X152056503Y-167111676D01*
X151870466Y-167113977D01*
X151684433Y-167111638D01*
X151498396Y-167104526D01*
X151312362Y-167092531D01*
X151126330Y-167075533D01*
X150940295Y-167053420D01*
X150754257Y-167026077D01*
X150568225Y-166993383D01*
X150382189Y-166955227D01*
X150064559Y-166873363D01*
X149759200Y-166776564D01*
X149466284Y-166664752D01*
X149185977Y-166537892D01*
X148918469Y-166395913D01*
X148663918Y-166238763D01*
X148422508Y-166066384D01*
X148194413Y-165878711D01*
X147979803Y-165675692D01*
X147778855Y-165457261D01*
X147591743Y-165223371D01*
X147418643Y-164973958D01*
X147259733Y-164708964D01*
X147115175Y-164428330D01*
X146985156Y-164132000D01*
X146869843Y-163819921D01*
X146792823Y-163581339D01*
X146725315Y-163341886D01*
X146667045Y-163101618D01*
X146617768Y-162860598D01*
X146577202Y-162618878D01*
X146545094Y-162376521D01*
X146521181Y-162133582D01*
X146505214Y-161890113D01*
X146496909Y-161646186D01*
X146496023Y-161401851D01*
X146502285Y-161157165D01*
X146503165Y-161140794D01*
X150005549Y-161140794D01*
X150007862Y-161238252D01*
X150014254Y-161335074D01*
X150024994Y-161431229D01*
X150040388Y-161526683D01*
X150060725Y-161621413D01*
X150086299Y-161715381D01*
X150117392Y-161808569D01*
X150154297Y-161900939D01*
X150197307Y-161992472D01*
X150246713Y-162083126D01*
X150302805Y-162172889D01*
X150370355Y-162266788D01*
X150446015Y-162354816D01*
X150529055Y-162436681D01*
X150618754Y-162512089D01*
X150714386Y-162580756D01*
X150815217Y-162642393D01*
X150920527Y-162696698D01*
X151029588Y-162743392D01*
X151141664Y-162782182D01*
X151256041Y-162812768D01*
X151371990Y-162834872D01*
X151488779Y-162848193D01*
X151605685Y-162852451D01*
X151721982Y-162847341D01*
X151836941Y-162832584D01*
X151949834Y-162807887D01*
X151949836Y-158640701D01*
X151860962Y-158659405D01*
X151773002Y-158681958D01*
X151686050Y-158708258D01*
X151600207Y-158738217D01*
X151515571Y-158771712D01*
X151432239Y-158808656D01*
X151269878Y-158892467D01*
X151113910Y-158988837D01*
X150965128Y-159096949D01*
X150824309Y-159215989D01*
X150692240Y-159345155D01*
X150569700Y-159483611D01*
X150457485Y-159630562D01*
X150356373Y-159785186D01*
X150267148Y-159946663D01*
X150190598Y-160114193D01*
X150157320Y-160199972D01*
X150127505Y-160286954D01*
X150101254Y-160375045D01*
X150078655Y-160464134D01*
X150059822Y-160554125D01*
X150044840Y-160644917D01*
X150031172Y-160745140D01*
X150020115Y-160844865D01*
X150011967Y-160944071D01*
X150007011Y-161042725D01*
X150005549Y-161140794D01*
X146503165Y-161140794D01*
X146515446Y-160912192D01*
X146535222Y-160666984D01*
X146561370Y-160421603D01*
X146593622Y-160176100D01*
X146631715Y-159930548D01*
X146706813Y-159548479D01*
X146798101Y-159176173D01*
X146905490Y-158813637D01*
X147028905Y-158460868D01*
X147168239Y-158117862D01*
X147323418Y-157784630D01*
X147494355Y-157461162D01*
X147680955Y-157147460D01*
X147883139Y-156843523D01*
X148100817Y-156549357D01*
X148333894Y-156264957D01*
X148582294Y-155990321D01*
X148845929Y-155725454D01*
X149124701Y-155470348D01*
X149418533Y-155225019D01*
X149727340Y-154989458D01*
X149734564Y-154985722D01*
X149741406Y-154981932D01*
X149747962Y-154978028D01*
X149754317Y-154973951D01*
X149760550Y-154969637D01*
X149766760Y-154965033D01*
X149773016Y-154960085D01*
X149779431Y-154954728D01*
X149786071Y-154948899D01*
X149793033Y-154942557D01*
X149808269Y-154928059D01*
X149825826Y-154910777D01*
X149846407Y-154890234D01*
X146651558Y-155426012D01*
X146634196Y-155284629D01*
X146613109Y-155143245D01*
X146567223Y-154860468D01*
X146546135Y-154719083D01*
X146528776Y-154577693D01*
X146522066Y-154507003D01*
X146516988Y-154436308D01*
X146513775Y-154365614D01*
X146512647Y-154294923D01*
X146514258Y-154092828D01*
X146526446Y-153895759D01*
X146549100Y-153703636D01*
X146582105Y-153516366D01*
X146625340Y-153333859D01*
X146678692Y-153156037D01*
X146742040Y-152982808D01*
X146815268Y-152814083D01*
X146898267Y-152649772D01*
X146990915Y-152489801D01*
X147093099Y-152334070D01*
X147204699Y-152182487D01*
X147325609Y-152034991D01*
X147455692Y-151891467D01*
X147594849Y-151751835D01*
X147742963Y-151616011D01*
X147821560Y-151550194D01*
X147901093Y-151486604D01*
X147981555Y-151425166D01*
X148062942Y-151365802D01*
X148145267Y-151308399D01*
X148228515Y-151252895D01*
X148312699Y-151199193D01*
X148397807Y-151147207D01*
X148570818Y-151048027D01*
X148747554Y-150954659D01*
X148928009Y-150866408D01*
X149112178Y-150782575D01*
X149123762Y-150775341D01*
X149135979Y-150768392D01*
X149161170Y-150754677D01*
X149173565Y-150747550D01*
X149185435Y-150740023D01*
X149196490Y-150731916D01*
X149201622Y-150727586D01*
X149206441Y-150723049D01*
X149210906Y-150718274D01*
X149214993Y-150713254D01*
X149218659Y-150707951D01*
X149221867Y-150702350D01*
X149224578Y-150696434D01*
X149226759Y-150690172D01*
X149228374Y-150683548D01*
X149229384Y-150676542D01*
X149229758Y-150669120D01*
X149229454Y-150661280D01*
X149228436Y-150652984D01*
X149226671Y-150644220D01*
X149224119Y-150634950D01*
X149220753Y-150625178D01*
X149216529Y-150614860D01*
X149211399Y-150603981D01*
X146691247Y-151020705D01*
X146691245Y-146793987D01*
X146681322Y-146553379D01*
X146681827Y-146524914D01*
X146683493Y-146497294D01*
X146686555Y-146470661D01*
X146691246Y-146445171D01*
X146694270Y-146432887D01*
X146697797Y-146420950D01*
X146701837Y-146409362D01*
X146706441Y-146398154D01*
X146711620Y-146387335D01*
X146717411Y-146376927D01*
X146723840Y-146366948D01*
X146730937Y-146357420D01*
X146736914Y-146348462D01*
X146743671Y-146340173D01*
X146751178Y-146332525D01*
X146759379Y-146325486D01*
X146768250Y-146319028D01*
X146777756Y-146313121D01*
X146787863Y-146307741D01*
X146798527Y-146302852D01*
X146821379Y-146294443D01*
X146846040Y-146287660D01*
X146872212Y-146282274D01*
X146899602Y-146278050D01*
X147127812Y-146258205D01*
X149806713Y-145821638D01*
X152485621Y-145385072D01*
X157843431Y-144511942D01*
X160125468Y-144134913D01*
X160125468Y-148956943D01*
G37*
G36*
X145221175Y-111611016D02*
G01*
X144865619Y-111611012D01*
X144865617Y-111520372D01*
X145221175Y-111611016D01*
G37*
G36*
X160145043Y-101982304D02*
G01*
X160156299Y-101982939D01*
X160167029Y-101984002D01*
X160177231Y-101985505D01*
X160186918Y-101987454D01*
X160196101Y-101989853D01*
X160204776Y-101992724D01*
X160212961Y-101996079D01*
X160220660Y-101999921D01*
X160227876Y-102004264D01*
X160234619Y-102009124D01*
X160240902Y-102014496D01*
X160246726Y-102020412D01*
X160252097Y-102026872D01*
X160257023Y-102033886D01*
X160261517Y-102041468D01*
X160265577Y-102049626D01*
X160269219Y-102058375D01*
X160272446Y-102067716D01*
X160275264Y-102077680D01*
X160277689Y-102088257D01*
X160279720Y-102099467D01*
X160281364Y-102111322D01*
X160282631Y-102123832D01*
X160283524Y-102137005D01*
X160284230Y-102165390D01*
X160284232Y-106729451D01*
X160224737Y-106737744D01*
X160165478Y-106747434D01*
X160048591Y-106769143D01*
X159935418Y-106790846D01*
X159880813Y-106800534D01*
X159827824Y-106808830D01*
X159823887Y-106801177D01*
X159819532Y-106793171D01*
X159814833Y-106784935D01*
X159809845Y-106776582D01*
X159804622Y-106768228D01*
X159799224Y-106759992D01*
X159793710Y-106751991D01*
X159788140Y-106744334D01*
X159782567Y-106737143D01*
X159777057Y-106730539D01*
X159771657Y-106724623D01*
X159769020Y-106721973D01*
X159766436Y-106719529D01*
X159763907Y-106717323D01*
X159761447Y-106715366D01*
X159759056Y-106713664D01*
X159756742Y-106712247D01*
X159754522Y-106711112D01*
X159752397Y-106710288D01*
X159750368Y-106709779D01*
X159748452Y-106709606D01*
X159093608Y-106709614D01*
X159087060Y-106745077D01*
X159082135Y-106777510D01*
X159078612Y-106807628D01*
X159076243Y-106836114D01*
X159074808Y-106863673D01*
X159074074Y-106890994D01*
X159073761Y-106947737D01*
X158565268Y-107037032D01*
X158041884Y-107126326D01*
X158041885Y-106729453D01*
X157307667Y-106729451D01*
X157307670Y-107285078D01*
X157088375Y-107310263D01*
X156869516Y-107340539D01*
X156432992Y-107412511D01*
X156216247Y-107453109D01*
X156216241Y-107483521D01*
X156053900Y-107483516D01*
X155563897Y-107575295D01*
X155130860Y-107650754D01*
X154698521Y-107712031D01*
X154482544Y-107734949D01*
X154266649Y-107751447D01*
X154050814Y-107760554D01*
X153835010Y-107761330D01*
X153829538Y-107766906D01*
X153824298Y-107772474D01*
X153819261Y-107778025D01*
X153814431Y-107783531D01*
X153805312Y-107794422D01*
X153796871Y-107805047D01*
X153768035Y-107843178D01*
X153761626Y-107851190D01*
X153755368Y-107858416D01*
X153752260Y-107861703D01*
X153749159Y-107864768D01*
X153746056Y-107867588D01*
X153742921Y-107870159D01*
X153739768Y-107872464D01*
X153736576Y-107874504D01*
X153733332Y-107876255D01*
X153730017Y-107877715D01*
X153726638Y-107878866D01*
X153723169Y-107879709D01*
X153719615Y-107880214D01*
X153715947Y-107880393D01*
X152723762Y-108058985D01*
X152717209Y-108022628D01*
X152712288Y-107987669D01*
X152708757Y-107953640D01*
X152706398Y-107920075D01*
X152704959Y-107886517D01*
X152704225Y-107852484D01*
X152703912Y-107781175D01*
X151989540Y-107781171D01*
X151989541Y-108178044D01*
X150917981Y-108356638D01*
X150917980Y-107781173D01*
X150223450Y-107781175D01*
X150223444Y-108475701D01*
X150178800Y-108476017D01*
X150156474Y-108476749D01*
X150134148Y-108478184D01*
X150122989Y-108479232D01*
X150111829Y-108480550D01*
X150100662Y-108482153D01*
X150089503Y-108484078D01*
X150078337Y-108486344D01*
X150067174Y-108488997D01*
X150056012Y-108492052D01*
X150044852Y-108495548D01*
X150029115Y-108503876D01*
X150011989Y-108513838D01*
X149993924Y-108525199D01*
X149975398Y-108537718D01*
X149966109Y-108544338D01*
X149956874Y-108551166D01*
X149947754Y-108558164D01*
X149938816Y-108565311D01*
X149930101Y-108572571D01*
X149921679Y-108579926D01*
X149913609Y-108587331D01*
X149905943Y-108594769D01*
X149920831Y-108609608D01*
X149935709Y-108624221D01*
X149950594Y-108638370D01*
X149965479Y-108651814D01*
X149972919Y-108658206D01*
X149980361Y-108664334D01*
X149987801Y-108670174D01*
X149995236Y-108675690D01*
X150002686Y-108680859D01*
X150010120Y-108685650D01*
X150017566Y-108690039D01*
X150025008Y-108693984D01*
X150183740Y-108728828D01*
X150838602Y-108872578D01*
X150838599Y-108892423D01*
X150223444Y-108892416D01*
X150223446Y-109428201D01*
X150937817Y-109428206D01*
X150937823Y-108892419D01*
X151969677Y-109121724D01*
X152009384Y-109130543D01*
X152009382Y-109428201D01*
X152703912Y-109428205D01*
X152704138Y-109420755D01*
X152704771Y-109413282D01*
X152705747Y-109405748D01*
X152707015Y-109398124D01*
X152710190Y-109382503D01*
X152713834Y-109366191D01*
X152717479Y-109348942D01*
X152719152Y-109339900D01*
X152720660Y-109330533D01*
X152721927Y-109320819D01*
X152722906Y-109310734D01*
X152723536Y-109300230D01*
X152723756Y-109289296D01*
X153735774Y-109508460D01*
X155521712Y-109895225D01*
X155839229Y-109963984D01*
X155839229Y-110003669D01*
X155581261Y-110003668D01*
X155581263Y-110479923D01*
X156275795Y-110479918D01*
X156275796Y-110083048D01*
X156799178Y-110202109D01*
X157267961Y-110311872D01*
X157307672Y-110321168D01*
X157311166Y-110332333D01*
X157314222Y-110343493D01*
X157316871Y-110354658D01*
X157319148Y-110365819D01*
X157321070Y-110376985D01*
X157322673Y-110388144D01*
X157323986Y-110399306D01*
X157325037Y-110410465D01*
X157326471Y-110432794D01*
X157327205Y-110455118D01*
X157327518Y-110499763D01*
X157605331Y-110499764D01*
X157642760Y-110502823D01*
X157680596Y-110504685D01*
X157757256Y-110505654D01*
X157912909Y-110502243D01*
X157990965Y-110501120D01*
X158029844Y-110501419D01*
X158068559Y-110502558D01*
X158107036Y-110504737D01*
X158145216Y-110508174D01*
X158183056Y-110513062D01*
X158220489Y-110519608D01*
X158670073Y-110612318D01*
X159053900Y-110695544D01*
X159123382Y-110710605D01*
X159576684Y-110812613D01*
X160026270Y-110916483D01*
X160040909Y-110920450D01*
X160055028Y-110924968D01*
X160068563Y-110930130D01*
X160081464Y-110936018D01*
X160093664Y-110942718D01*
X160105104Y-110950319D01*
X160110525Y-110954483D01*
X160115732Y-110958908D01*
X160120727Y-110963597D01*
X160125492Y-110968573D01*
X160130031Y-110973838D01*
X160134318Y-110979402D01*
X160138362Y-110985275D01*
X160142155Y-110991478D01*
X160145685Y-110998012D01*
X160148945Y-111004893D01*
X160151936Y-111012128D01*
X160154637Y-111019730D01*
X160157048Y-111027715D01*
X160159161Y-111036083D01*
X160160967Y-111044853D01*
X160162463Y-111054032D01*
X160163640Y-111063637D01*
X160164489Y-111073667D01*
X160165002Y-111084148D01*
X160165178Y-111095078D01*
X160165178Y-113694607D01*
X160165061Y-113703734D01*
X160164708Y-113712527D01*
X160164128Y-113720994D01*
X160163313Y-113729139D01*
X160162267Y-113736986D01*
X160160994Y-113744531D01*
X160159479Y-113751798D01*
X160157735Y-113758789D01*
X160155756Y-113765525D01*
X160153550Y-113772004D01*
X160151108Y-113778243D01*
X160148431Y-113784253D01*
X160145527Y-113790046D01*
X160142387Y-113795635D01*
X160139018Y-113801025D01*
X160135413Y-113806231D01*
X160131574Y-113811260D01*
X160127505Y-113816126D01*
X160123202Y-113820840D01*
X160118666Y-113825414D01*
X160113899Y-113829859D01*
X160108901Y-113834178D01*
X160098204Y-113842506D01*
X160086572Y-113850482D01*
X160074017Y-113858199D01*
X160060532Y-113865744D01*
X160046111Y-113873202D01*
X159941934Y-113918164D01*
X159889843Y-113941220D01*
X159837753Y-113964981D01*
X159785663Y-113989669D01*
X159733572Y-114015516D01*
X159681482Y-114042764D01*
X159629391Y-114071638D01*
X158875335Y-114528047D01*
X157704554Y-115143204D01*
X157168770Y-115480544D01*
X156844446Y-115644569D01*
X156523847Y-115810452D01*
X156203250Y-115980055D01*
X155878929Y-116155235D01*
X155834734Y-116178008D01*
X155791379Y-116201588D01*
X155748775Y-116225865D01*
X155706851Y-116250731D01*
X155624642Y-116301732D01*
X155544065Y-116353671D01*
X155385002Y-116456611D01*
X155305123Y-116505755D01*
X155264797Y-116529338D01*
X155224084Y-116552108D01*
X154152523Y-117107733D01*
X154018272Y-117197028D01*
X153882156Y-117286323D01*
X153742317Y-117375623D01*
X153670425Y-117420270D01*
X153596901Y-117464921D01*
X153414898Y-117569099D01*
X153227316Y-117673282D01*
X152842840Y-117881641D01*
X152812766Y-117896524D01*
X152797143Y-117903967D01*
X152780824Y-117911408D01*
X152763579Y-117918848D01*
X152745172Y-117926286D01*
X152725366Y-117933730D01*
X152703930Y-117941177D01*
X152703928Y-117663361D01*
X152009403Y-117663362D01*
X152009399Y-117961022D01*
X152584868Y-117961020D01*
X152370810Y-118092368D01*
X152159782Y-118219298D01*
X151743986Y-118464553D01*
X151331919Y-118706088D01*
X150917996Y-118953204D01*
X150914500Y-118934835D01*
X150911446Y-118916927D01*
X150908796Y-118899486D01*
X150906525Y-118882513D01*
X150902998Y-118849956D01*
X150900634Y-118819263D01*
X150899197Y-118790428D01*
X150898457Y-118763451D01*
X150898153Y-118715083D01*
X150203620Y-118715083D01*
X150203619Y-119072273D01*
X150560803Y-119072266D01*
X150534990Y-119090197D01*
X150509645Y-119106880D01*
X150484763Y-119122456D01*
X150460347Y-119137071D01*
X150412907Y-119164008D01*
X150367327Y-119188854D01*
X150323607Y-119212766D01*
X150281755Y-119236911D01*
X150261526Y-119249437D01*
X150241757Y-119262450D01*
X150222456Y-119276109D01*
X150203620Y-119290550D01*
X149945654Y-119528675D01*
X149985344Y-119568359D01*
X150124248Y-119568364D01*
X150183743Y-119558891D01*
X151791118Y-119302955D01*
X151949835Y-119278571D01*
X151969679Y-119275515D01*
X152624558Y-119174902D01*
X152782870Y-119151638D01*
X155521711Y-119151638D01*
X156216248Y-119151640D01*
X156216243Y-118794453D01*
X157267960Y-118794453D01*
X157267962Y-119151643D01*
X157267968Y-119151639D01*
X158002175Y-119151637D01*
X158002175Y-119131792D01*
X159053902Y-119131792D01*
X159748436Y-119131795D01*
X159748432Y-118774607D01*
X159053906Y-118774610D01*
X159053902Y-119131792D01*
X158002175Y-119131792D01*
X158002177Y-118794454D01*
X157267960Y-118794453D01*
X156216243Y-118794453D01*
X156216243Y-118794451D01*
X155521716Y-118794451D01*
X155521711Y-119151638D01*
X152782870Y-119151638D01*
X153457995Y-119052428D01*
X153629146Y-119047463D01*
X153650671Y-119047716D01*
X153672513Y-119048554D01*
X153694767Y-119050080D01*
X153717511Y-119052428D01*
X153735779Y-119054987D01*
X153740839Y-119055698D01*
X153764836Y-119060024D01*
X153789590Y-119065509D01*
X153815179Y-119072271D01*
X153852838Y-119082305D01*
X153891343Y-119090218D01*
X153930596Y-119096209D01*
X153970520Y-119100485D01*
X154011026Y-119103253D01*
X154052028Y-119104705D01*
X154135161Y-119104516D01*
X154219227Y-119101531D01*
X154303522Y-119097388D01*
X154387352Y-119093701D01*
X154470023Y-119092113D01*
X154430339Y-119052429D01*
X154437564Y-119041052D01*
X154444405Y-119029332D01*
X154450955Y-119017376D01*
X154457312Y-119005300D01*
X154469750Y-118981272D01*
X154476016Y-118969546D01*
X154482429Y-118958174D01*
X154489064Y-118947260D01*
X154496033Y-118936930D01*
X154499657Y-118932024D01*
X154503400Y-118927297D01*
X154507267Y-118922778D01*
X154511265Y-118918481D01*
X154515403Y-118914415D01*
X154519704Y-118910593D01*
X154524178Y-118907037D01*
X154528820Y-118903753D01*
X154533653Y-118900764D01*
X154538690Y-118898078D01*
X154543936Y-118895709D01*
X154549398Y-118893679D01*
X154654473Y-118864805D01*
X154761166Y-118837555D01*
X154869260Y-118811705D01*
X154978516Y-118787020D01*
X155199584Y-118740196D01*
X155422523Y-118695238D01*
X155521713Y-118677989D01*
X156335338Y-118536491D01*
X157267963Y-118374813D01*
X157694637Y-118300842D01*
X158372423Y-118187675D01*
X159053906Y-118080087D01*
X159053928Y-118080078D01*
X160244560Y-117921332D01*
X160244554Y-122644145D01*
X158022054Y-123021175D01*
X158018559Y-123009786D01*
X158015500Y-122997998D01*
X158012855Y-122985854D01*
X158010578Y-122973427D01*
X158008659Y-122960760D01*
X158007058Y-122947922D01*
X158004694Y-122921958D01*
X158003255Y-122895991D01*
X158002518Y-122870487D01*
X158002207Y-122822738D01*
X157267988Y-122822736D01*
X157267988Y-123160078D01*
X156759490Y-123249373D01*
X156236113Y-123338672D01*
X156236110Y-122842582D01*
X155521740Y-122842578D01*
X155521738Y-123477578D01*
X154331108Y-123656173D01*
X153577046Y-123777715D01*
X153198154Y-123843137D01*
X152822986Y-123914136D01*
X152759733Y-123927480D01*
X152696483Y-123938049D01*
X152633225Y-123946361D01*
X152569971Y-123952899D01*
X152316970Y-123971197D01*
X152190461Y-123982551D01*
X152127219Y-123990505D01*
X152063959Y-124000650D01*
X152000707Y-124013466D01*
X151937460Y-124029447D01*
X151874203Y-124049089D01*
X151810957Y-124072893D01*
X151758410Y-124093864D01*
X151704987Y-124112274D01*
X151650761Y-124128354D01*
X151595770Y-124142344D01*
X151540087Y-124154477D01*
X151483762Y-124164979D01*
X151369425Y-124182030D01*
X150898137Y-124231640D01*
X150878296Y-123993517D01*
X150183760Y-123993519D01*
X150180698Y-124019766D01*
X150178803Y-124046304D01*
X150177828Y-124072961D01*
X150177560Y-124099558D01*
X150178796Y-124201875D01*
X150178531Y-124225565D01*
X150177557Y-124248151D01*
X150175657Y-124269463D01*
X150172595Y-124289313D01*
X150170559Y-124298642D01*
X150168141Y-124307543D01*
X150165315Y-124315987D01*
X150162053Y-124323963D01*
X150158328Y-124331443D01*
X150154109Y-124338412D01*
X150149368Y-124344835D01*
X150144074Y-124350704D01*
X150138205Y-124357858D01*
X150131783Y-124364456D01*
X150124828Y-124370531D01*
X150117364Y-124376091D01*
X150109431Y-124381175D01*
X150101037Y-124385805D01*
X150082991Y-124393803D01*
X150063430Y-124400290D01*
X150042565Y-124405469D01*
X150020595Y-124409540D01*
X149997725Y-124412718D01*
X149950094Y-124417171D01*
X149901297Y-124420465D01*
X149852964Y-124424229D01*
X149829480Y-124426787D01*
X149806726Y-124430077D01*
X149786877Y-124430081D01*
X149619757Y-124459847D01*
X149447058Y-124489614D01*
X149092345Y-124549142D01*
X149092352Y-123993514D01*
X148397816Y-123993517D01*
X148397820Y-124529298D01*
X148933604Y-124529299D01*
X148850892Y-124550728D01*
X148766789Y-124570532D01*
X148681758Y-124588946D01*
X148596259Y-124606191D01*
X148425728Y-124638129D01*
X148258914Y-124668206D01*
X146056260Y-125025392D01*
X145996726Y-125033643D01*
X145937196Y-125043070D01*
X145818137Y-125062600D01*
X145758603Y-125071319D01*
X145699071Y-125078413D01*
X145669305Y-125081132D01*
X145639541Y-125083180D01*
X145609775Y-125084475D01*
X145580008Y-125084923D01*
X145484165Y-125084032D01*
X145389942Y-125081511D01*
X145297116Y-125077602D01*
X145205455Y-125072524D01*
X145024694Y-125059813D01*
X144845786Y-125045239D01*
X144845569Y-125059665D01*
X144844936Y-125073257D01*
X144843959Y-125086090D01*
X144842688Y-125098252D01*
X144841192Y-125109838D01*
X144839509Y-125120927D01*
X144835865Y-125141975D01*
X144832223Y-125162089D01*
X144829046Y-125181970D01*
X144827779Y-125192046D01*
X144826799Y-125202321D01*
X144826163Y-125212886D01*
X144825941Y-125223831D01*
X144297605Y-125313126D01*
X144030639Y-125357778D01*
X143754379Y-125402419D01*
X143754385Y-125065078D01*
X143059853Y-125065075D01*
X143059854Y-125521486D01*
X142964042Y-125535516D01*
X142870092Y-125548150D01*
X142687783Y-125571096D01*
X142512911Y-125594042D01*
X142428263Y-125606678D01*
X142345479Y-125620706D01*
X142349414Y-125606049D01*
X142353732Y-125591833D01*
X142358338Y-125578021D01*
X142363148Y-125564583D01*
X142382683Y-125514048D01*
X142391400Y-125490286D01*
X142395191Y-125478684D01*
X142398492Y-125467228D01*
X142401207Y-125455886D01*
X142403257Y-125444634D01*
X142404554Y-125433433D01*
X142405003Y-125422268D01*
X142405004Y-125144457D01*
X142404964Y-125135350D01*
X142404694Y-125123682D01*
X142404400Y-125117257D01*
X142403962Y-125110620D01*
X142403345Y-125103933D01*
X142402525Y-125097330D01*
X142401473Y-125090958D01*
X142400162Y-125084966D01*
X142398561Y-125079495D01*
X142397635Y-125077001D01*
X142396631Y-125074696D01*
X142395540Y-125072592D01*
X142394360Y-125070706D01*
X142393086Y-125069062D01*
X142391710Y-125067680D01*
X142390234Y-125066571D01*
X142388658Y-125065757D01*
X142386962Y-125065257D01*
X142385158Y-125065083D01*
X142372823Y-125061132D01*
X142361816Y-125056739D01*
X142352079Y-125051926D01*
X142343540Y-125046708D01*
X142336129Y-125041118D01*
X142329789Y-125035172D01*
X142324451Y-125028890D01*
X142320051Y-125022290D01*
X142316524Y-125015411D01*
X142313801Y-125008254D01*
X142311823Y-125000850D01*
X142310518Y-124993225D01*
X142309822Y-124985395D01*
X142309673Y-124977384D01*
X142310007Y-124969215D01*
X142310748Y-124960904D01*
X142313217Y-124943954D01*
X142316567Y-124926719D01*
X142323773Y-124892073D01*
X142326588Y-124875004D01*
X142328183Y-124858354D01*
X142328368Y-124850229D01*
X142328041Y-124842274D01*
X142327152Y-124834508D01*
X142325631Y-124826955D01*
X142320669Y-124665728D01*
X142320920Y-124646574D01*
X142321754Y-124628325D01*
X142323284Y-124611185D01*
X142325628Y-124595344D01*
X142328908Y-124581017D01*
X142330930Y-124574487D01*
X142333227Y-124568406D01*
X142335817Y-124562808D01*
X142338714Y-124557716D01*
X142341929Y-124553155D01*
X142345478Y-124549144D01*
X142356182Y-124541708D01*
X142365992Y-124534256D01*
X142374942Y-124526802D01*
X142383065Y-124519343D01*
X142390415Y-124511864D01*
X142397017Y-124504368D01*
X142402898Y-124496848D01*
X142408108Y-124489308D01*
X142412678Y-124481733D01*
X142416645Y-124474124D01*
X142420041Y-124466486D01*
X142422912Y-124458799D01*
X142425284Y-124451075D01*
X142427202Y-124443306D01*
X142428698Y-124435479D01*
X142429808Y-124427603D01*
X142431023Y-124411668D01*
X142431128Y-124395470D01*
X142430422Y-124378987D01*
X142429185Y-124362180D01*
X142426320Y-124327489D01*
X142425264Y-124309555D01*
X142424849Y-124291180D01*
X142432175Y-124252379D01*
X142438799Y-124211495D01*
X142441632Y-124190771D01*
X142444031Y-124170140D01*
X142445907Y-124149798D01*
X142447175Y-124129949D01*
X142447737Y-124110798D01*
X142447520Y-124092547D01*
X142446431Y-124075400D01*
X142444381Y-124059564D01*
X142441289Y-124045238D01*
X142439323Y-124038704D01*
X142437057Y-124032627D01*
X142434490Y-124027030D01*
X142431606Y-124021937D01*
X142428398Y-124017372D01*
X142424848Y-124013365D01*
X142424845Y-124013363D01*
X143079684Y-124013363D01*
X143079687Y-124549138D01*
X143774219Y-124549138D01*
X143774218Y-124013362D01*
X144865622Y-124013362D01*
X144865623Y-124549139D01*
X145560152Y-124549136D01*
X145560154Y-124013363D01*
X146611870Y-124013363D01*
X146611872Y-124549139D01*
X147346084Y-124549140D01*
X147346086Y-124013359D01*
X146611870Y-124013363D01*
X145560154Y-124013363D01*
X145560154Y-124013357D01*
X144865622Y-124013362D01*
X143774218Y-124013362D01*
X143079684Y-124013363D01*
X142424845Y-124013363D01*
X142410714Y-124002143D01*
X142398011Y-123990810D01*
X142386693Y-123979369D01*
X142376675Y-123967827D01*
X142367893Y-123956174D01*
X142360272Y-123944431D01*
X142353756Y-123932586D01*
X142348268Y-123920655D01*
X142343732Y-123908639D01*
X142340090Y-123896532D01*
X142337271Y-123884351D01*
X142335201Y-123872092D01*
X142333823Y-123859761D01*
X142333049Y-123847364D01*
X142333077Y-123822367D01*
X142334727Y-123797141D01*
X142337453Y-123771713D01*
X142343929Y-123720361D01*
X142346570Y-123694493D01*
X142348073Y-123668538D01*
X142347896Y-123642531D01*
X142347002Y-123629512D01*
X142345473Y-123616493D01*
X142343734Y-123612824D01*
X142342210Y-123609270D01*
X142340912Y-123605821D01*
X142339820Y-123602463D01*
X142338929Y-123599185D01*
X142338238Y-123595995D01*
X142337735Y-123592878D01*
X142337418Y-123589827D01*
X142337270Y-123586831D01*
X142337287Y-123583884D01*
X142337468Y-123580984D01*
X142337801Y-123578121D01*
X142338282Y-123575284D01*
X142338891Y-123572472D01*
X142339640Y-123569669D01*
X142340509Y-123566880D01*
X142342599Y-123561286D01*
X142345086Y-123555639D01*
X142347929Y-123549877D01*
X142351056Y-123543936D01*
X142354784Y-123537108D01*
X143079684Y-123537108D01*
X143774210Y-123537110D01*
X143774216Y-122882263D01*
X144865619Y-122882263D01*
X144865620Y-123537105D01*
X145560151Y-123537109D01*
X145560150Y-122882265D01*
X145212884Y-122882264D01*
X146631711Y-122882264D01*
X146631713Y-123537111D01*
X147346091Y-123537108D01*
X147346091Y-123537106D01*
X148397806Y-123537106D01*
X149092335Y-123537112D01*
X149092334Y-122882262D01*
X148397810Y-122882263D01*
X148397806Y-123537106D01*
X147346091Y-123537106D01*
X147346087Y-122882260D01*
X150183739Y-122882260D01*
X150183743Y-123537109D01*
X150878271Y-123537113D01*
X150878271Y-123537111D01*
X153735773Y-123537111D01*
X154430309Y-123537110D01*
X154430307Y-122882266D01*
X153735773Y-122882263D01*
X153735773Y-123537111D01*
X150878271Y-123537111D01*
X150878269Y-122882263D01*
X150646759Y-122882262D01*
X151969679Y-122882262D01*
X151969681Y-123537109D01*
X152644366Y-123537108D01*
X152644362Y-122882259D01*
X151969679Y-122882262D01*
X150646759Y-122882262D01*
X150183739Y-122882260D01*
X147346087Y-122882260D01*
X147346087Y-122882258D01*
X146631711Y-122882264D01*
X145212884Y-122882264D01*
X144865619Y-122882263D01*
X143774216Y-122882263D01*
X143774216Y-122882262D01*
X143079684Y-122882260D01*
X143079684Y-123537108D01*
X142354784Y-123537108D01*
X142357954Y-123531301D01*
X142361612Y-123524490D01*
X142365322Y-123517269D01*
X142369260Y-123509826D01*
X142373575Y-123502391D01*
X142378185Y-123494949D01*
X142382991Y-123487503D01*
X142392873Y-123472620D01*
X142402521Y-123457740D01*
X142407040Y-123450298D01*
X142411243Y-123442857D01*
X142415038Y-123435413D01*
X142418337Y-123427976D01*
X142421059Y-123420533D01*
X142422169Y-123416809D01*
X142423103Y-123413090D01*
X142423852Y-123409372D01*
X142424397Y-123405651D01*
X142424735Y-123401930D01*
X142424849Y-123398206D01*
X142424846Y-122981485D01*
X142425047Y-122970330D01*
X142425506Y-122959207D01*
X142426401Y-122937151D01*
X142426425Y-122926281D01*
X142425898Y-122915564D01*
X142425361Y-122910269D01*
X142424610Y-122905012D01*
X142423621Y-122899811D01*
X142422369Y-122894673D01*
X142420827Y-122889583D01*
X142418961Y-122884558D01*
X142416762Y-122879602D01*
X142414192Y-122874712D01*
X142411228Y-122869892D01*
X142407851Y-122865154D01*
X142404026Y-122860491D01*
X142399737Y-122855910D01*
X142394951Y-122851424D01*
X142389644Y-122847022D01*
X142383794Y-122842714D01*
X142377370Y-122838510D01*
X142370358Y-122834402D01*
X142362719Y-122830402D01*
X142354434Y-122826512D01*
X142345477Y-122822738D01*
X142340296Y-122820139D01*
X142335889Y-122816107D01*
X142332217Y-122810748D01*
X142329238Y-122804133D01*
X142326916Y-122796356D01*
X142325202Y-122787506D01*
X142323465Y-122766926D01*
X142323698Y-122743089D01*
X142325596Y-122716694D01*
X142328826Y-122688443D01*
X142333075Y-122659029D01*
X142343345Y-122599495D01*
X142353851Y-122543681D01*
X142360611Y-122505231D01*
X143079686Y-122505231D01*
X143774218Y-122505236D01*
X143774218Y-121870237D01*
X143079686Y-121870236D01*
X143079686Y-122505231D01*
X142360611Y-122505231D01*
X142362027Y-122497174D01*
X142364448Y-122479150D01*
X142365322Y-122465549D01*
X142371835Y-122383693D01*
X142376483Y-122301836D01*
X142379274Y-122219987D01*
X142380205Y-122138130D01*
X142379277Y-122056270D01*
X142376486Y-121974412D01*
X142371832Y-121892559D01*
X142370057Y-121870232D01*
X144865623Y-121870232D01*
X144865624Y-122505234D01*
X145560148Y-122505231D01*
X145560154Y-121870232D01*
X146611871Y-121870232D01*
X146611872Y-122505235D01*
X146631714Y-122505234D01*
X147346092Y-122505232D01*
X147346088Y-121870232D01*
X146611871Y-121870232D01*
X145560154Y-121870232D01*
X145560154Y-121870231D01*
X144865623Y-121870232D01*
X142370057Y-121870232D01*
X142370057Y-121870229D01*
X148397805Y-121870229D01*
X148397806Y-122505235D01*
X149092337Y-122505232D01*
X149092337Y-122485386D01*
X150183738Y-122485386D01*
X150878271Y-122485389D01*
X150878272Y-121870234D01*
X151949834Y-121870234D01*
X151949836Y-122505232D01*
X151969680Y-122505231D01*
X152644364Y-122505239D01*
X152644364Y-122505238D01*
X155521711Y-122505238D01*
X156216245Y-122505233D01*
X156216246Y-121870234D01*
X155868978Y-121870233D01*
X157287804Y-121870233D01*
X157287807Y-122505236D01*
X159053902Y-122505236D01*
X159748430Y-122505233D01*
X159748437Y-121870233D01*
X159053903Y-121870232D01*
X159053902Y-122505236D01*
X157287807Y-122505236D01*
X158002179Y-122505233D01*
X158002178Y-121870233D01*
X157287804Y-121870233D01*
X155868978Y-121870233D01*
X155521711Y-121870232D01*
X155521711Y-122505238D01*
X152644364Y-122505238D01*
X152644366Y-121870237D01*
X153735776Y-121870237D01*
X153735778Y-122505233D01*
X154430306Y-122505237D01*
X154430305Y-121870233D01*
X153735776Y-121870237D01*
X152644366Y-121870237D01*
X152644366Y-121870234D01*
X151949834Y-121870234D01*
X150878272Y-121870234D01*
X150878272Y-121850388D01*
X150183742Y-121850389D01*
X150183738Y-122485386D01*
X149092337Y-122485386D01*
X149092338Y-121870234D01*
X148397805Y-121870229D01*
X142370057Y-121870229D01*
X142365324Y-121810708D01*
X142364445Y-121795989D01*
X142362027Y-121774818D01*
X142353850Y-121717065D01*
X142343343Y-121645364D01*
X142333074Y-121567621D01*
X142328824Y-121528950D01*
X142325595Y-121491733D01*
X142323699Y-121456958D01*
X142323462Y-121425613D01*
X142325206Y-121398685D01*
X142325903Y-121393985D01*
X153735776Y-121393985D01*
X154430310Y-121393984D01*
X154430310Y-120818517D01*
X155521712Y-120818517D01*
X155521713Y-121393981D01*
X156216243Y-121393981D01*
X156216248Y-120838358D01*
X157287806Y-120838358D01*
X157287806Y-121393982D01*
X158002183Y-121393982D01*
X158002183Y-121393979D01*
X159053902Y-121393979D01*
X159748434Y-121393979D01*
X159748429Y-120818512D01*
X159053906Y-120818513D01*
X159053902Y-121393979D01*
X158002183Y-121393979D01*
X158002180Y-120838354D01*
X157287806Y-120838358D01*
X156216248Y-120838358D01*
X156216248Y-120818513D01*
X155521712Y-120818517D01*
X154430310Y-120818517D01*
X153735777Y-120818516D01*
X153735776Y-121393985D01*
X142325903Y-121393985D01*
X142325904Y-121393981D01*
X143079683Y-121393981D01*
X143774217Y-121393980D01*
X143774217Y-121393979D01*
X144865618Y-121393979D01*
X145560154Y-121393979D01*
X146611871Y-121393979D01*
X147326244Y-121393984D01*
X147326244Y-120818519D01*
X148397804Y-120818519D01*
X148397810Y-121393982D01*
X149092337Y-121393981D01*
X149092335Y-120818520D01*
X150183741Y-120818520D01*
X150183742Y-121393983D01*
X150878271Y-121393977D01*
X150878274Y-120818516D01*
X151969675Y-120818516D01*
X151969677Y-121393979D01*
X152664217Y-121393982D01*
X152664217Y-120818515D01*
X151969675Y-120818516D01*
X150878274Y-120818516D01*
X150878274Y-120818514D01*
X150183741Y-120818520D01*
X149092335Y-120818520D01*
X149092335Y-120818514D01*
X148397804Y-120818519D01*
X147326244Y-120818519D01*
X147326244Y-120818513D01*
X146611874Y-120818513D01*
X146611871Y-121393979D01*
X145560154Y-121393979D01*
X145560151Y-120818517D01*
X144865620Y-120818515D01*
X144865618Y-121393979D01*
X143774217Y-121393979D01*
X143774217Y-120818521D01*
X143079687Y-120818513D01*
X143079683Y-121393981D01*
X142325904Y-121393981D01*
X142326912Y-121387186D01*
X142329240Y-121377160D01*
X142332216Y-121368742D01*
X142335886Y-121362041D01*
X142340297Y-121357180D01*
X142345479Y-121354301D01*
X142356180Y-121350520D01*
X142365986Y-121346632D01*
X142374942Y-121342626D01*
X142383074Y-121338525D01*
X142390417Y-121334319D01*
X142397013Y-121330013D01*
X142402903Y-121325614D01*
X142408108Y-121321119D01*
X142412676Y-121316546D01*
X142416644Y-121311885D01*
X142420042Y-121307140D01*
X142422912Y-121302325D01*
X142425286Y-121297431D01*
X142427205Y-121292473D01*
X142428700Y-121287450D01*
X142429809Y-121282363D01*
X142430570Y-121277221D01*
X142431022Y-121272018D01*
X142431191Y-121266770D01*
X142431129Y-121261476D01*
X142430421Y-121250747D01*
X142429190Y-121239887D01*
X142426322Y-121217833D01*
X142425266Y-121206702D01*
X142424846Y-121195550D01*
X142424850Y-120858202D01*
X142424809Y-120844177D01*
X142424537Y-120831537D01*
X142424241Y-120825598D01*
X142423797Y-120819833D01*
X142423189Y-120814182D01*
X142422366Y-120808598D01*
X142421316Y-120803005D01*
X142420006Y-120797355D01*
X142418399Y-120791591D01*
X142416475Y-120785649D01*
X142414204Y-120779478D01*
X142411553Y-120773014D01*
X142408497Y-120766201D01*
X142405003Y-120758981D01*
X142367799Y-120689534D01*
X142363284Y-120680239D01*
X142359083Y-120671005D01*
X142355288Y-120661891D01*
X142351989Y-120652941D01*
X142349274Y-120644239D01*
X142347220Y-120635817D01*
X142345923Y-120627747D01*
X142345596Y-120623856D01*
X142345476Y-120620081D01*
X142342205Y-120604973D01*
X142339776Y-120589465D01*
X142338105Y-120573602D01*
X142337104Y-120557450D01*
X142336683Y-120541067D01*
X142336753Y-120524503D01*
X142338037Y-120491094D01*
X142342685Y-120424740D01*
X142344664Y-120392729D01*
X142345259Y-120377219D01*
X142345478Y-120362113D01*
X142345594Y-120356589D01*
X142345928Y-120351175D01*
X142346474Y-120345873D01*
X142347221Y-120340677D01*
X142348156Y-120335585D01*
X142349272Y-120330587D01*
X142350551Y-120325683D01*
X142351988Y-120320873D01*
X142355286Y-120311512D01*
X142359084Y-120302462D01*
X142363282Y-120293713D01*
X142367799Y-120285216D01*
X142369227Y-120282733D01*
X143079684Y-120282733D01*
X143774215Y-120282730D01*
X143774214Y-119806485D01*
X144865619Y-119806485D01*
X144865621Y-120282733D01*
X145560148Y-120282734D01*
X145560148Y-120282733D01*
X146611870Y-120282733D01*
X147326240Y-120282735D01*
X155521712Y-120282735D01*
X156216243Y-120282732D01*
X156216243Y-119806486D01*
X155695346Y-119806483D01*
X157267965Y-119806483D01*
X157267969Y-120282732D01*
X157287804Y-120282731D01*
X157525930Y-120282730D01*
X159053906Y-120282730D01*
X159748433Y-120282731D01*
X159748433Y-119806485D01*
X159053908Y-119806482D01*
X159053906Y-120282730D01*
X157525930Y-120282730D01*
X158002183Y-120282728D01*
X158002182Y-119806484D01*
X157267965Y-119806483D01*
X155695346Y-119806483D01*
X155521714Y-119806482D01*
X155521712Y-120282735D01*
X147326240Y-120282735D01*
X147326242Y-119806488D01*
X146611870Y-119806486D01*
X146611870Y-120282733D01*
X145560148Y-120282733D01*
X145560153Y-119806482D01*
X144865619Y-119806485D01*
X143774214Y-119806485D01*
X143774214Y-119806484D01*
X143079685Y-119806484D01*
X143079684Y-120282733D01*
X142369227Y-120282733D01*
X142372550Y-120276954D01*
X142377448Y-120268898D01*
X142387329Y-120253282D01*
X142396745Y-120238129D01*
X142401064Y-120230654D01*
X142405004Y-120223202D01*
X142408722Y-120215981D01*
X142412406Y-120209176D01*
X142419579Y-120196535D01*
X142426285Y-120184836D01*
X142429385Y-120179186D01*
X142432291Y-120173592D01*
X142434956Y-120168007D01*
X142437367Y-120162357D01*
X142439486Y-120156589D01*
X142441281Y-120150649D01*
X142442729Y-120144479D01*
X142443803Y-120138018D01*
X142444466Y-120131207D01*
X142444694Y-120123984D01*
X142444688Y-119826333D01*
X142444465Y-119822384D01*
X142443798Y-119818039D01*
X142442731Y-119813337D01*
X142441282Y-119808345D01*
X142440640Y-119806480D01*
X148397805Y-119806480D01*
X148397806Y-120282731D01*
X149092335Y-120282731D01*
X149092339Y-119806484D01*
X150183737Y-119806484D01*
X150183740Y-120282732D01*
X150878277Y-120282731D01*
X151969677Y-120282731D01*
X152664214Y-120282732D01*
X152664216Y-119806489D01*
X151969678Y-119806487D01*
X151969677Y-120282731D01*
X150878277Y-120282731D01*
X150878270Y-119806485D01*
X150183737Y-119806484D01*
X153735774Y-119806484D01*
X153735777Y-120282734D01*
X154430305Y-120282734D01*
X154430311Y-119806482D01*
X153735774Y-119806484D01*
X150183737Y-119806484D01*
X149092339Y-119806484D01*
X149092339Y-119806482D01*
X148397805Y-119806480D01*
X142440640Y-119806480D01*
X142439485Y-119803125D01*
X142437371Y-119797733D01*
X142434958Y-119792218D01*
X142432288Y-119786644D01*
X142429391Y-119781073D01*
X142426282Y-119775561D01*
X142422999Y-119770160D01*
X142419576Y-119764944D01*
X142416035Y-119759953D01*
X142412406Y-119755251D01*
X142408719Y-119750901D01*
X142405007Y-119746955D01*
X142394303Y-119739573D01*
X142384521Y-119732301D01*
X142375621Y-119725140D01*
X142367601Y-119718082D01*
X142360440Y-119711129D01*
X142354121Y-119704267D01*
X142348617Y-119697506D01*
X142343925Y-119690836D01*
X142340010Y-119684253D01*
X142336867Y-119677747D01*
X142334468Y-119671331D01*
X142332799Y-119664985D01*
X142331843Y-119658716D01*
X142331585Y-119652513D01*
X142331998Y-119646371D01*
X142333073Y-119640296D01*
X142334779Y-119634279D01*
X142337115Y-119628314D01*
X142340049Y-119622404D01*
X142343572Y-119616539D01*
X142347662Y-119610713D01*
X142352301Y-119604934D01*
X142357467Y-119599190D01*
X142363144Y-119593479D01*
X142369319Y-119587795D01*
X142375966Y-119582136D01*
X142383074Y-119576505D01*
X142390622Y-119570886D01*
X142406966Y-119559684D01*
X142424846Y-119548519D01*
X142525618Y-119492082D01*
X142620800Y-119439372D01*
X142666885Y-119413257D01*
X142712270Y-119386668D01*
X142757190Y-119359149D01*
X142801877Y-119330241D01*
X142850266Y-119297917D01*
X142898736Y-119267951D01*
X142947380Y-119240374D01*
X142996284Y-119215205D01*
X143045539Y-119192476D01*
X143079681Y-119178558D01*
X143095238Y-119172222D01*
X143145449Y-119154463D01*
X143196274Y-119139235D01*
X143247800Y-119126570D01*
X143300108Y-119116490D01*
X143353283Y-119109021D01*
X143407423Y-119104204D01*
X143462610Y-119102062D01*
X143518932Y-119102614D01*
X143576468Y-119105899D01*
X143635314Y-119111954D01*
X143794067Y-119111958D01*
X143799021Y-118906074D01*
X143801185Y-118894594D01*
X143804002Y-118883436D01*
X143807547Y-118872620D01*
X143811896Y-118862163D01*
X143817107Y-118852107D01*
X143823266Y-118842459D01*
X143830443Y-118833259D01*
X143838713Y-118824528D01*
X143848140Y-118816292D01*
X143858807Y-118808575D01*
X143870781Y-118801402D01*
X143884134Y-118794804D01*
X143885001Y-118794452D01*
X144865617Y-118794452D01*
X144865623Y-119151638D01*
X145560151Y-119151641D01*
X145560151Y-119131798D01*
X148397806Y-119131798D01*
X149092330Y-119131798D01*
X149092337Y-118794453D01*
X148397807Y-118794449D01*
X148397806Y-119131798D01*
X145560151Y-119131798D01*
X145560151Y-119131794D01*
X146611871Y-119131794D01*
X147346089Y-119131794D01*
X147346092Y-118794455D01*
X146611872Y-118794456D01*
X146611871Y-119131794D01*
X145560151Y-119131794D01*
X145560154Y-118794452D01*
X144865617Y-118794452D01*
X143885001Y-118794452D01*
X143898940Y-118788796D01*
X143915275Y-118783415D01*
X143933209Y-118778674D01*
X143952816Y-118774610D01*
X143945596Y-118771117D01*
X143938824Y-118768024D01*
X143932455Y-118765283D01*
X143926462Y-118762828D01*
X143905690Y-118754768D01*
X143901153Y-118752899D01*
X143896811Y-118750974D01*
X143892653Y-118748923D01*
X143888630Y-118746705D01*
X143884734Y-118744253D01*
X143880919Y-118741513D01*
X143879041Y-118740016D01*
X143877167Y-118738419D01*
X143875302Y-118736726D01*
X143873439Y-118734926D01*
X144587820Y-118318208D01*
X144699589Y-118250843D01*
X144812295Y-118184882D01*
X144865622Y-118155460D01*
X144869290Y-118153435D01*
X144926867Y-118123564D01*
X144985132Y-118095671D01*
X145044221Y-118070155D01*
X145104237Y-118047435D01*
X145126271Y-118040388D01*
X146611867Y-118040388D01*
X147326242Y-118040395D01*
X147326242Y-118040389D01*
X148397801Y-118040389D01*
X149092338Y-118040390D01*
X149092338Y-118040385D01*
X150183743Y-118040385D01*
X150878273Y-118040392D01*
X150878277Y-117762581D01*
X150183743Y-117762575D01*
X150183743Y-118040385D01*
X149092338Y-118040385D01*
X149092336Y-117742730D01*
X148397808Y-117742732D01*
X148397801Y-118040389D01*
X147326242Y-118040389D01*
X147326243Y-117742731D01*
X146611870Y-117742735D01*
X146611867Y-118040388D01*
X145126271Y-118040388D01*
X145165298Y-118027906D01*
X145227523Y-118011987D01*
X145291028Y-118000080D01*
X145355925Y-117992592D01*
X145422336Y-117989931D01*
X145490375Y-117992495D01*
X145525045Y-117995867D01*
X145560160Y-118000701D01*
X145560196Y-117999847D01*
X145560287Y-117998871D01*
X145560464Y-117997601D01*
X145560767Y-117996100D01*
X145561206Y-117994425D01*
X145561824Y-117992633D01*
X145562201Y-117991706D01*
X145562636Y-117990778D01*
X145563137Y-117989852D01*
X145563687Y-117988932D01*
X145564310Y-117988024D01*
X145565001Y-117987135D01*
X145565767Y-117986280D01*
X145566609Y-117985459D01*
X145567524Y-117984684D01*
X145568532Y-117983964D01*
X145569617Y-117983287D01*
X145570800Y-117982691D01*
X145572077Y-117982163D01*
X145573447Y-117981710D01*
X145574926Y-117981352D01*
X145576506Y-117981078D01*
X145578197Y-117980918D01*
X145580000Y-117980858D01*
X145578600Y-117964346D01*
X145578093Y-117948290D01*
X145578441Y-117932669D01*
X145579616Y-117917490D01*
X145581571Y-117902728D01*
X145584272Y-117888375D01*
X145587694Y-117874426D01*
X145591789Y-117860862D01*
X145596518Y-117847684D01*
X145601848Y-117834862D01*
X145607754Y-117822404D01*
X145614186Y-117810287D01*
X145621112Y-117798505D01*
X145628499Y-117787043D01*
X145636306Y-117775898D01*
X145644495Y-117765059D01*
X145661884Y-117744229D01*
X145680384Y-117724476D01*
X145699695Y-117705712D01*
X145719532Y-117687851D01*
X145739600Y-117670805D01*
X145759605Y-117654482D01*
X145798283Y-117623669D01*
X145851049Y-117583422D01*
X145905064Y-117544453D01*
X145960178Y-117506643D01*
X146016260Y-117469881D01*
X146130710Y-117399030D01*
X146247252Y-117330972D01*
X146481970Y-117199510D01*
X146597815Y-117134244D01*
X146611868Y-117126032D01*
X146711099Y-117068046D01*
X146784699Y-117023745D01*
X146857138Y-116981539D01*
X146893137Y-116961872D01*
X146929110Y-116943521D01*
X146965140Y-116926729D01*
X147001318Y-116911776D01*
X147037727Y-116898913D01*
X147074450Y-116888407D01*
X147111583Y-116880512D01*
X147149213Y-116875497D01*
X147168242Y-116874154D01*
X147187422Y-116873626D01*
X147206774Y-116873942D01*
X147226301Y-116875148D01*
X147246018Y-116877270D01*
X147265936Y-116880337D01*
X147286065Y-116884384D01*
X147306414Y-116889452D01*
X147317572Y-116871302D01*
X147328731Y-116854029D01*
X147339893Y-116837569D01*
X147351055Y-116821862D01*
X147362222Y-116806854D01*
X147373384Y-116792484D01*
X147384545Y-116778692D01*
X147395708Y-116765428D01*
X147406870Y-116752628D01*
X147418038Y-116740234D01*
X147426979Y-116730702D01*
X148397806Y-116730702D01*
X148397809Y-116929145D01*
X153755621Y-116929145D01*
X154450149Y-116929143D01*
X154450151Y-116730703D01*
X153755621Y-116730700D01*
X153755621Y-116929145D01*
X148397809Y-116929145D01*
X149092334Y-116929144D01*
X149092339Y-116730704D01*
X150183740Y-116730704D01*
X150183742Y-116929141D01*
X150878273Y-116929143D01*
X150878268Y-116730707D01*
X150183740Y-116730704D01*
X149092339Y-116730704D01*
X149092339Y-116730703D01*
X148397806Y-116730702D01*
X147426979Y-116730702D01*
X147426982Y-116730699D01*
X151969678Y-116730699D01*
X151969680Y-116929138D01*
X152664216Y-116929140D01*
X152664218Y-116730702D01*
X151969678Y-116730699D01*
X147426982Y-116730699D01*
X147440355Y-116716442D01*
X147462678Y-116693575D01*
X147485002Y-116671171D01*
X147484111Y-116671130D01*
X147481591Y-116670858D01*
X147479797Y-116670566D01*
X147477678Y-116670123D01*
X147475273Y-116669507D01*
X147472600Y-116668690D01*
X147469701Y-116667642D01*
X147466592Y-116666326D01*
X147463313Y-116664722D01*
X147459890Y-116662798D01*
X147456344Y-116660526D01*
X147452719Y-116657879D01*
X147449029Y-116654817D01*
X147447172Y-116653129D01*
X147445314Y-116651324D01*
X148397807Y-116105040D01*
X148794687Y-115877416D01*
X148928623Y-115817890D01*
X150163897Y-115817890D01*
X150183742Y-115817891D01*
X150878274Y-115817893D01*
X150878232Y-115802966D01*
X150877958Y-115787814D01*
X150877228Y-115772195D01*
X150875794Y-115755875D01*
X150874740Y-115747387D01*
X150873425Y-115738632D01*
X150871825Y-115729586D01*
X150869900Y-115720221D01*
X150867628Y-115710510D01*
X150864981Y-115700414D01*
X150861924Y-115689919D01*
X150858426Y-115678983D01*
X151969676Y-115678983D01*
X151969677Y-115817886D01*
X152664218Y-115817892D01*
X152664218Y-115678987D01*
X152316947Y-115678985D01*
X153735778Y-115678985D01*
X153735812Y-115700414D01*
X153736086Y-115720218D01*
X153736828Y-115738629D01*
X153737439Y-115747383D01*
X153738254Y-115755874D01*
X153739311Y-115764138D01*
X153740616Y-115772198D01*
X153742225Y-115780072D01*
X153744147Y-115787811D01*
X153746419Y-115795434D01*
X153749069Y-115802967D01*
X153752127Y-115810441D01*
X153755620Y-115817891D01*
X154450150Y-115817888D01*
X154450153Y-115678985D01*
X153735778Y-115678985D01*
X152316947Y-115678985D01*
X151969676Y-115678983D01*
X150858426Y-115678983D01*
X150163901Y-115678983D01*
X150163897Y-115817890D01*
X148928623Y-115817890D01*
X148973278Y-115798044D01*
X149011456Y-115783162D01*
X149051726Y-115768279D01*
X149094317Y-115753399D01*
X149139469Y-115738516D01*
X149187416Y-115723632D01*
X149238379Y-115708751D01*
X149292597Y-115693868D01*
X149350307Y-115678989D01*
X149350293Y-115678982D01*
X155521713Y-115678982D01*
X155521715Y-115817890D01*
X156216247Y-115817894D01*
X156216244Y-115678985D01*
X155521713Y-115678982D01*
X149350293Y-115678982D01*
X149336107Y-115671993D01*
X149323221Y-115665843D01*
X149311555Y-115660452D01*
X149301010Y-115655729D01*
X149282987Y-115647937D01*
X149268453Y-115641773D01*
X149262277Y-115639085D01*
X149256711Y-115636541D01*
X149251663Y-115634060D01*
X149247058Y-115631545D01*
X149242799Y-115628915D01*
X149240771Y-115627527D01*
X149238802Y-115626083D01*
X149236874Y-115624555D01*
X149234976Y-115622953D01*
X149233108Y-115621252D01*
X149231246Y-115619453D01*
X150052281Y-115153126D01*
X150163902Y-115089220D01*
X150456289Y-114921819D01*
X150858435Y-114686798D01*
X150937811Y-114666957D01*
X151012533Y-114651762D01*
X151034111Y-114647109D01*
X151949836Y-114647109D01*
X151969678Y-114686798D01*
X152644362Y-114686792D01*
X152684060Y-114647110D01*
X152680339Y-114645139D01*
X152676619Y-114642947D01*
X152672912Y-114640564D01*
X152669212Y-114637999D01*
X152665530Y-114635276D01*
X152661861Y-114632418D01*
X152655715Y-114627267D01*
X153715929Y-114627267D01*
X153735773Y-114640501D01*
X153834994Y-114706637D01*
X154430307Y-114706642D01*
X154433777Y-114692225D01*
X154436660Y-114678733D01*
X154438855Y-114666175D01*
X154440229Y-114654549D01*
X154440574Y-114649089D01*
X154440674Y-114643851D01*
X154440510Y-114638856D01*
X154440076Y-114634089D01*
X154439346Y-114629551D01*
X154438796Y-114627266D01*
X155501871Y-114627266D01*
X155509091Y-114631211D01*
X155515937Y-114635562D01*
X155521716Y-114639702D01*
X155522495Y-114640259D01*
X155528843Y-114645248D01*
X155541285Y-114655867D01*
X155553958Y-114666950D01*
X155560599Y-114672526D01*
X155567563Y-114678037D01*
X155574932Y-114683437D01*
X155582792Y-114688655D01*
X155591237Y-114693645D01*
X155600351Y-114698349D01*
X155605184Y-114700570D01*
X155610217Y-114702697D01*
X155615461Y-114704724D01*
X155620930Y-114706638D01*
X155770376Y-114706020D01*
X155846263Y-114704547D01*
X155923546Y-114701680D01*
X156002687Y-114696954D01*
X156084158Y-114689897D01*
X156168415Y-114680054D01*
X156255927Y-114666953D01*
X156252271Y-114664980D01*
X156248713Y-114662796D01*
X156245262Y-114660407D01*
X156241900Y-114657842D01*
X156238632Y-114655123D01*
X156235439Y-114652259D01*
X156232319Y-114649275D01*
X156230182Y-114647109D01*
X157248113Y-114647109D01*
X157249910Y-114647163D01*
X157251608Y-114647335D01*
X157253204Y-114647613D01*
X157254705Y-114648000D01*
X157256112Y-114648486D01*
X157257440Y-114649071D01*
X157258706Y-114649746D01*
X157259899Y-114650522D01*
X157261028Y-114651379D01*
X157262117Y-114652316D01*
X157264159Y-114654432D01*
X157266093Y-114656837D01*
X157267964Y-114659513D01*
X157276023Y-114672225D01*
X157278472Y-114675764D01*
X157281211Y-114679394D01*
X157284309Y-114683081D01*
X157287804Y-114686796D01*
X157922796Y-114706638D01*
X157924716Y-114706473D01*
X157926743Y-114705967D01*
X157928886Y-114705152D01*
X157931129Y-114704046D01*
X157933482Y-114702660D01*
X157935924Y-114701016D01*
X157941092Y-114697031D01*
X157946614Y-114692230D01*
X157952447Y-114686757D01*
X157964971Y-114674395D01*
X157978416Y-114661101D01*
X157985417Y-114654466D01*
X157992564Y-114648035D01*
X157999823Y-114641957D01*
X158007175Y-114636373D01*
X158014583Y-114631431D01*
X158018301Y-114629241D01*
X158022018Y-114627260D01*
X158002172Y-114567733D01*
X157347330Y-114567734D01*
X157343664Y-114567905D01*
X157340114Y-114568407D01*
X157336661Y-114569220D01*
X157333302Y-114570324D01*
X157330031Y-114571715D01*
X157326843Y-114573358D01*
X157323722Y-114575240D01*
X157320668Y-114577349D01*
X157317673Y-114579652D01*
X157314724Y-114582144D01*
X157308963Y-114587615D01*
X157303316Y-114593609D01*
X157297725Y-114599983D01*
X157286488Y-114613274D01*
X157280719Y-114619910D01*
X157274780Y-114626331D01*
X157268606Y-114632413D01*
X157265416Y-114635277D01*
X157262144Y-114638000D01*
X157258783Y-114640566D01*
X157255330Y-114642949D01*
X157251776Y-114645134D01*
X157248113Y-114647109D01*
X156230182Y-114647109D01*
X156229269Y-114646183D01*
X156223325Y-114639752D01*
X156217562Y-114633118D01*
X156206325Y-114619829D01*
X156200731Y-114613456D01*
X156195082Y-114607463D01*
X156192223Y-114604653D01*
X156189317Y-114601989D01*
X156186372Y-114599498D01*
X156183380Y-114597193D01*
X156180328Y-114595089D01*
X156177209Y-114593201D01*
X156174016Y-114591565D01*
X156170742Y-114590174D01*
X156167386Y-114589070D01*
X156163930Y-114588251D01*
X156160376Y-114587750D01*
X156156711Y-114587579D01*
X155541557Y-114587580D01*
X155539757Y-114587636D01*
X155538057Y-114587807D01*
X155536463Y-114588089D01*
X155534967Y-114588471D01*
X155533557Y-114588956D01*
X155532229Y-114589540D01*
X155530966Y-114590223D01*
X155529777Y-114590986D01*
X155528641Y-114591847D01*
X155527559Y-114592787D01*
X155525513Y-114594905D01*
X155523583Y-114597309D01*
X155521713Y-114599982D01*
X155513653Y-114612689D01*
X155511202Y-114616236D01*
X155508462Y-114619864D01*
X155505366Y-114623551D01*
X155501871Y-114627266D01*
X154438796Y-114627266D01*
X154438311Y-114625253D01*
X154436960Y-114621178D01*
X154435269Y-114617345D01*
X154433231Y-114613739D01*
X154430832Y-114610369D01*
X154428056Y-114607228D01*
X154424882Y-114604323D01*
X154421305Y-114601649D01*
X154417304Y-114599208D01*
X154412871Y-114596998D01*
X154407985Y-114595018D01*
X154402631Y-114593278D01*
X154396800Y-114591765D01*
X154390475Y-114590488D01*
X154383641Y-114589440D01*
X154376286Y-114588627D01*
X154368390Y-114588045D01*
X154359945Y-114587696D01*
X154350935Y-114587578D01*
X153755620Y-114587580D01*
X153753818Y-114587637D01*
X153752121Y-114587810D01*
X153750529Y-114588083D01*
X153749034Y-114588471D01*
X153747625Y-114588955D01*
X153746289Y-114589541D01*
X153745034Y-114590218D01*
X153743837Y-114590987D01*
X153742701Y-114591846D01*
X153741617Y-114592787D01*
X153739575Y-114594906D01*
X153737645Y-114597316D01*
X153735776Y-114599979D01*
X153727715Y-114612696D01*
X153725259Y-114616233D01*
X153722518Y-114619861D01*
X153719425Y-114623547D01*
X153715929Y-114627267D01*
X152655715Y-114627267D01*
X152654600Y-114626333D01*
X152647452Y-114619906D01*
X152640455Y-114613275D01*
X152627005Y-114599978D01*
X152614490Y-114587614D01*
X152608649Y-114582147D01*
X152603132Y-114577349D01*
X152600499Y-114575237D01*
X152597960Y-114573355D01*
X152595518Y-114571717D01*
X152593176Y-114570326D01*
X152590929Y-114569224D01*
X152588792Y-114568407D01*
X152586755Y-114567904D01*
X152584842Y-114567732D01*
X152049056Y-114567733D01*
X152045391Y-114567906D01*
X152041839Y-114568406D01*
X152038385Y-114569224D01*
X152035026Y-114570327D01*
X152031756Y-114571715D01*
X152028563Y-114573357D01*
X152025444Y-114575240D01*
X152022392Y-114577348D01*
X152019397Y-114579651D01*
X152016448Y-114582147D01*
X152010689Y-114587613D01*
X152005037Y-114593606D01*
X151999448Y-114599980D01*
X151988209Y-114613271D01*
X151982442Y-114619907D01*
X151976502Y-114626337D01*
X151970327Y-114632413D01*
X151967141Y-114635282D01*
X151963869Y-114637998D01*
X151960508Y-114640565D01*
X151957058Y-114642947D01*
X151953495Y-114645136D01*
X151949836Y-114647109D01*
X151034111Y-114647109D01*
X151050476Y-114643580D01*
X151089117Y-114634709D01*
X151128687Y-114624904D01*
X151169426Y-114613936D01*
X151211555Y-114601570D01*
X151255310Y-114587577D01*
X151244605Y-114580586D01*
X151234772Y-114574440D01*
X151225753Y-114569048D01*
X151217486Y-114564323D01*
X151209920Y-114560181D01*
X151202991Y-114556529D01*
X151190817Y-114550367D01*
X151180514Y-114545137D01*
X151175912Y-114542651D01*
X151171596Y-114540138D01*
X151167521Y-114537502D01*
X151163614Y-114534674D01*
X151159824Y-114531548D01*
X151157961Y-114529849D01*
X151156095Y-114528046D01*
X151450340Y-114364336D01*
X151739001Y-114200622D01*
X152307027Y-113873203D01*
X152314353Y-113869367D01*
X152321462Y-113865309D01*
X152335047Y-113856572D01*
X152347879Y-113847083D01*
X152360046Y-113836922D01*
X152371634Y-113826183D01*
X152382724Y-113814947D01*
X152393404Y-113803303D01*
X152403768Y-113791346D01*
X152423879Y-113766812D01*
X152443765Y-113742041D01*
X152453835Y-113729792D01*
X152464108Y-113717744D01*
X152474674Y-113705988D01*
X152485617Y-113694610D01*
X152465776Y-113674761D01*
X152480427Y-113671273D01*
X152494649Y-113668214D01*
X152508460Y-113665565D01*
X152521897Y-113663293D01*
X152534983Y-113661371D01*
X152547747Y-113659762D01*
X152572436Y-113657402D01*
X152584837Y-113656656D01*
X152596193Y-113655966D01*
X152619256Y-113655231D01*
X152664214Y-113654922D01*
X152664214Y-113476325D01*
X153735775Y-113476325D01*
X153735779Y-113674765D01*
X154350930Y-113674768D01*
X154430306Y-113674765D01*
X154430310Y-113476332D01*
X155521713Y-113476332D01*
X155521716Y-113674764D01*
X156156709Y-113674766D01*
X157287803Y-113674766D01*
X158002177Y-113674766D01*
X158002184Y-113674767D01*
X158002181Y-113476327D01*
X159053902Y-113476327D01*
X159053903Y-113674765D01*
X159748433Y-113674764D01*
X159748432Y-113476330D01*
X159053902Y-113476327D01*
X158002181Y-113476327D01*
X158002181Y-113476326D01*
X157287806Y-113476332D01*
X157287803Y-113674766D01*
X156156709Y-113674766D01*
X156216239Y-113674763D01*
X156216245Y-113476329D01*
X155521713Y-113476332D01*
X154430310Y-113476332D01*
X154430310Y-113476325D01*
X153735775Y-113476325D01*
X152664214Y-113476325D01*
X152664214Y-113436639D01*
X152207810Y-113436638D01*
X152125993Y-113430009D01*
X152044406Y-113424547D01*
X151882862Y-113414315D01*
X151803377Y-113408152D01*
X151725049Y-113400362D01*
X151648114Y-113390243D01*
X151610243Y-113384095D01*
X151572809Y-113377105D01*
X150044841Y-113017439D01*
X149278992Y-112832954D01*
X148516869Y-112642886D01*
X148516872Y-112623043D01*
X149092335Y-112623045D01*
X149092336Y-112345229D01*
X150183741Y-112345229D01*
X150183742Y-112623048D01*
X150878273Y-112623046D01*
X150878275Y-112345235D01*
X151969674Y-112345235D01*
X151969680Y-112642889D01*
X152664219Y-112642888D01*
X152664219Y-112623049D01*
X159053905Y-112623049D01*
X159748434Y-112623050D01*
X159748434Y-112345235D01*
X159053905Y-112345235D01*
X159053905Y-112623049D01*
X152664219Y-112623049D01*
X152664216Y-112345233D01*
X151969674Y-112345235D01*
X150878275Y-112345235D01*
X150878275Y-112345233D01*
X150183741Y-112345229D01*
X149092336Y-112345229D01*
X149092336Y-112325390D01*
X153755619Y-112325390D01*
X153755620Y-112623047D01*
X154450151Y-112623045D01*
X154450154Y-112325393D01*
X154218642Y-112325392D01*
X155521712Y-112325392D01*
X155521718Y-112623047D01*
X156216240Y-112623045D01*
X156216242Y-112345231D01*
X157267959Y-112345231D01*
X157267960Y-112623046D01*
X157287805Y-112623045D01*
X158002182Y-112623046D01*
X158002179Y-112345231D01*
X157267959Y-112345231D01*
X156216242Y-112345231D01*
X156216242Y-112325392D01*
X155521712Y-112325392D01*
X154218642Y-112325392D01*
X153755619Y-112325390D01*
X149092336Y-112325390D01*
X149092336Y-112325388D01*
X149004007Y-112325002D01*
X148960615Y-112324085D01*
X148917772Y-112322289D01*
X148875511Y-112319339D01*
X148833866Y-112314925D01*
X148792854Y-112308770D01*
X148752516Y-112300583D01*
X148712872Y-112290071D01*
X148673957Y-112276942D01*
X148635800Y-112260908D01*
X148617013Y-112251710D01*
X148598426Y-112241678D01*
X148580044Y-112230764D01*
X148561866Y-112218950D01*
X148543901Y-112206190D01*
X148526154Y-112192452D01*
X148508622Y-112177695D01*
X148491308Y-112161881D01*
X148474221Y-112144979D01*
X148457366Y-112126948D01*
X148457368Y-112384913D01*
X147147676Y-112087263D01*
X146391752Y-111905257D01*
X145639549Y-111717676D01*
X145298994Y-111630855D01*
X151969677Y-111630855D01*
X152664216Y-111630854D01*
X152664216Y-111611020D01*
X157267964Y-111611020D01*
X157543295Y-111611017D01*
X159053901Y-111611017D01*
X159748438Y-111611014D01*
X159748437Y-111233978D01*
X159053902Y-111233981D01*
X159053901Y-111611017D01*
X157543295Y-111611017D01*
X158002180Y-111611012D01*
X158002182Y-111233985D01*
X157267964Y-111233985D01*
X157267964Y-111611020D01*
X152664216Y-111611020D01*
X152664216Y-111611013D01*
X153755621Y-111611013D01*
X154430307Y-111611015D01*
X154430306Y-111233984D01*
X153755622Y-111233981D01*
X153755621Y-111611013D01*
X152664216Y-111611013D01*
X152664214Y-111233983D01*
X151969680Y-111233982D01*
X151969677Y-111630855D01*
X145298994Y-111630855D01*
X145221183Y-111611018D01*
X146611869Y-111611018D01*
X147326246Y-111611019D01*
X147326241Y-111233984D01*
X148397808Y-111233984D01*
X148397809Y-111611013D01*
X149092332Y-111611017D01*
X149092338Y-111233985D01*
X150183741Y-111233985D01*
X150183744Y-111611012D01*
X150878272Y-111611012D01*
X150878274Y-111233983D01*
X150183741Y-111233985D01*
X149092338Y-111233985D01*
X149092338Y-111233982D01*
X148397808Y-111233984D01*
X147326241Y-111233984D01*
X147326241Y-111214145D01*
X155521714Y-111214145D01*
X155521717Y-111591172D01*
X156216243Y-111591171D01*
X156216244Y-111214139D01*
X155521714Y-111214145D01*
X147326241Y-111214145D01*
X147326241Y-111214141D01*
X146611873Y-111214139D01*
X146611869Y-111611018D01*
X145221183Y-111611018D01*
X145221175Y-111611016D01*
X145560153Y-111611014D01*
X145560156Y-111233984D01*
X144865622Y-111233984D01*
X144865617Y-111520372D01*
X144131426Y-111333200D01*
X144089501Y-111322441D01*
X144052751Y-111312235D01*
X144020769Y-111302200D01*
X143993140Y-111291960D01*
X143980838Y-111286651D01*
X143969471Y-111281146D01*
X143958992Y-111275403D01*
X143949344Y-111269373D01*
X143940486Y-111262998D01*
X143932359Y-111256252D01*
X143924919Y-111249073D01*
X143918107Y-111241421D01*
X143911881Y-111233244D01*
X143906182Y-111224503D01*
X143900960Y-111215136D01*
X143896171Y-111205104D01*
X143891759Y-111194367D01*
X143887671Y-111182864D01*
X143880280Y-111157398D01*
X143873585Y-111128328D01*
X143867179Y-111095270D01*
X143853615Y-111015706D01*
X143754395Y-111015699D01*
X143672541Y-111021478D01*
X143590686Y-111024692D01*
X143426975Y-111028108D01*
X143345121Y-111030621D01*
X143263266Y-111035234D01*
X143222338Y-111038686D01*
X143181409Y-111043104D01*
X143140479Y-111048620D01*
X143099557Y-111055390D01*
X143061891Y-111061025D01*
X143023357Y-111063295D01*
X142984007Y-111062540D01*
X142943902Y-111059110D01*
X142903102Y-111053350D01*
X142861661Y-111045621D01*
X142819642Y-111036261D01*
X142777095Y-111025623D01*
X142602838Y-110977252D01*
X142514085Y-110954465D01*
X142469504Y-110944638D01*
X142424867Y-110936332D01*
X142424216Y-110902638D01*
X142422466Y-110868651D01*
X142416805Y-110800525D01*
X142410218Y-110733310D01*
X142405025Y-110668432D01*
X142403679Y-110637301D01*
X142403551Y-110607275D01*
X142404937Y-110578530D01*
X142408128Y-110551235D01*
X142410484Y-110538182D01*
X142413403Y-110525567D01*
X142416921Y-110513396D01*
X142421069Y-110501702D01*
X142425890Y-110490499D01*
X142431403Y-110479814D01*
X142437671Y-110469664D01*
X142444712Y-110460074D01*
X142455360Y-110446994D01*
X142465007Y-110433806D01*
X142473698Y-110420516D01*
X142481488Y-110407137D01*
X142488427Y-110393664D01*
X142494546Y-110380113D01*
X142499908Y-110366485D01*
X142504554Y-110352794D01*
X142508524Y-110339047D01*
X142511884Y-110325246D01*
X142516914Y-110297526D01*
X142520028Y-110269688D01*
X142521607Y-110241794D01*
X142522022Y-110213899D01*
X142521645Y-110186061D01*
X142520056Y-110130795D01*
X142519920Y-110122736D01*
X143079684Y-110122736D01*
X143079684Y-110598987D01*
X143774216Y-110598984D01*
X143774216Y-110598983D01*
X144865621Y-110598983D01*
X145560151Y-110598986D01*
X145560154Y-110122736D01*
X144865625Y-110122733D01*
X144865621Y-110598983D01*
X143774216Y-110598983D01*
X143774214Y-110122735D01*
X143079684Y-110122736D01*
X142519920Y-110122736D01*
X142519920Y-110122731D01*
X146611869Y-110122731D01*
X146611872Y-110598983D01*
X147326244Y-110598986D01*
X147326245Y-110122738D01*
X148397805Y-110122738D01*
X148397807Y-110598981D01*
X149092335Y-110598987D01*
X149092333Y-110122738D01*
X150183739Y-110122738D01*
X150183744Y-110598984D01*
X150878277Y-110598986D01*
X151969680Y-110598986D01*
X152664216Y-110598984D01*
X152664214Y-110122738D01*
X153735775Y-110122738D01*
X153735777Y-110598985D01*
X153755617Y-110598983D01*
X154430307Y-110598985D01*
X154430305Y-110122736D01*
X153735775Y-110122738D01*
X152664214Y-110122738D01*
X152664214Y-110122735D01*
X151969683Y-110122733D01*
X151969680Y-110598986D01*
X150878277Y-110598986D01*
X150878276Y-110122736D01*
X150183739Y-110122738D01*
X149092333Y-110122738D01*
X148397805Y-110122738D01*
X147326245Y-110122738D01*
X147326245Y-110122737D01*
X146611869Y-110122731D01*
X142519920Y-110122731D01*
X142519596Y-110103480D01*
X142519860Y-110076457D01*
X142521230Y-110049784D01*
X142524085Y-110023515D01*
X142524045Y-110009484D01*
X142523777Y-109996846D01*
X142523478Y-109990910D01*
X142523041Y-109985139D01*
X142522422Y-109979494D01*
X142521607Y-109973905D01*
X142520553Y-109968312D01*
X142519241Y-109962667D01*
X142517633Y-109956897D01*
X142515716Y-109950963D01*
X142513443Y-109944790D01*
X142510787Y-109938325D01*
X142507734Y-109931513D01*
X142504239Y-109924293D01*
X142467037Y-109854840D01*
X142462517Y-109845550D01*
X142458315Y-109836315D01*
X142454520Y-109827197D01*
X142451221Y-109818256D01*
X142448500Y-109809545D01*
X142446451Y-109801125D01*
X142445162Y-109793054D01*
X142444825Y-109789164D01*
X142444704Y-109785394D01*
X142444708Y-109547268D01*
X143099530Y-109547268D01*
X143774216Y-109547265D01*
X143774213Y-109011484D01*
X144865620Y-109011484D01*
X144865623Y-109547264D01*
X145560156Y-109547263D01*
X145560154Y-109011485D01*
X146631711Y-109011485D01*
X146631715Y-109547264D01*
X147346090Y-109547263D01*
X147346092Y-109011487D01*
X148397804Y-109011487D01*
X148397809Y-109547267D01*
X149092335Y-109547263D01*
X149092333Y-109011489D01*
X148397804Y-109011487D01*
X147346092Y-109011487D01*
X147346092Y-109011485D01*
X146631711Y-109011485D01*
X145560154Y-109011485D01*
X145560154Y-109011480D01*
X144865620Y-109011484D01*
X143774213Y-109011484D01*
X143774213Y-109011479D01*
X143099531Y-109011483D01*
X143099530Y-109547268D01*
X142444708Y-109547268D01*
X142444709Y-109487734D01*
X142444752Y-109472890D01*
X142445018Y-109458276D01*
X142445316Y-109451133D01*
X142445760Y-109444127D01*
X142446372Y-109437301D01*
X142447187Y-109430679D01*
X142448238Y-109424290D01*
X142449553Y-109418163D01*
X142451160Y-109412324D01*
X142453085Y-109406804D01*
X142454177Y-109404173D01*
X142455355Y-109401639D01*
X142456633Y-109399195D01*
X142458009Y-109396845D01*
X142459485Y-109394606D01*
X142461067Y-109392459D01*
X142462754Y-109390429D01*
X142464557Y-109388516D01*
X142480385Y-109373519D01*
X142494444Y-109358298D01*
X142506824Y-109342867D01*
X142517618Y-109327237D01*
X142526914Y-109311417D01*
X142534796Y-109295426D01*
X142541374Y-109279260D01*
X142546724Y-109262939D01*
X142550936Y-109246473D01*
X142554109Y-109229877D01*
X142556333Y-109213155D01*
X142557690Y-109196320D01*
X142558191Y-109162351D01*
X142556329Y-109128065D01*
X142539898Y-108989468D01*
X142537171Y-108954891D01*
X142536449Y-108920522D01*
X142537068Y-108903436D01*
X142538461Y-108886436D01*
X142540717Y-108869535D01*
X142543928Y-108852732D01*
X142527986Y-108843257D01*
X142513598Y-108833451D01*
X142500697Y-108823320D01*
X142489207Y-108812892D01*
X142479051Y-108802168D01*
X142470157Y-108791166D01*
X142462451Y-108779906D01*
X142455875Y-108768394D01*
X142450343Y-108756659D01*
X142445777Y-108744697D01*
X142442119Y-108732535D01*
X142439288Y-108720183D01*
X142437208Y-108707656D01*
X142435817Y-108694969D01*
X142434791Y-108669178D01*
X142435628Y-108642915D01*
X142437739Y-108616317D01*
X142443470Y-108562516D01*
X142445934Y-108535562D01*
X142447346Y-108508726D01*
X142447131Y-108482116D01*
X142446235Y-108468938D01*
X142444709Y-108455858D01*
X142444936Y-108448419D01*
X142445600Y-108441013D01*
X142446670Y-108433662D01*
X142448123Y-108426403D01*
X142449919Y-108419257D01*
X142452038Y-108412255D01*
X142454447Y-108405429D01*
X142457117Y-108398811D01*
X142460012Y-108392418D01*
X142463125Y-108386291D01*
X142466402Y-108380454D01*
X142469830Y-108374935D01*
X142473370Y-108369763D01*
X142476996Y-108364973D01*
X142480685Y-108360590D01*
X142484403Y-108356636D01*
X142491498Y-108347944D01*
X142497916Y-108336851D01*
X142503686Y-108323509D01*
X142508820Y-108308074D01*
X142517276Y-108271572D01*
X142523464Y-108228586D01*
X142527569Y-108180363D01*
X142529747Y-108128165D01*
X142530180Y-108073231D01*
X142529051Y-108016813D01*
X142526520Y-107960166D01*
X142522774Y-107904535D01*
X142520326Y-107880389D01*
X143079686Y-107880389D01*
X143079687Y-108535234D01*
X143099530Y-108535233D01*
X143774212Y-108535238D01*
X143774216Y-107880394D01*
X143218592Y-107880390D01*
X144865621Y-107880390D01*
X144865624Y-108535233D01*
X145560153Y-108535235D01*
X145560153Y-108535232D01*
X146611872Y-108535232D01*
X146631714Y-108535237D01*
X147326245Y-108535232D01*
X147326243Y-107880390D01*
X146611874Y-107880388D01*
X148397804Y-107880388D01*
X148397807Y-108535234D01*
X149092335Y-108535235D01*
X149092333Y-107880390D01*
X148397804Y-107880388D01*
X146611874Y-107880388D01*
X146611872Y-108535232D01*
X145560153Y-108535232D01*
X145560150Y-107880393D01*
X144865621Y-107880390D01*
X143218592Y-107880390D01*
X143079686Y-107880389D01*
X142520326Y-107880389D01*
X142512309Y-107801327D01*
X142505943Y-107756244D01*
X142499050Y-107717186D01*
X142491819Y-107685386D01*
X142484401Y-107662107D01*
X142479111Y-107652691D01*
X142474370Y-107643052D01*
X142470156Y-107633206D01*
X142466462Y-107623158D01*
X142460466Y-107602504D01*
X142456187Y-107581184D01*
X142453417Y-107559279D01*
X142451963Y-107536884D01*
X142451610Y-107514078D01*
X142451862Y-107503359D01*
X144865620Y-107503359D01*
X145097130Y-107503358D01*
X146611869Y-107503358D01*
X147326241Y-107503357D01*
X147326243Y-106868360D01*
X146790463Y-106868357D01*
X148397806Y-106868357D01*
X148397811Y-107503355D01*
X149092333Y-107503359D01*
X149092333Y-107503357D01*
X151969678Y-107503357D01*
X152664216Y-107503360D01*
X152664216Y-106868360D01*
X153735774Y-106868360D01*
X153735778Y-107503358D01*
X154430307Y-107503355D01*
X154430307Y-107483513D01*
X155521710Y-107483513D01*
X156053900Y-107483516D01*
X156216247Y-107453109D01*
X156216242Y-106848516D01*
X155521715Y-106848516D01*
X155521710Y-107483513D01*
X154430307Y-107483513D01*
X154430307Y-106868359D01*
X153735774Y-106868360D01*
X152664216Y-106868360D01*
X152664216Y-106868359D01*
X151969679Y-106868362D01*
X151969678Y-107503357D01*
X149092333Y-107503357D01*
X149092333Y-107503356D01*
X150183740Y-107503356D01*
X150878276Y-107503354D01*
X150878272Y-106868357D01*
X150183743Y-106868361D01*
X150183740Y-107503356D01*
X149092333Y-107503356D01*
X149092340Y-106868358D01*
X148397806Y-106868357D01*
X146790463Y-106868357D01*
X146611870Y-106868356D01*
X146611869Y-107503358D01*
X145097130Y-107503358D01*
X145560149Y-107503356D01*
X145560152Y-106868358D01*
X144865622Y-106868361D01*
X144865620Y-107503359D01*
X142451862Y-107503359D01*
X142452153Y-107490956D01*
X142452627Y-107483518D01*
X143079683Y-107483518D01*
X143774215Y-107483514D01*
X143774217Y-106848519D01*
X143079684Y-106848515D01*
X143079683Y-107483518D01*
X142452627Y-107483518D01*
X142455138Y-107444101D01*
X142459285Y-107397005D01*
X142462968Y-107350383D01*
X142464129Y-107327465D01*
X142464561Y-107304921D01*
X142524089Y-107185859D01*
X142524087Y-106749296D01*
X142523858Y-106741860D01*
X142523193Y-106734452D01*
X142522122Y-106727107D01*
X142520678Y-106719840D01*
X142518879Y-106712697D01*
X142516761Y-106705689D01*
X142514353Y-106698864D01*
X142511687Y-106692242D01*
X142508782Y-106685857D01*
X142505679Y-106679728D01*
X142502397Y-106673888D01*
X142498968Y-106668369D01*
X142495430Y-106663202D01*
X142491801Y-106658406D01*
X142488116Y-106654024D01*
X142484395Y-106650074D01*
X142478878Y-106645390D01*
X142473484Y-106638853D01*
X142468238Y-106630591D01*
X142463154Y-106620736D01*
X142453527Y-106596753D01*
X142444706Y-106567910D01*
X142436822Y-106535238D01*
X142429980Y-106499738D01*
X142424299Y-106462437D01*
X142419900Y-106424355D01*
X142417346Y-106392112D01*
X144865617Y-106392112D01*
X145560155Y-106392108D01*
X145560155Y-106372264D01*
X146611867Y-106372264D01*
X147326241Y-106372269D01*
X147326241Y-106372267D01*
X148397805Y-106372267D01*
X149092338Y-106372263D01*
X149092333Y-105816640D01*
X150183742Y-105816640D01*
X150183744Y-106372264D01*
X150878275Y-106372265D01*
X150878270Y-105816644D01*
X151969678Y-105816644D01*
X151969682Y-106392106D01*
X152664213Y-106392109D01*
X153755619Y-106392109D01*
X154450148Y-106392109D01*
X154450152Y-105816642D01*
X153755621Y-105816640D01*
X153755619Y-106392109D01*
X152664213Y-106392109D01*
X152664215Y-105816641D01*
X151969678Y-105816644D01*
X150878270Y-105816644D01*
X150878270Y-105816641D01*
X150183742Y-105816640D01*
X149092333Y-105816640D01*
X149092333Y-105816639D01*
X155521713Y-105816639D01*
X155521714Y-106392113D01*
X155753224Y-106392112D01*
X157267966Y-106392112D01*
X158002184Y-106392106D01*
X158002186Y-105816645D01*
X157267970Y-105816645D01*
X157267966Y-106392112D01*
X155753224Y-106392112D01*
X156216245Y-106392110D01*
X156216244Y-105816640D01*
X159053901Y-105816640D01*
X159053906Y-106372263D01*
X159748438Y-106372266D01*
X159748434Y-105816641D01*
X159053901Y-105816640D01*
X156216244Y-105816640D01*
X156216244Y-105816639D01*
X155521713Y-105816639D01*
X149092333Y-105816639D01*
X148397807Y-105816639D01*
X148397805Y-106372267D01*
X147326241Y-106372267D01*
X147326243Y-105816642D01*
X146611870Y-105816639D01*
X146611867Y-106372264D01*
X145560155Y-106372264D01*
X145560152Y-105816642D01*
X144865624Y-105816641D01*
X144865617Y-106392112D01*
X142417346Y-106392112D01*
X142417346Y-106392110D01*
X143079680Y-106392110D01*
X143774216Y-106392111D01*
X143774215Y-105816638D01*
X143079684Y-105816638D01*
X143079680Y-106392110D01*
X142417346Y-106392110D01*
X142416902Y-106386505D01*
X142415402Y-106349900D01*
X142415542Y-106315566D01*
X142417416Y-106284522D01*
X142421162Y-106257771D01*
X142423762Y-106246328D01*
X142426876Y-106236343D01*
X142430512Y-106227945D01*
X142434683Y-106221251D01*
X142439412Y-106216398D01*
X142444703Y-106213516D01*
X142455409Y-106209680D01*
X142465217Y-106205619D01*
X142474171Y-106201337D01*
X142482301Y-106196852D01*
X142489642Y-106192158D01*
X142496242Y-106187266D01*
X142502128Y-106182187D01*
X142507335Y-106176930D01*
X142511909Y-106171492D01*
X142515876Y-106165893D01*
X142519277Y-106160133D01*
X142522142Y-106154216D01*
X142524520Y-106148155D01*
X142526433Y-106141964D01*
X142527927Y-106135632D01*
X142529043Y-106129177D01*
X142529804Y-106122608D01*
X142530253Y-106115935D01*
X142530360Y-106102282D01*
X142529653Y-106088282D01*
X142528418Y-106073985D01*
X142525550Y-106044766D01*
X142524495Y-106029946D01*
X142524077Y-106015077D01*
X142524082Y-105717417D01*
X142524040Y-105708312D01*
X142523774Y-105696649D01*
X142523475Y-105690221D01*
X142523031Y-105683587D01*
X142522417Y-105676896D01*
X142521598Y-105670292D01*
X142520547Y-105663920D01*
X142519236Y-105657931D01*
X142517631Y-105652461D01*
X142516710Y-105649965D01*
X142515705Y-105647661D01*
X142514618Y-105645551D01*
X142513439Y-105643672D01*
X142512162Y-105642029D01*
X142510790Y-105640647D01*
X142509307Y-105639531D01*
X142507733Y-105638717D01*
X142506045Y-105638217D01*
X142504236Y-105638049D01*
X142493532Y-105635958D01*
X142483727Y-105633427D01*
X142474771Y-105630470D01*
X142466643Y-105627120D01*
X142459298Y-105623386D01*
X142452698Y-105619298D01*
X142446813Y-105614873D01*
X142441602Y-105610142D01*
X142437032Y-105605116D01*
X142433063Y-105599822D01*
X142429670Y-105594276D01*
X142426800Y-105588515D01*
X142424418Y-105582548D01*
X142422501Y-105576391D01*
X142421012Y-105570079D01*
X142419897Y-105563637D01*
X142419137Y-105557066D01*
X142418689Y-105550407D01*
X142418579Y-105536894D01*
X142419288Y-105523252D01*
X142420518Y-105509677D01*
X142423386Y-105483407D01*
X142424443Y-105471049D01*
X142424863Y-105459453D01*
X142425051Y-105360854D01*
X142425519Y-105320277D01*
X142426407Y-105284578D01*
X142426582Y-105280862D01*
X144865621Y-105280862D01*
X145560147Y-105280859D01*
X145560147Y-105280858D01*
X146611866Y-105280858D01*
X147346088Y-105280858D01*
X147346086Y-104804609D01*
X148397805Y-104804609D01*
X148397807Y-105280862D01*
X149092335Y-105280861D01*
X149092335Y-105280860D01*
X150183739Y-105280860D01*
X150878273Y-105280863D01*
X150878273Y-105280862D01*
X153755619Y-105280862D01*
X154450149Y-105280860D01*
X154450151Y-104804609D01*
X155521711Y-104804609D01*
X155521713Y-105280862D01*
X156216245Y-105280859D01*
X156216242Y-104804612D01*
X155521711Y-104804609D01*
X154450151Y-104804609D01*
X154450151Y-104804608D01*
X157287807Y-104804608D01*
X157287809Y-105280857D01*
X158002181Y-105280858D01*
X158002180Y-104804610D01*
X157644993Y-104804609D01*
X159053902Y-104804609D01*
X159053904Y-105280862D01*
X159748433Y-105280861D01*
X159748435Y-104804608D01*
X159053902Y-104804609D01*
X157644993Y-104804609D01*
X157287807Y-104804608D01*
X154450151Y-104804608D01*
X154450151Y-104804606D01*
X153755623Y-104804611D01*
X153755619Y-105280862D01*
X150878273Y-105280862D01*
X150878274Y-104804609D01*
X150183744Y-104804607D01*
X150183739Y-105280860D01*
X149092335Y-105280860D01*
X149092337Y-104804611D01*
X148397805Y-104804609D01*
X147346086Y-104804609D01*
X147346086Y-104804608D01*
X146611868Y-104804608D01*
X146611866Y-105280858D01*
X145560147Y-105280858D01*
X145560157Y-104804608D01*
X144865624Y-104804607D01*
X144865621Y-105280862D01*
X142426582Y-105280862D01*
X142427888Y-105253069D01*
X142430091Y-105225049D01*
X142433167Y-105199818D01*
X142437258Y-105176679D01*
X142439738Y-105165678D01*
X142442519Y-105154937D01*
X142449083Y-105133887D01*
X142457102Y-105112846D01*
X142466720Y-105091101D01*
X142478081Y-105067963D01*
X142491324Y-105042736D01*
X142524084Y-104983199D01*
X142524196Y-104981344D01*
X142524530Y-104979484D01*
X142525080Y-104977638D01*
X142525826Y-104975803D01*
X142526758Y-104973974D01*
X142527871Y-104972172D01*
X142529157Y-104970385D01*
X142530586Y-104968633D01*
X142532172Y-104966896D01*
X142533888Y-104965205D01*
X142537685Y-104961927D01*
X142541880Y-104958819D01*
X142546405Y-104955917D01*
X142551156Y-104953248D01*
X142556052Y-104950843D01*
X142561006Y-104948722D01*
X142565932Y-104946928D01*
X142570741Y-104945479D01*
X142575352Y-104944410D01*
X142579668Y-104943742D01*
X142583608Y-104943516D01*
X142650615Y-104929486D01*
X142717866Y-104916851D01*
X142853978Y-104893908D01*
X142993813Y-104870964D01*
X143065707Y-104858327D01*
X143079684Y-104855661D01*
X143139228Y-104844295D01*
X143159076Y-105082424D01*
X143853608Y-105082421D01*
X143853611Y-104804606D01*
X151969679Y-104804606D01*
X151969682Y-105280858D01*
X152664215Y-105280859D01*
X152664211Y-104804610D01*
X151969679Y-104804606D01*
X143853611Y-104804606D01*
X143853611Y-104784768D01*
X143853721Y-104782795D01*
X143854059Y-104780601D01*
X143854607Y-104778218D01*
X143855351Y-104775660D01*
X143857404Y-104770069D01*
X143860117Y-104763992D01*
X143863424Y-104757562D01*
X143867211Y-104750932D01*
X143871410Y-104744238D01*
X143875929Y-104737639D01*
X143880683Y-104731261D01*
X143885584Y-104725270D01*
X143890536Y-104719798D01*
X143893012Y-104717310D01*
X143895461Y-104715001D01*
X143897889Y-104712896D01*
X143900274Y-104711016D01*
X143902606Y-104709370D01*
X143904876Y-104707992D01*
X143907083Y-104706876D01*
X143909198Y-104706065D01*
X143911218Y-104705562D01*
X143913136Y-104705389D01*
X143980110Y-104683957D01*
X144047084Y-104664153D01*
X144114057Y-104645741D01*
X144181032Y-104628495D01*
X144314975Y-104596559D01*
X144448918Y-104566483D01*
X144865618Y-104497580D01*
X146611872Y-104208834D01*
X146969079Y-104149767D01*
X147478506Y-104062952D01*
X147735425Y-104024192D01*
X147993509Y-103991017D01*
X148252529Y-103965282D01*
X148397805Y-103956087D01*
X148512239Y-103948849D01*
X148642282Y-103944702D01*
X148772414Y-103943574D01*
X148902609Y-103945709D01*
X149032828Y-103951327D01*
X149132047Y-103951327D01*
X149112201Y-103911641D01*
X149270950Y-103812421D01*
X149506279Y-103770872D01*
X149739752Y-103733045D01*
X149976949Y-103695219D01*
X150183739Y-103660366D01*
X150223448Y-103653672D01*
X150223447Y-103951325D01*
X150917981Y-103951327D01*
X150917980Y-103792579D01*
X151969679Y-103792579D01*
X151969681Y-104149763D01*
X152664215Y-104149765D01*
X152664215Y-104149764D01*
X155521709Y-104149764D01*
X156216246Y-104149763D01*
X156216246Y-104129923D01*
X157267962Y-104129923D01*
X157267967Y-104129920D01*
X157287806Y-104129926D01*
X158002182Y-104129922D01*
X158002180Y-103792579D01*
X159053902Y-103792579D01*
X159053904Y-104149763D01*
X159748433Y-104149764D01*
X159748434Y-103792576D01*
X159053902Y-103792579D01*
X158002180Y-103792579D01*
X157267963Y-103792578D01*
X157267962Y-104129923D01*
X156216246Y-104129923D01*
X156216240Y-103792573D01*
X155521714Y-103792578D01*
X155521709Y-104149764D01*
X152664215Y-104149764D01*
X152664220Y-103792579D01*
X151969679Y-103792579D01*
X150917980Y-103792579D01*
X150917980Y-103772734D01*
X153735777Y-103772734D01*
X153735777Y-104129923D01*
X153755617Y-104129926D01*
X154430309Y-104129923D01*
X154430304Y-103772731D01*
X153735777Y-103772734D01*
X150917980Y-103772734D01*
X150917978Y-103594143D01*
X150461575Y-103594143D01*
X151433917Y-103415544D01*
X151969678Y-103326866D01*
X153735776Y-103034545D01*
X154311260Y-102939299D01*
X154475279Y-102910147D01*
X154557874Y-102896743D01*
X154641158Y-102884726D01*
X154725381Y-102874571D01*
X154810760Y-102866740D01*
X154897541Y-102861704D01*
X154985946Y-102859925D01*
X155026655Y-102855340D01*
X155066988Y-102849302D01*
X155146864Y-102834494D01*
X155226274Y-102818760D01*
X155266024Y-102811564D01*
X155305923Y-102805351D01*
X155346048Y-102800533D01*
X155386498Y-102797523D01*
X155427355Y-102796719D01*
X155468704Y-102798529D01*
X155510631Y-102803364D01*
X155521713Y-102805514D01*
X155553229Y-102811628D01*
X155574815Y-102817175D01*
X155596590Y-102823732D01*
X155618578Y-102831348D01*
X155640788Y-102840073D01*
X155674952Y-102853382D01*
X155710355Y-102863719D01*
X155746870Y-102871385D01*
X155784343Y-102876664D01*
X155822634Y-102879850D01*
X155861588Y-102881238D01*
X155901065Y-102881114D01*
X155940924Y-102879764D01*
X156021192Y-102874570D01*
X156101230Y-102867982D01*
X156179863Y-102862326D01*
X156218294Y-102860568D01*
X156255944Y-102859922D01*
X156256168Y-102848539D01*
X156256796Y-102836781D01*
X156257775Y-102824734D01*
X156259047Y-102812481D01*
X156262222Y-102787718D01*
X156265862Y-102763184D01*
X156269204Y-102740860D01*
X157287806Y-102740860D01*
X157287806Y-103038514D01*
X158002181Y-103038516D01*
X158002184Y-102740858D01*
X159053899Y-102740858D01*
X159053907Y-103038516D01*
X159748436Y-103038513D01*
X159748431Y-102740854D01*
X159053899Y-102740858D01*
X158002184Y-102740858D01*
X157287806Y-102740860D01*
X156269204Y-102740860D01*
X156272685Y-102717604D01*
X156274936Y-102697956D01*
X156275564Y-102689224D01*
X156275787Y-102681328D01*
X156364232Y-102658187D01*
X156451281Y-102633888D01*
X156623054Y-102584587D01*
X156708709Y-102560985D01*
X156794826Y-102539010D01*
X156881879Y-102519357D01*
X156970323Y-102502731D01*
X157267963Y-102453124D01*
X157287804Y-102449820D01*
X159053902Y-102155471D01*
X160065944Y-101986800D01*
X160094563Y-101983785D01*
X160120907Y-101982257D01*
X160133245Y-101982081D01*
X160145043Y-101982304D01*
G37*
G36*
X160184990Y-142805387D02*
G01*
X146790462Y-145047732D01*
X146790464Y-140225700D01*
X160184991Y-138003202D01*
X160184990Y-142805387D01*
G37*
G36*
X143628079Y-140780558D02*
G01*
X143702974Y-140785082D01*
X143777196Y-140792803D01*
X143850675Y-140803663D01*
X143923344Y-140817606D01*
X143995137Y-140834576D01*
X144065977Y-140854500D01*
X144135798Y-140877341D01*
X144204539Y-140903029D01*
X144272118Y-140931505D01*
X144338476Y-140962714D01*
X144403549Y-140996596D01*
X144467246Y-141033098D01*
X144529514Y-141072157D01*
X144590287Y-141113712D01*
X144649489Y-141157711D01*
X144707049Y-141204092D01*
X144762897Y-141252800D01*
X144816974Y-141303779D01*
X144869207Y-141356962D01*
X144919526Y-141412303D01*
X144967856Y-141469727D01*
X145014134Y-141529189D01*
X145058293Y-141590627D01*
X145100264Y-141653987D01*
X145139966Y-141719202D01*
X145177345Y-141786224D01*
X145212320Y-141854992D01*
X145244835Y-141925445D01*
X145274808Y-141997522D01*
X145302179Y-142071169D01*
X145341207Y-142196757D01*
X145372828Y-142324026D01*
X145397168Y-142452692D01*
X145414380Y-142582462D01*
X145424600Y-142713041D01*
X145427970Y-142844147D01*
X145424632Y-142975486D01*
X145414735Y-143106766D01*
X145398404Y-143237701D01*
X145375793Y-143367996D01*
X145347043Y-143497358D01*
X145312294Y-143625500D01*
X145271692Y-143752129D01*
X145225362Y-143876954D01*
X145173469Y-143999688D01*
X145116140Y-144120043D01*
X145053525Y-144237716D01*
X144985758Y-144352433D01*
X144912985Y-144463881D01*
X144835346Y-144571794D01*
X144752980Y-144675868D01*
X144666037Y-144775813D01*
X144574654Y-144871340D01*
X144478968Y-144962159D01*
X144379127Y-145047980D01*
X144275278Y-145128507D01*
X144167549Y-145203450D01*
X144056089Y-145272528D01*
X143941038Y-145335439D01*
X143822543Y-145391900D01*
X143700733Y-145441614D01*
X143575771Y-145484293D01*
X143442314Y-145525192D01*
X143309897Y-145558439D01*
X143178648Y-145583839D01*
X143048671Y-145601192D01*
X142920097Y-145610286D01*
X142793031Y-145610921D01*
X142667595Y-145602892D01*
X142543898Y-145585997D01*
X142422067Y-145560035D01*
X142302210Y-145524799D01*
X142184439Y-145480091D01*
X142068887Y-145425699D01*
X142011976Y-145394808D01*
X141955657Y-145361423D01*
X141899955Y-145325518D01*
X141844870Y-145287061D01*
X141736640Y-145202413D01*
X141631086Y-145107263D01*
X141548964Y-145027950D01*
X141473615Y-144946194D01*
X141404835Y-144861879D01*
X141342422Y-144774884D01*
X141286169Y-144685102D01*
X141235881Y-144592415D01*
X141191341Y-144496701D01*
X141152360Y-144397850D01*
X141118721Y-144295742D01*
X141090228Y-144190268D01*
X141066680Y-144081303D01*
X141047867Y-143968728D01*
X141033591Y-143852438D01*
X141023645Y-143732308D01*
X141017824Y-143608228D01*
X141015932Y-143480075D01*
X141014281Y-143389225D01*
X141016671Y-143299010D01*
X141022953Y-143209516D01*
X141032984Y-143120793D01*
X141046618Y-143032919D01*
X141063719Y-142945952D01*
X141084131Y-142859957D01*
X141107712Y-142775004D01*
X141134311Y-142691150D01*
X141163789Y-142608473D01*
X141196004Y-142527030D01*
X141230803Y-142446883D01*
X141268042Y-142368107D01*
X141307579Y-142290761D01*
X141392960Y-142140624D01*
X141485784Y-141996995D01*
X141584883Y-141860412D01*
X141689104Y-141731375D01*
X141797275Y-141610424D01*
X141908238Y-141498074D01*
X142020828Y-141394853D01*
X142133883Y-141301286D01*
X142246239Y-141217890D01*
X142317176Y-141170694D01*
X142388632Y-141125881D01*
X142460675Y-141083509D01*
X142533351Y-141043638D01*
X142606732Y-141006323D01*
X142680863Y-140971632D01*
X142755812Y-140939605D01*
X142831631Y-140910313D01*
X142908382Y-140883813D01*
X142986118Y-140860166D01*
X143064902Y-140839419D01*
X143144788Y-140821641D01*
X143225845Y-140806879D01*
X143308111Y-140795211D01*
X143391668Y-140786665D01*
X143476554Y-140781333D01*
X143552584Y-140779289D01*
X143628079Y-140780558D01*
G37*
G36*
X145143431Y-163046021D02*
G01*
X145142963Y-163067888D01*
X145141532Y-163088881D01*
X145139117Y-163109064D01*
X145135683Y-163128493D01*
X145131202Y-163147223D01*
X145125645Y-163165314D01*
X145118982Y-163182823D01*
X145111189Y-163199810D01*
X145102230Y-163216330D01*
X145092078Y-163232442D01*
X145080709Y-163248202D01*
X145068085Y-163263681D01*
X145054186Y-163278922D01*
X145038976Y-163293983D01*
X145022434Y-163308935D01*
X145004527Y-163323828D01*
X142563748Y-165367733D01*
X142236013Y-165639038D01*
X141906419Y-165915916D01*
X141573101Y-166196521D01*
X141234214Y-166478981D01*
X141234155Y-166475320D01*
X141233991Y-166471774D01*
X141233735Y-166468342D01*
X141233395Y-166465032D01*
X141232985Y-166461835D01*
X141232509Y-166458749D01*
X141231986Y-166455783D01*
X141231424Y-166452939D01*
X141230825Y-166450205D01*
X141230211Y-166447588D01*
X141228977Y-166442703D01*
X141226768Y-166434334D01*
X141226336Y-166432527D01*
X141225969Y-166430845D01*
X141225681Y-166429276D01*
X141225489Y-166427819D01*
X141225396Y-166426484D01*
X141225417Y-166425259D01*
X141225562Y-166424160D01*
X141225682Y-166423650D01*
X141225839Y-166423168D01*
X141226034Y-166422718D01*
X141226262Y-166422296D01*
X141226532Y-166421909D01*
X141226842Y-166421543D01*
X141227193Y-166421211D01*
X141227586Y-166420905D01*
X141228029Y-166420631D01*
X141228512Y-166420383D01*
X141229045Y-166420171D01*
X141229627Y-166419977D01*
X141230940Y-166419688D01*
X141232465Y-166419512D01*
X141234208Y-166419454D01*
X141234209Y-162470548D01*
X141234324Y-162464970D01*
X141234675Y-162459389D01*
X141235239Y-162453824D01*
X141236035Y-162448265D01*
X141237044Y-162442714D01*
X141238267Y-162437193D01*
X141239700Y-162431690D01*
X141241345Y-162426212D01*
X141243185Y-162420757D01*
X141245232Y-162415342D01*
X141249912Y-162404624D01*
X141255344Y-162394078D01*
X141261493Y-162383735D01*
X141268356Y-162373626D01*
X141275878Y-162363775D01*
X141284040Y-162354218D01*
X141292812Y-162344979D01*
X141302171Y-162336087D01*
X141312079Y-162327578D01*
X141322509Y-162319467D01*
X141333430Y-162311800D01*
X142259266Y-161749665D01*
X143188824Y-161193106D01*
X145044213Y-160089303D01*
X145048161Y-160085802D01*
X145052546Y-160082711D01*
X145057341Y-160079968D01*
X145062509Y-160077517D01*
X145068025Y-160075297D01*
X145073863Y-160073255D01*
X145086379Y-160069456D01*
X145099834Y-160065657D01*
X145113979Y-160061393D01*
X145121243Y-160058939D01*
X145128590Y-160056198D01*
X145135997Y-160053105D01*
X145143434Y-160049605D01*
X145143431Y-163046021D01*
G37*
%LPC*%
D11*
X135510000Y-33750000D03*
D12*
X138050000Y-33750000D03*
X140590000Y-33750000D03*
X143130000Y-33750000D03*
X145670000Y-33750000D03*
X148210000Y-33750000D03*
X150750000Y-33750000D03*
X153290000Y-33750000D03*
X155830000Y-33750000D03*
X158370000Y-33750000D03*
X160910000Y-33750000D03*
X163450000Y-33750000D03*
X165990000Y-33750000D03*
D11*
X135510000Y-54070000D03*
D12*
X138050000Y-54070000D03*
X140590000Y-54070000D03*
X143130000Y-54070000D03*
X145670000Y-54070000D03*
X148210000Y-54070000D03*
X150750000Y-54070000D03*
X153290000Y-54070000D03*
X155830000Y-54070000D03*
X158370000Y-54070000D03*
X160910000Y-54070000D03*
X163450000Y-54070000D03*
X165990000Y-54070000D03*
%LPD*%
M02*
