G04 #@! TF.GenerationSoftware,KiCad,Pcbnew,9.0.7*
G04 #@! TF.CreationDate,2026-01-10T22:48:38-06:00*
G04 #@! TF.ProjectId,moirePCB,6d6f6972-6550-4434-922e-6b696361645f,rev?*
G04 #@! TF.SameCoordinates,Original*
G04 #@! TF.FileFunction,Soldermask,Top*
G04 #@! TF.FilePolarity,Negative*
%FSLAX46Y46*%
G04 Gerber Fmt 4.6, Leading zero omitted, Abs format (unit mm)*
G04 Created by KiCad (PCBNEW 9.0.7) date 2026-01-10 22:48:38*
%MOMM*%
%LPD*%
G01*
G04 APERTURE LIST*
G04 Aperture macros list*
%AMRoundRect*
0 Rectangle with rounded corners*
0 $1 Rounding radius*
0 $2 $3 $4 $5 $6 $7 $8 $9 X,Y pos of 4 corners*
0 Add a 4 corners polygon primitive as box body*
4,1,4,$2,$3,$4,$5,$6,$7,$8,$9,$2,$3,0*
0 Add four circle primitives for the rounded corners*
1,1,$1+$1,$2,$3*
1,1,$1+$1,$4,$5*
1,1,$1+$1,$6,$7*
1,1,$1+$1,$8,$9*
0 Add four rect primitives between the rounded corners*
20,1,$1+$1,$2,$3,$4,$5,0*
20,1,$1+$1,$4,$5,$6,$7,0*
20,1,$1+$1,$6,$7,$8,$9,0*
20,1,$1+$1,$8,$9,$2,$3,0*%
G04 Aperture macros list end*
%ADD10R,0.300000X0.450000*%
%ADD11RoundRect,0.250000X0.475000X-0.250000X0.475000X0.250000X-0.475000X0.250000X-0.475000X-0.250000X0*%
%ADD12R,0.600000X0.400000*%
%ADD13R,1.700000X1.700000*%
%ADD14C,1.700000*%
%ADD15RoundRect,0.150000X0.825000X0.150000X-0.825000X0.150000X-0.825000X-0.150000X0.825000X-0.150000X0*%
%ADD16RoundRect,0.250000X0.450000X-0.262500X0.450000X0.262500X-0.450000X0.262500X-0.450000X-0.262500X0*%
G04 APERTURE END LIST*
D10*
X149200000Y-59650000D03*
X149200000Y-59000000D03*
X149200000Y-58350000D03*
X147400000Y-58350000D03*
X147400000Y-59000000D03*
X147400000Y-59650000D03*
D11*
X159050000Y-60650000D03*
X159050000Y-58750000D03*
X155450000Y-60650000D03*
X155450000Y-58750000D03*
D12*
X139750000Y-58500000D03*
X139750000Y-59450000D03*
X139750000Y-60400000D03*
X142550000Y-60400000D03*
X142550000Y-59450000D03*
X142550000Y-58500000D03*
D13*
X135510000Y-33750000D03*
D14*
X138050000Y-33750000D03*
X140590000Y-33750000D03*
X143130000Y-33750000D03*
X145670000Y-33750000D03*
X148210000Y-33750000D03*
X150750000Y-33750000D03*
X153290000Y-33750000D03*
X155830000Y-33750000D03*
X158370000Y-33750000D03*
X160910000Y-33750000D03*
X163450000Y-33750000D03*
X165990000Y-33750000D03*
D13*
X135510000Y-54070000D03*
D14*
X138050000Y-54070000D03*
X140590000Y-54070000D03*
X143130000Y-54070000D03*
X145670000Y-54070000D03*
X148210000Y-54070000D03*
X150750000Y-54070000D03*
X153290000Y-54070000D03*
X155830000Y-54070000D03*
X158370000Y-54070000D03*
X160910000Y-54070000D03*
X163450000Y-54070000D03*
X165990000Y-54070000D03*
D15*
X150150000Y-67300000D03*
X150150000Y-66030000D03*
X150150000Y-64760000D03*
X150150000Y-63490000D03*
X145200000Y-63490000D03*
X145200000Y-64760000D03*
X145200000Y-66030000D03*
X145200000Y-67300000D03*
D16*
X159050000Y-65025000D03*
X159050000Y-63200000D03*
X155450000Y-65025000D03*
X155450000Y-63200000D03*
M02*
