M48
; DRILL file {KiCad 9.0.7} date 2026-01-10T22:48:51-0600
; FORMAT={-:-/ absolute / metric / decimal}
; #@! TF.CreationDate,2026-01-10T22:48:51-06:00
; #@! TF.GenerationSoftware,Kicad,Pcbnew,9.0.7
; #@! TF.FileFunction,Plated,1,2,PTH
FMAT,2
METRIC
; #@! TA.AperFunction,Plated,PTH,ViaDrill
T1C0.400
; #@! TA.AperFunction,Plated,PTH,ComponentDrill
T2C1.000
%
G90
G05
T1
X139.857Y-56.456
X147.374Y-66.791
X154.163Y-66.09
T2
X135.51Y-33.75
X135.51Y-54.07
X138.05Y-33.75
X138.05Y-54.07
X140.59Y-33.75
X140.59Y-54.07
X143.13Y-33.75
X143.13Y-54.07
X145.67Y-33.75
X145.67Y-54.07
X148.21Y-33.75
X148.21Y-54.07
X150.75Y-33.75
X150.75Y-54.07
X153.29Y-33.75
X153.29Y-54.07
X155.83Y-33.75
X155.83Y-54.07
X158.37Y-33.75
X158.37Y-54.07
X160.91Y-33.75
X160.91Y-54.07
X163.45Y-33.75
X163.45Y-54.07
X165.99Y-33.75
X165.99Y-54.07
M30
